<svg width="581" height="384" viewBox="0 0 581 384" fill="none" xmlns="http://www.w3.org/2000/svg">
<rect width="581" height="384" fill="#001641"/>
<path d="M120.72 225.546L120.781 225.572L120.845 225.587C121.928 225.839 122.671 226.514 123.196 227.582C123.736 228.682 124.027 230.167 124.155 231.928C124.282 233.68 124.244 235.633 124.173 237.636C124.155 238.122 124.136 238.612 124.116 239.103C124.056 240.616 123.996 242.131 123.996 243.55C123.996 245.11 123.171 246.686 121.483 248.21C119.796 249.734 117.309 251.142 114.171 252.34C107.899 254.735 99.1814 256.233 89.5135 256.233C79.8455 256.233 71.128 254.735 64.8561 252.34C61.7175 251.142 59.2314 249.734 57.5437 248.21C55.856 246.686 55.0307 245.11 55.0307 243.55C55.0307 241.041 54.9513 238.85 54.8826 236.953C54.8774 236.809 54.8722 236.667 54.8671 236.526C54.7951 234.522 54.7449 232.885 54.8207 231.531C54.8967 230.173 55.0968 229.182 55.4738 228.44C55.8352 227.729 56.3842 227.198 57.2771 226.803C58.7046 226.171 60.7137 226.046 63.1993 226.283C65.666 226.519 68.4894 227.098 71.4858 227.776C72.3194 227.965 73.1668 228.161 74.0229 228.36C79.2637 229.576 84.8283 230.867 89.5135 230.867C94.2561 230.867 99.8724 229.239 105.094 227.725C105.716 227.545 106.332 227.367 106.941 227.192C109.832 226.366 112.555 225.637 114.948 225.279C117.359 224.918 119.312 224.956 120.72 225.546Z" fill="#001641" stroke="#FFB800" stroke-width="1.56596"/>
<path d="M123.996 230.084C123.996 231.644 123.171 233.221 121.483 234.744C119.796 236.268 117.309 237.676 114.171 238.874C107.899 241.269 99.1814 242.767 89.5135 242.767C79.8455 242.767 71.1281 241.269 64.8561 238.874C61.7175 237.676 59.2314 236.268 57.5438 234.744C55.856 233.221 55.0307 231.644 55.0307 230.084C55.0307 228.523 55.856 226.947 57.5438 225.424C59.2314 223.9 61.7175 222.492 64.8561 221.294C71.1281 218.899 79.8455 217.401 89.5135 217.401C99.1814 217.401 107.899 218.899 114.171 221.294C117.309 222.492 119.796 223.9 121.483 225.424C123.171 226.947 123.996 228.523 123.996 230.084Z" fill="#001641" stroke="#FFB800" stroke-width="1.56596"/>
<path d="M120.72 201.981L120.781 202.007L120.845 202.022C121.928 202.274 122.671 202.949 123.196 204.017C123.736 205.117 124.027 206.602 124.155 208.363C124.282 210.115 124.244 212.068 124.173 214.071C124.155 214.557 124.136 215.047 124.116 215.538C124.056 217.051 123.996 218.567 123.996 219.985C123.996 221.545 123.171 223.122 121.483 224.645C119.796 226.169 117.309 227.577 114.171 228.775C107.899 231.17 99.1814 232.668 89.5135 232.668C79.8455 232.668 71.128 231.17 64.8561 228.775C61.7175 227.577 59.2314 226.169 57.5437 224.645C55.856 223.122 55.0307 221.545 55.0307 219.985C55.0307 217.476 54.9513 215.285 54.8826 213.388C54.8774 213.244 54.8722 213.102 54.8671 212.961C54.7951 210.957 54.7449 209.32 54.8207 207.966C54.8967 206.609 55.0968 205.617 55.4738 204.875C55.8352 204.164 56.3842 203.633 57.2771 203.238C58.7046 202.606 60.7137 202.481 63.1993 202.719C65.666 202.954 68.4894 203.533 71.4858 204.211C72.3194 204.4 73.1668 204.596 74.0229 204.795C79.2637 206.011 84.8283 207.302 89.5135 207.302C94.2561 207.302 99.8724 205.674 105.094 204.161C105.716 203.98 106.332 203.802 106.941 203.628C109.832 202.801 112.555 202.072 114.948 201.714C117.359 201.354 119.312 201.391 120.72 201.981Z" fill="#001641" stroke="#FFB800" stroke-width="1.56596"/>
<path d="M123.996 206.519C123.996 208.08 123.171 209.656 121.483 211.18C119.796 212.703 117.309 214.111 114.171 215.31C107.899 217.704 99.1814 219.202 89.5135 219.202C79.8455 219.202 71.1281 217.704 64.8561 215.31C61.7175 214.111 59.2314 212.703 57.5438 211.18C55.856 209.656 55.0307 208.08 55.0307 206.519C55.0307 204.959 55.856 203.383 57.5438 201.859C59.2314 200.336 61.7175 198.928 64.8561 197.729C71.1281 195.334 79.8455 193.837 89.5135 193.837C99.1814 193.837 107.899 195.334 114.171 197.729C117.309 198.928 119.796 200.336 121.483 201.859C123.171 203.383 123.996 204.959 123.996 206.519Z" fill="#001641" stroke="#FFB800" stroke-width="1.56596"/>
<path d="M120.759 178.312L120.698 178.286C119.291 177.691 117.341 177.654 114.93 178.017C112.539 178.378 109.816 179.112 106.926 179.945C106.318 180.12 105.702 180.3 105.08 180.482C99.8603 182.007 94.2449 183.647 89.5027 183.647C84.8182 183.647 79.2545 182.346 74.0154 181.121C73.1596 180.921 72.3124 180.723 71.4792 180.533C68.4837 179.849 65.6614 179.266 63.196 179.029C60.7115 178.79 58.7042 178.916 57.2783 179.552M120.759 178.312L57.2783 179.552M120.759 178.312L120.824 178.327C121.905 178.581 122.648 179.261 123.174 180.339C123.715 181.448 124.005 182.947 124.133 184.722C124.26 186.487 124.223 188.456 124.151 190.474C124.134 190.964 124.115 191.458 124.095 191.952C124.035 193.477 123.975 195.003 123.975 196.432C123.975 198.009 123.147 199.599 121.46 201.134C119.773 202.67 117.288 204.088 114.151 205.295C107.881 207.708 99.1671 209.217 89.5027 209.217C79.8383 209.217 71.1242 207.708 64.8548 205.295C61.7175 204.088 59.2324 202.67 57.5451 201.134C55.8581 199.599 55.0306 198.009 55.0306 196.432C55.0306 193.905 54.9513 191.697 54.8826 189.786C54.8773 189.641 54.8722 189.497 54.8671 189.356C54.7951 187.336 54.7449 185.686 54.8207 184.321C54.8968 182.953 55.0969 181.953 55.4747 181.203C55.8369 180.485 56.3865 179.95 57.2783 179.552M120.759 178.312L57.2783 179.552" fill="#001641" stroke="#FFB800" stroke-width="1.56596"/>
<path d="M144.432 194.068C144.432 196.143 143.325 198.211 141.122 200.184C138.919 202.156 135.687 203.968 131.627 205.505C123.511 208.579 112.248 210.496 99.7673 210.496C87.2869 210.496 76.0232 208.579 67.908 205.505C63.8476 203.968 60.6158 202.156 58.413 200.184C56.2098 198.211 55.1022 196.143 55.1022 194.068C55.1022 191.992 56.2098 189.924 58.413 187.952C60.6158 185.979 63.8476 184.167 67.908 182.63C76.0232 179.556 87.2869 177.639 99.7673 177.639C112.248 177.639 123.511 179.556 131.627 182.63C135.687 184.167 138.919 185.979 141.122 187.952C143.325 189.924 144.432 191.992 144.432 194.068Z" fill="#001641" stroke="#FFB800" stroke-width="1.56596"/>
<path d="M106.429 143H133V277H63L106.429 143Z" fill="#001641"/>
<mask id="mask0_505_230" style="mask-type:alpha" maskUnits="userSpaceOnUse" x="72" y="153" width="70" height="134">
<path d="M72.5384 286.609L115.713 153.391H141.609V286.609H72.5384Z" fill="#001641" stroke="#FFB800" stroke-width="0.782979"/>
</mask>
<g mask="url(#mask0_505_230)">
</g>
<mask id="mask1_505_230" style="mask-type:alpha" maskUnits="userSpaceOnUse" x="87" y="144" width="75" height="143">
<path d="M87.9546 286.567L133.875 145.229H161.45V286.567H87.9546Z" fill="#001641" stroke="#FF0049" stroke-width="0.782979"/>
</mask>
<g mask="url(#mask1_505_230)">
<rect x="89.7177" y="206.267" width="13.623" height="54.1797" rx="3.13191" fill="#001641" stroke="#FFB800" stroke-width="1.56596"/>
<path d="M79.4833 258.95H113.575C115.305 258.95 116.707 260.352 116.707 262.082V264.122H76.3514V262.082C76.3514 260.352 77.7536 258.95 79.4833 258.95Z" fill="#001641" stroke="#FFB800" stroke-width="1.56596"/>
<rect x="49.0112" y="178.701" width="95.0356" height="66.4315" rx="3.13191" fill="#001641" stroke="#FFB800" stroke-width="1.56596"/>
<rect x="49.0112" y="178.701" width="95.0356" height="54.1797" rx="3.13191" fill="#001641" stroke="#FFB800" stroke-width="1.56596"/>
</g>
<line y1="-0.782979" x2="114.046" y2="-0.782979" transform="matrix(0.293001 -0.956112 0.954738 0.297447 81.34 271.031)" stroke="#FFB800" stroke-width="1.56596" stroke-dasharray="2.35 2.35"/>
<path d="M50.26 63.09C50.26 60.15 50.848 57.532 52.024 55.236C53.228 52.94 54.936 51.162 57.148 49.902C59.36 48.614 61.964 47.97 64.96 47.97C67.536 47.97 69.832 48.46 71.848 49.44C73.892 50.392 75.544 51.75 76.804 53.514C78.092 55.278 78.946 57.336 79.366 59.688H69.538C69.09 58.708 68.446 57.952 67.606 57.42C66.794 56.86 65.856 56.58 64.792 56.58C63.224 56.58 61.978 57.168 61.054 58.344C60.158 59.52 59.71 61.102 59.71 63.09C59.71 65.078 60.158 66.66 61.054 67.836C61.978 69.012 63.224 69.6 64.792 69.6C65.856 69.6 66.794 69.334 67.606 68.802C68.446 68.242 69.09 67.472 69.538 66.492H79.366C78.946 68.844 78.092 70.902 76.804 72.666C75.544 74.43 73.892 75.802 71.848 76.782C69.832 77.734 67.536 78.21 64.96 78.21C61.964 78.21 59.36 77.58 57.148 76.32C54.936 75.032 53.228 73.24 52.024 70.944C50.848 68.648 50.26 66.03 50.26 63.09ZM93.979 78.294C91.599 78.294 89.457 77.804 87.553 76.824C85.649 75.844 84.151 74.444 83.059 72.624C81.995 70.776 81.463 68.62 81.463 66.156C81.463 63.692 81.995 61.55 83.059 59.73C84.151 57.882 85.649 56.468 87.553 55.488C89.457 54.508 91.599 54.018 93.979 54.018C96.359 54.018 98.501 54.508 100.405 55.488C102.309 56.468 103.793 57.882 104.857 59.73C105.949 61.55 106.495 63.692 106.495 66.156C106.495 68.62 105.949 70.776 104.857 72.624C103.793 74.444 102.309 75.844 100.405 76.824C98.501 77.804 96.359 78.294 93.979 78.294ZM93.979 70.23C94.847 70.23 95.575 69.894 96.163 69.222C96.751 68.522 97.045 67.5 97.045 66.156C97.045 64.812 96.751 63.804 96.163 63.132C95.575 62.432 94.847 62.082 93.979 62.082C93.111 62.082 92.383 62.432 91.795 63.132C91.207 63.804 90.913 64.812 90.913 66.156C90.913 67.5 91.193 68.522 91.753 69.222C92.341 69.894 93.083 70.23 93.979 70.23ZM108.164 66.156C108.164 63.664 108.584 61.508 109.424 59.688C110.292 57.84 111.468 56.44 112.952 55.488C114.436 54.508 116.102 54.018 117.95 54.018C119.49 54.018 120.806 54.34 121.898 54.984C123.018 55.6 123.872 56.454 124.46 57.546V46.92H133.784V78H124.46V74.766C123.872 75.858 123.018 76.726 121.898 77.37C120.806 77.986 119.49 78.294 117.95 78.294C116.102 78.294 114.436 77.818 112.952 76.866C111.468 75.886 110.292 74.486 109.424 72.666C108.584 70.818 108.164 68.648 108.164 66.156ZM124.502 66.156C124.502 64.896 124.18 63.916 123.536 63.216C122.892 62.516 122.066 62.166 121.058 62.166C120.05 62.166 119.224 62.516 118.58 63.216C117.936 63.916 117.614 64.896 117.614 66.156C117.614 67.416 117.936 68.396 118.58 69.096C119.224 69.796 120.05 70.146 121.058 70.146C122.066 70.146 122.892 69.796 123.536 69.096C124.18 68.396 124.502 67.416 124.502 66.156ZM160.903 65.946C160.903 66.59 160.861 67.206 160.777 67.794H145.783C145.923 69.838 146.777 70.86 148.345 70.86C149.353 70.86 150.081 70.398 150.529 69.474H160.399C160.063 71.154 159.349 72.666 158.257 74.01C157.193 75.326 155.835 76.376 154.183 77.16C152.559 77.916 150.767 78.294 148.807 78.294C146.455 78.294 144.355 77.804 142.507 76.824C140.687 75.844 139.259 74.444 138.223 72.624C137.215 70.776 136.711 68.62 136.711 66.156C136.711 63.692 137.215 61.55 138.223 59.73C139.259 57.882 140.687 56.468 142.507 55.488C144.355 54.508 146.455 54.018 148.807 54.018C151.159 54.018 153.245 54.508 155.065 55.488C156.913 56.44 158.341 57.812 159.349 59.604C160.385 61.396 160.903 63.51 160.903 65.946ZM151.453 63.72C151.453 62.936 151.201 62.348 150.697 61.956C150.193 61.536 149.563 61.326 148.807 61.326C147.155 61.326 146.189 62.124 145.909 63.72H151.453ZM206.692 48.264L199.888 78H188.296L184.852 61.116L181.408 78H169.816L163.012 48.264H173.05L175.738 66.996L179.77 48.264H189.934L193.966 66.996L196.654 48.264H206.692ZM214.74 52.422C213.116 52.422 211.814 51.988 210.834 51.12C209.854 50.252 209.364 49.16 209.364 47.844C209.364 46.5 209.854 45.394 210.834 44.526C211.814 43.63 213.116 43.182 214.74 43.182C216.336 43.182 217.624 43.63 218.604 44.526C219.584 45.394 220.074 46.5 220.074 47.844C220.074 49.16 219.584 50.252 218.604 51.12C217.624 51.988 216.336 52.422 214.74 52.422ZM219.36 54.312V78H210.036V54.312H219.36ZM240.161 54.144C242.877 54.144 244.991 55.054 246.503 56.874C248.043 58.694 248.813 61.158 248.813 64.266V78H239.531V65.442C239.531 64.322 239.223 63.44 238.607 62.796C238.019 62.124 237.221 61.788 236.213 61.788C235.177 61.788 234.365 62.124 233.777 62.796C233.189 63.44 232.895 64.322 232.895 65.442V78H223.571V54.312H232.895V57.924C233.623 56.804 234.589 55.894 235.793 55.194C237.025 54.494 238.481 54.144 240.161 54.144ZM261.382 54.018C262.922 54.018 264.252 54.34 265.372 54.984C266.492 55.6 267.346 56.454 267.934 57.546V54.312H277.216V77.58C277.216 79.792 276.81 81.808 275.998 83.628C275.186 85.448 273.87 86.904 272.05 87.996C270.258 89.088 267.948 89.634 265.12 89.634C261.312 89.634 258.288 88.738 256.048 86.946C253.836 85.182 252.576 82.774 252.268 79.722H261.424C261.676 80.954 262.684 81.57 264.448 81.57C265.54 81.57 266.394 81.29 267.01 80.73C267.626 80.17 267.934 79.12 267.934 77.58V74.766C267.346 75.858 266.492 76.726 265.372 77.37C264.252 77.986 262.922 78.294 261.382 78.294C259.534 78.294 257.868 77.818 256.384 76.866C254.9 75.886 253.724 74.486 252.856 72.666C252.016 70.818 251.596 68.648 251.596 66.156C251.596 63.664 252.016 61.508 252.856 59.688C253.724 57.84 254.9 56.44 256.384 55.488C257.868 54.508 259.534 54.018 261.382 54.018ZM267.934 66.156C267.934 64.896 267.612 63.916 266.968 63.216C266.324 62.516 265.498 62.166 264.49 62.166C263.482 62.166 262.656 62.516 262.012 63.216C261.368 63.916 261.046 64.896 261.046 66.156C261.046 67.416 261.368 68.396 262.012 69.096C262.656 69.796 263.482 70.146 264.49 70.146C265.498 70.146 266.324 69.796 266.968 69.096C267.612 68.396 267.934 67.416 267.934 66.156ZM291.945 78.294C289.705 78.294 287.717 77.93 285.981 77.202C284.273 76.474 282.915 75.466 281.907 74.178C280.899 72.89 280.325 71.434 280.185 69.81H289.131C289.243 70.51 289.537 71.028 290.013 71.364C290.517 71.7 291.147 71.868 291.903 71.868C292.379 71.868 292.757 71.77 293.037 71.574C293.317 71.35 293.457 71.084 293.457 70.776C293.457 70.244 293.163 69.866 292.575 69.642C291.987 69.418 290.993 69.166 289.593 68.886C287.885 68.55 286.471 68.186 285.351 67.794C284.259 67.402 283.293 66.73 282.453 65.778C281.641 64.826 281.235 63.51 281.235 61.83C281.235 60.374 281.613 59.058 282.369 57.882C283.153 56.678 284.301 55.74 285.813 55.068C287.325 54.368 289.159 54.018 291.315 54.018C294.507 54.018 296.999 54.802 298.791 56.37C300.611 57.938 301.703 59.982 302.067 62.502H293.793C293.653 61.858 293.359 61.368 292.911 61.032C292.463 60.668 291.861 60.486 291.105 60.486C290.629 60.486 290.265 60.584 290.013 60.78C289.761 60.948 289.635 61.214 289.635 61.578C289.635 62.054 289.929 62.418 290.517 62.67C291.105 62.894 292.043 63.132 293.331 63.384C295.039 63.72 296.481 64.098 297.657 64.518C298.833 64.938 299.855 65.666 300.723 66.702C301.591 67.71 302.025 69.11 302.025 70.902C302.025 72.302 301.619 73.562 300.807 74.682C299.995 75.802 298.819 76.684 297.279 77.328C295.767 77.972 293.989 78.294 291.945 78.294ZM310.345 78.336C308.721 78.336 307.419 77.902 306.439 77.034C305.459 76.166 304.969 75.074 304.969 73.758C304.969 72.414 305.459 71.308 306.439 70.44C307.419 69.544 308.721 69.096 310.345 69.096C311.941 69.096 313.229 69.544 314.209 70.44C315.189 71.308 315.679 72.414 315.679 73.758C315.679 75.074 315.189 76.166 314.209 77.034C313.229 77.902 311.941 78.336 310.345 78.336ZM310.345 61.704C308.721 61.704 307.419 61.27 306.439 60.402C305.459 59.534 304.969 58.442 304.969 57.126C304.969 55.782 305.459 54.676 306.439 53.808C307.419 52.912 308.721 52.464 310.345 52.464C311.941 52.464 313.229 52.912 314.209 53.808C315.189 54.676 315.679 55.782 315.679 57.126C315.679 58.442 315.189 59.534 314.209 60.402C313.229 61.27 311.941 61.704 310.345 61.704ZM347.022 48.264V67.458C347.022 71.014 346.084 73.716 344.208 75.564C342.36 77.384 339.756 78.294 336.396 78.294C332.784 78.294 329.914 77.3 327.786 75.312C325.658 73.324 324.594 70.426 324.594 66.618H333.792C333.792 67.822 333.988 68.676 334.38 69.18C334.772 69.656 335.304 69.894 335.976 69.894C336.536 69.894 336.97 69.712 337.278 69.348C337.586 68.984 337.74 68.354 337.74 67.458V48.264H347.022ZM349.787 66.156C349.787 63.664 350.207 61.508 351.047 59.688C351.915 57.84 353.091 56.44 354.575 55.488C356.059 54.508 357.725 54.018 359.573 54.018C361.113 54.018 362.443 54.34 363.563 54.984C364.683 55.6 365.537 56.454 366.125 57.546V54.312H375.407V78H366.125V74.766C365.537 75.858 364.683 76.726 363.563 77.37C362.443 77.986 361.113 78.294 359.573 78.294C357.725 78.294 356.059 77.818 354.575 76.866C353.091 75.886 351.915 74.486 351.047 72.666C350.207 70.818 349.787 68.648 349.787 66.156ZM366.125 66.156C366.125 64.896 365.803 63.916 365.159 63.216C364.515 62.516 363.689 62.166 362.681 62.166C361.673 62.166 360.847 62.516 360.203 63.216C359.559 63.916 359.237 64.896 359.237 66.156C359.237 67.416 359.559 68.396 360.203 69.096C360.847 69.796 361.673 70.146 362.681 70.146C363.689 70.146 364.515 69.796 365.159 69.096C365.803 68.396 366.125 67.416 366.125 66.156ZM391.606 69.138L395.386 54.312H405.298L397.402 78H385.768L377.872 54.312H387.784L391.606 69.138ZM406.512 66.156C406.512 63.664 406.932 61.508 407.772 59.688C408.64 57.84 409.816 56.44 411.3 55.488C412.784 54.508 414.45 54.018 416.298 54.018C417.838 54.018 419.168 54.34 420.288 54.984C421.408 55.6 422.262 56.454 422.85 57.546V54.312H432.132V78H422.85V74.766C422.262 75.858 421.408 76.726 420.288 77.37C419.168 77.986 417.838 78.294 416.298 78.294C414.45 78.294 412.784 77.818 411.3 76.866C409.816 75.886 408.64 74.486 407.772 72.666C406.932 70.818 406.512 68.648 406.512 66.156ZM422.85 66.156C422.85 64.896 422.528 63.916 421.884 63.216C421.24 62.516 420.414 62.166 419.406 62.166C418.398 62.166 417.572 62.516 416.928 63.216C416.284 63.916 415.962 64.896 415.962 66.156C415.962 67.416 416.284 68.396 416.928 69.096C417.572 69.796 418.398 70.146 419.406 70.146C420.414 70.146 421.24 69.796 421.884 69.096C422.528 68.396 422.85 67.416 422.85 66.156ZM62.734 124.294C59.178 124.294 56.238 123.468 53.914 121.816C51.618 120.136 50.372 117.686 50.176 114.466H60.088C60.228 116.174 60.984 117.028 62.356 117.028C62.86 117.028 63.28 116.916 63.616 116.692C63.98 116.44 64.162 116.062 64.162 115.558C64.162 114.858 63.784 114.298 63.028 113.878C62.272 113.43 61.096 112.926 59.5 112.366C57.596 111.694 56.014 111.036 54.754 110.392C53.522 109.748 52.458 108.81 51.562 107.578C50.666 106.346 50.232 104.764 50.26 102.832C50.26 100.9 50.75 99.262 51.73 97.918C52.738 96.546 54.096 95.51 55.804 94.81C57.54 94.11 59.486 93.76 61.642 93.76C65.282 93.76 68.166 94.6 70.294 96.28C72.45 97.96 73.584 100.326 73.696 103.378H63.658C63.63 102.538 63.42 101.936 63.028 101.572C62.636 101.208 62.16 101.026 61.6 101.026C61.208 101.026 60.886 101.166 60.634 101.446C60.382 101.698 60.256 102.062 60.256 102.538C60.256 103.21 60.62 103.77 61.348 104.218C62.104 104.638 63.294 105.156 64.918 105.772C66.794 106.472 68.334 107.144 69.538 107.788C70.77 108.432 71.834 109.328 72.73 110.476C73.626 111.624 74.074 113.066 74.074 114.802C74.074 116.622 73.626 118.26 72.73 119.716C71.834 121.144 70.532 122.264 68.824 123.076C67.116 123.888 65.086 124.294 62.734 124.294ZM102.424 100.312V124H93.1V120.388C92.372 121.508 91.392 122.418 90.16 123.118C88.956 123.818 87.514 124.168 85.834 124.168C83.118 124.168 80.99 123.258 79.45 121.438C77.938 119.618 77.182 117.154 77.182 114.046V100.312H86.464V112.87C86.464 113.99 86.758 114.886 87.346 115.558C87.962 116.202 88.774 116.524 89.782 116.524C90.818 116.524 91.63 116.202 92.218 115.558C92.806 114.886 93.1 113.99 93.1 112.87V100.312H102.424ZM115.959 103.546C116.547 102.454 117.387 101.6 118.479 100.984C119.599 100.34 120.929 100.018 122.469 100.018C124.317 100.018 125.983 100.508 127.467 101.488C128.951 102.44 130.113 103.84 130.953 105.688C131.821 107.508 132.255 109.664 132.255 112.156C132.255 114.648 131.821 116.818 130.953 118.666C130.113 120.486 128.951 121.886 127.467 122.866C125.983 123.818 124.317 124.294 122.469 124.294C120.929 124.294 119.599 123.986 118.479 123.37C117.387 122.726 116.547 121.858 115.959 120.766V124H106.635V92.92H115.959V103.546ZM122.805 112.156C122.805 110.896 122.483 109.916 121.839 109.216C121.195 108.516 120.369 108.166 119.361 108.166C118.353 108.166 117.527 108.516 116.883 109.216C116.239 109.916 115.917 110.896 115.917 112.156C115.917 113.416 116.239 114.396 116.883 115.096C117.527 115.796 118.353 116.146 119.361 116.146C120.369 116.146 121.195 115.796 121.839 115.096C122.483 114.396 122.805 113.416 122.805 112.156ZM145.724 124.294C143.484 124.294 141.496 123.93 139.76 123.202C138.052 122.474 136.694 121.466 135.686 120.178C134.678 118.89 134.104 117.434 133.964 115.81H142.91C143.022 116.51 143.316 117.028 143.792 117.364C144.296 117.7 144.926 117.868 145.682 117.868C146.158 117.868 146.536 117.77 146.816 117.574C147.096 117.35 147.236 117.084 147.236 116.776C147.236 116.244 146.942 115.866 146.354 115.642C145.766 115.418 144.772 115.166 143.372 114.886C141.664 114.55 140.25 114.186 139.13 113.794C138.038 113.402 137.072 112.73 136.232 111.778C135.42 110.826 135.014 109.51 135.014 107.83C135.014 106.374 135.392 105.058 136.148 103.882C136.932 102.678 138.08 101.74 139.592 101.068C141.104 100.368 142.938 100.018 145.094 100.018C148.286 100.018 150.778 100.802 152.57 102.37C154.39 103.938 155.482 105.982 155.846 108.502H147.572C147.432 107.858 147.138 107.368 146.69 107.032C146.242 106.668 145.64 106.486 144.884 106.486C144.408 106.486 144.044 106.584 143.792 106.78C143.54 106.948 143.414 107.214 143.414 107.578C143.414 108.054 143.708 108.418 144.296 108.67C144.884 108.894 145.822 109.132 147.11 109.384C148.818 109.72 150.26 110.098 151.436 110.518C152.612 110.938 153.634 111.666 154.502 112.702C155.37 113.71 155.804 115.11 155.804 116.902C155.804 118.302 155.398 119.562 154.586 120.682C153.774 121.802 152.598 122.684 151.058 123.328C149.546 123.972 147.768 124.294 145.724 124.294ZM182.436 111.946C182.436 112.59 182.394 113.206 182.31 113.794H167.316C167.456 115.838 168.31 116.86 169.878 116.86C170.886 116.86 171.614 116.398 172.062 115.474H181.932C181.596 117.154 180.882 118.666 179.79 120.01C178.726 121.326 177.368 122.376 175.716 123.16C174.092 123.916 172.3 124.294 170.34 124.294C167.988 124.294 165.888 123.804 164.04 122.824C162.22 121.844 160.792 120.444 159.756 118.624C158.748 116.776 158.244 114.62 158.244 112.156C158.244 109.692 158.748 107.55 159.756 105.73C160.792 103.882 162.22 102.468 164.04 101.488C165.888 100.508 167.988 100.018 170.34 100.018C172.692 100.018 174.778 100.508 176.598 101.488C178.446 102.44 179.874 103.812 180.882 105.604C181.918 107.396 182.436 109.51 182.436 111.946ZM172.986 109.72C172.986 108.936 172.734 108.348 172.23 107.956C171.726 107.536 171.096 107.326 170.34 107.326C168.688 107.326 167.722 108.124 167.442 109.72H172.986ZM200.127 116.062V124H196.599C190.103 124 186.855 120.766 186.855 114.298V108.082H183.915V100.312H186.855V94.6H196.179V100.312H200.043V108.082H196.179V114.466C196.179 115.026 196.305 115.432 196.557 115.684C196.837 115.936 197.285 116.062 197.901 116.062H200.127ZM209.975 109.09C209.975 106.15 210.563 103.532 211.739 101.236C212.943 98.94 214.651 97.162 216.863 95.902C219.075 94.614 221.679 93.97 224.675 93.97C227.251 93.97 229.547 94.46 231.563 95.44C233.607 96.392 235.259 97.75 236.519 99.514C237.807 101.278 238.661 103.336 239.081 105.688H229.253C228.805 104.708 228.161 103.952 227.321 103.42C226.509 102.86 225.571 102.58 224.507 102.58C222.939 102.58 221.693 103.168 220.769 104.344C219.873 105.52 219.425 107.102 219.425 109.09C219.425 111.078 219.873 112.66 220.769 113.836C221.693 115.012 222.939 115.6 224.507 115.6C225.571 115.6 226.509 115.334 227.321 114.802C228.161 114.242 228.805 113.472 229.253 112.492H239.081C238.661 114.844 237.807 116.902 236.519 118.666C235.259 120.43 233.607 121.802 231.563 122.782C229.547 123.734 227.251 124.21 224.675 124.21C221.679 124.21 219.075 123.58 216.863 122.32C214.651 121.032 212.943 119.24 211.739 116.944C210.563 114.648 209.975 112.03 209.975 109.09ZM253.694 124.294C251.314 124.294 249.172 123.804 247.268 122.824C245.364 121.844 243.866 120.444 242.774 118.624C241.71 116.776 241.178 114.62 241.178 112.156C241.178 109.692 241.71 107.55 242.774 105.73C243.866 103.882 245.364 102.468 247.268 101.488C249.172 100.508 251.314 100.018 253.694 100.018C256.074 100.018 258.216 100.508 260.12 101.488C262.024 102.468 263.508 103.882 264.572 105.73C265.664 107.55 266.21 109.692 266.21 112.156C266.21 114.62 265.664 116.776 264.572 118.624C263.508 120.444 262.024 121.844 260.12 122.824C258.216 123.804 256.074 124.294 253.694 124.294ZM253.694 116.23C254.562 116.23 255.29 115.894 255.878 115.222C256.466 114.522 256.76 113.5 256.76 112.156C256.76 110.812 256.466 109.804 255.878 109.132C255.29 108.432 254.562 108.082 253.694 108.082C252.826 108.082 252.098 108.432 251.51 109.132C250.922 109.804 250.628 110.812 250.628 112.156C250.628 113.5 250.908 114.522 251.468 115.222C252.056 115.894 252.798 116.23 253.694 116.23ZM300.765 100.144C303.789 100.144 306.127 101.054 307.779 102.874C309.459 104.694 310.299 107.158 310.299 110.266V124H301.017V111.442C301.017 110.434 300.709 109.65 300.093 109.09C299.505 108.502 298.707 108.208 297.699 108.208C296.663 108.208 295.851 108.502 295.263 109.09C294.675 109.65 294.381 110.434 294.381 111.442V124H285.099V111.442C285.099 110.434 284.791 109.65 284.175 109.09C283.587 108.502 282.789 108.208 281.781 108.208C280.745 108.208 279.933 108.502 279.345 109.09C278.757 109.65 278.463 110.434 278.463 111.442V124H269.139V100.312H278.463V103.504C279.135 102.496 280.045 101.684 281.193 101.068C282.369 100.452 283.741 100.144 285.309 100.144C287.017 100.144 288.529 100.522 289.845 101.278C291.161 102.006 292.211 103.042 292.995 104.386C293.863 103.154 294.969 102.146 296.313 101.362C297.657 100.55 299.141 100.144 300.765 100.144ZM323.662 103.546C324.25 102.454 325.09 101.6 326.182 100.984C327.302 100.34 328.632 100.018 330.172 100.018C332.02 100.018 333.686 100.508 335.17 101.488C336.654 102.44 337.816 103.84 338.656 105.688C339.524 107.508 339.958 109.664 339.958 112.156C339.958 114.648 339.524 116.818 338.656 118.666C337.816 120.486 336.654 121.886 335.17 122.866C333.686 123.818 332.02 124.294 330.172 124.294C328.632 124.294 327.302 123.986 326.182 123.37C325.09 122.726 324.25 121.858 323.662 120.766V135.34H314.338V100.312H323.662V103.546ZM330.508 112.156C330.508 110.896 330.186 109.916 329.542 109.216C328.898 108.516 328.072 108.166 327.064 108.166C326.056 108.166 325.23 108.516 324.586 109.216C323.942 109.916 323.62 110.896 323.62 112.156C323.62 113.416 323.942 114.396 324.586 115.096C325.23 115.796 326.056 116.146 327.064 116.146C328.072 116.146 328.898 115.796 329.542 115.096C330.186 114.396 330.508 113.416 330.508 112.156ZM347.589 98.422C345.965 98.422 344.663 97.988 343.683 97.12C342.703 96.252 342.213 95.16 342.213 93.844C342.213 92.5 342.703 91.394 343.683 90.526C344.663 89.63 345.965 89.182 347.589 89.182C349.185 89.182 350.473 89.63 351.453 90.526C352.433 91.394 352.923 92.5 352.923 93.844C352.923 95.16 352.433 96.252 351.453 97.12C350.473 97.988 349.185 98.422 347.589 98.422ZM352.209 100.312V124H342.885V100.312H352.209ZM365.744 92.92V124H356.42V92.92H365.744ZM392.887 111.946C392.887 112.59 392.845 113.206 392.761 113.794H377.767C377.907 115.838 378.761 116.86 380.329 116.86C381.337 116.86 382.065 116.398 382.513 115.474H392.383C392.047 117.154 391.333 118.666 390.241 120.01C389.177 121.326 387.819 122.376 386.167 123.16C384.543 123.916 382.751 124.294 380.791 124.294C378.439 124.294 376.339 123.804 374.491 122.824C372.671 121.844 371.243 120.444 370.207 118.624C369.199 116.776 368.695 114.62 368.695 112.156C368.695 109.692 369.199 107.55 370.207 105.73C371.243 103.882 372.671 102.468 374.491 101.488C376.339 100.508 378.439 100.018 380.791 100.018C383.143 100.018 385.229 100.508 387.049 101.488C388.897 102.44 390.325 103.812 391.333 105.604C392.369 107.396 392.887 109.51 392.887 111.946ZM383.437 109.72C383.437 108.936 383.185 108.348 382.681 107.956C382.177 107.536 381.547 107.326 380.791 107.326C379.139 107.326 378.173 108.124 377.893 109.72H383.437ZM405.16 104.68C406.112 103.308 407.274 102.216 408.646 101.404C410.018 100.564 411.446 100.144 412.93 100.144V110.098H410.284C408.52 110.098 407.218 110.406 406.378 111.022C405.566 111.638 405.16 112.73 405.16 114.298V124H395.836V100.312H405.16V104.68Z" fill="white"/>
<g clip-path="url(#clip0_505_230)">
<path d="M156.587 250.903C148.441 250.903 141.04 252.192 135.56 254.293V272.237C141.04 274.338 148.441 275.627 156.587 275.627C165.911 275.627 174.258 273.938 179.865 271.277V255.253C174.258 252.592 165.911 250.903 156.587 250.903Z" fill="#A52B00"/>
<path d="M188.262 265.483L187.307 262.879C187.312 262.781 187.316 262.682 187.316 262.582C187.316 259.631 184.984 256.91 181.06 254.732V270.432C182.891 269.416 184.376 268.282 185.438 267.061C185.126 268.715 184.057 272.062 183.204 274.416C181.803 277.782 181.296 280.713 181.361 280.858C181.402 280.949 181.88 279.979 182.585 278.406C184.225 275.331 187.333 269.458 187.954 267.962C188.658 266.267 188.262 265.483 188.262 265.483Z" fill="#A52B00"/>
<path d="M126.466 262.754C126.466 263.323 126.553 263.883 126.721 264.432L126.149 265.772C126.149 265.772 125.691 266.554 126.498 268.205C127.209 269.66 130.773 275.356 132.654 278.339C133.463 279.869 134.01 280.811 134.058 280.72C134.134 280.575 133.556 277.704 131.951 274.428C131.202 272.669 130.308 270.338 129.771 268.616C131.27 269.864 133.231 270.997 135.56 271.971V253.538C129.947 255.886 126.466 259.148 126.466 262.754Z" fill="#A52B00"/>
<path d="M155.837 226.251L153.924 230.187C153.618 230.245 153.313 230.303 153.007 230.361L150.597 227.309C150.37 226.983 150.002 226.868 149.65 226.996C149.297 227.125 149.011 227.487 148.882 227.881L147.611 232.187C147.309 232.306 147.008 232.425 146.761 232.595L143.876 230.188C143.606 229.993 143.191 229.948 142.894 230.128C142.549 230.379 142.314 230.731 142.239 231.176L141.599 235.67C141.352 235.84 141.109 236.071 140.811 236.251L137.621 234.702C137.3 234.517 136.893 234.594 136.603 234.896C136.309 235.137 136.133 235.601 136.109 236.037L136.189 240.517C135.997 240.738 135.758 241.03 135.515 241.261L132.07 240.561C131.702 240.446 131.353 240.636 131.067 240.998C130.828 241.29 130.706 241.806 130.785 242.222L131.573 246.506C131.385 246.788 131.197 247.07 131.013 247.413L127.414 247.543C127.054 247.55 126.71 247.8 126.529 248.204C126.349 248.607 126.278 249.113 126.458 249.51L127.893 253.425C127.709 253.768 127.576 254.101 127.442 254.434L123.953 255.467C123.546 255.545 123.26 255.907 123.13 256.301C123.005 256.756 123.036 257.243 123.212 257.579L125.285 261.003C125.238 261.073 125.242 261.134 125.246 261.195L119.267 269.229C119.267 269.229 118.397 270.133 119.653 272.049C120.788 273.681 126.662 280.139 129.765 283.552C131.06 285.276 131.952 286.338 132.05 286.258C132.191 286.046 131.465 282.736 128.91 279.034C126.942 275.652 124.392 270.41 124.968 269.746C124.968 269.746 125.669 268.627 127.107 267.738C127.052 267.687 127.052 267.687 127.107 267.738C127.107 267.738 156.38 281.571 183.802 263.179C186.935 262.214 188.806 264.075 188.806 264.075C189.452 264.507 187.706 270.258 186.303 274.096C184.366 278.467 184.063 281.789 184.223 281.881C184.329 281.923 185.019 280.622 186.018 278.522C188.48 274.298 193.065 266.221 193.919 264.273C194.911 262.052 193.948 261.497 193.948 261.497L187.702 256.464C187.635 256.231 187.569 255.997 187.549 255.693L189.627 251.911C189.862 251.558 189.881 251.062 189.752 250.655C189.623 250.249 189.349 249.993 188.985 249.939L185.454 249.502C185.333 249.217 185.207 248.871 185.086 248.587L186.568 244.364C186.749 243.96 186.718 243.473 186.487 243.086C186.311 242.75 185.99 242.565 185.633 242.632L182.054 243.067C181.882 242.791 181.659 242.526 181.487 242.251L182.339 237.84C182.414 237.394 182.332 236.917 182.109 236.652C181.831 236.335 181.463 236.22 181.11 236.349L177.64 237.686C177.421 237.481 177.202 237.277 176.979 237.011L177.107 232.553C177.13 232.118 176.95 231.721 176.676 231.465C176.352 231.219 175.991 231.226 175.647 231.476L172.431 233.565C172.165 233.431 171.895 233.236 171.628 233.102L171.094 228.77C171.063 228.283 170.785 227.966 170.468 227.842C170.147 227.656 169.74 227.734 169.45 228.035L166.539 230.867C166.277 230.794 166.015 230.721 165.702 230.657L164.513 226.572C164.384 226.166 164.106 225.849 163.742 225.795C163.378 225.741 163.03 225.931 162.744 226.293L160.287 229.777C160.028 229.765 159.715 229.701 159.406 229.699L157.579 226.105C157.399 225.708 157.078 225.523 156.718 225.529C156.358 225.536 156.017 225.847 155.837 226.251Z" fill="url(#paint0_linear_505_230)"/>
<path d="M146.709 276.86C146.597 276.734 146.538 276.659 146.538 276.659L156.116 275.627C148.304 262.061 142.045 272.868 141.378 274.076V276.86H146.709Z" fill="black"/>
<path d="M166.651 276.713C166.763 276.588 166.821 276.513 166.821 276.513L157.617 275.627C165.433 261.504 171.315 272.721 171.982 273.93V276.713H166.651Z" fill="black"/>
<path d="M181.361 263.245C181.361 263.245 180.32 268.728 173.802 274.494L171.989 275.061C171.989 275.061 166.082 260.882 157.715 276.857C157.715 276.857 160.319 274.872 167.303 277.306C167.303 277.306 164.089 283.781 157.626 283.569C157.626 283.569 163.82 293.376 173.264 279.22C173.264 279.22 183.246 274.14 184.054 263.245L181.361 263.245Z" fill="url(#paint1_linear_505_230)"/>
<path d="M161.966 256.217C161.966 256.217 164.888 252.006 167.81 256.217C167.81 256.217 170.106 261.832 167.81 264.639C167.81 264.639 164.053 268.57 161.966 264.639C161.966 264.639 159.461 261.551 161.966 256.217Z" fill="black"/>
<path d="M165.349 257.779C165.349 259.419 164.614 260.748 163.709 260.748C162.803 260.748 162.069 259.419 162.069 257.779C162.069 256.139 162.803 254.81 163.709 254.81C164.614 254.81 165.349 256.139 165.349 257.779Z" fill="white"/>
<path d="M148.924 255.067C148.924 255.067 153.937 252.146 155.305 258.666C155.305 258.666 156.738 266.265 151.188 266.694C151.188 266.694 144.112 264.9 148.924 255.067Z" fill="black"/>
<path d="M151.442 257.887C151.442 259.578 150.684 260.949 149.75 260.949C148.816 260.949 148.059 259.578 148.059 257.887C148.059 256.195 148.816 254.824 149.75 254.824C150.684 254.824 151.442 256.195 151.442 257.887Z" fill="white"/>
<path d="M141.401 280.106C150.555 295.558 154.891 283.15 154.891 283.15C149.752 282.389 146.106 277.886 146.106 277.886C152.273 276.851 155.839 276.766 155.839 276.766C147.584 262.434 140.887 275.413 140.887 275.413C139.216 274.61 137.498 271.545 136.229 268.712L131.106 266.725C137 279.916 141.401 280.106 141.401 280.106Z" fill="url(#paint2_linear_505_230)"/>
</g>
<path fill-rule="evenodd" clip-rule="evenodd" d="M244.358 205.302L240.105 154H286.838L282.581 205.294L263.443 211L244.358 205.302Z" fill="#E44D26"/>
<path fill-rule="evenodd" clip-rule="evenodd" d="M263.472 206.639L278.936 202.028L282.574 158.195H263.472V206.639Z" fill="#F16529"/>
<path d="M255.73 177.222H263.472V183.514H250.38L248.802 164.487H263.472V170.779H255.195L255.73 177.222Z" fill="#EBEBEB"/>
<path d="M263.446 193.57L263.472 193.563V200.109L263.445 200.117L251.461 196.539L250.641 186.66H256.514L256.93 191.678L263.446 193.57Z" fill="#EBEBEB"/>
<path d="M263.452 164.487H278.107L277.583 170.779H263.452V164.487Z" fill="white"/>
<path d="M263.452 183.514V177.222H277.051L276.908 178.911L275.445 196.539L263.452 200.114V193.568L269.977 191.674L270.656 183.514H263.452Z" fill="white"/>
<path fill-rule="evenodd" clip-rule="evenodd" d="M307.497 206.202L303.164 154H350.78L346.443 206.193L326.943 212L307.497 206.202Z" fill="#0071BC"/>
<path fill-rule="evenodd" clip-rule="evenodd" d="M327.012 207.559L342.749 202.909L346.436 158.347H327.012V207.559Z" fill="#29ABE2"/>
<path fill-rule="evenodd" clip-rule="evenodd" d="M313.083 177.526L313.605 183.919L327.012 177.526V171.123L313.083 177.526Z" fill="#B3B3B3"/>
<path fill-rule="evenodd" clip-rule="evenodd" d="M341.861 164.288L327.012 171.123V177.526L341.349 170.68L341.861 164.288Z" fill="#E6E6E6"/>
<path fill-rule="evenodd" clip-rule="evenodd" d="M327.012 194.253L326.966 194.26L320.317 192.343L319.883 187.243H313.899L314.734 197.289L326.965 200.927L327.012 200.915V194.253Z" fill="#E6E6E6"/>
<path fill-rule="evenodd" clip-rule="evenodd" d="M327.012 177.526V183.919H334.292L333.63 192.277L327.012 194.259V200.92L339.203 197.282L340.808 177.526H327.012Z" fill="white"/>
<path fill-rule="evenodd" clip-rule="evenodd" d="M327.012 177.526H313.083L313.605 183.919H327.012V177.526Z" fill="#E6E6E6"/>
<path fill-rule="evenodd" clip-rule="evenodd" d="M327.012 170.68V164.288H326.952H312.025L312.553 170.68H327.012Z" fill="#E6E6E6"/>
<path fill-rule="evenodd" clip-rule="evenodd" d="M327.012 164.288V170.6V170.68H341.349L341.861 164.288H327.012Z" fill="white"/>
<g clip-path="url(#clip1_505_230)">
<path d="M441.493 182.604L438.386 180.707C438.36 180.409 438.331 180.111 438.298 179.815L440.968 177.358C441.239 177.109 441.361 176.739 441.287 176.381C441.216 176.022 440.961 175.726 440.614 175.599L437.201 174.34C437.115 174.048 437.025 173.759 436.934 173.471L439.062 170.554C439.279 170.257 439.324 169.872 439.183 169.533C439.041 169.197 438.732 168.955 438.367 168.896L434.768 168.318C434.628 168.049 434.482 167.784 434.335 167.521L435.848 164.247C436.002 163.913 435.971 163.526 435.764 163.223C435.558 162.919 435.21 162.741 434.838 162.755L431.186 162.88C430.997 162.647 430.804 162.417 430.609 162.19L431.448 158.68C431.533 158.324 431.426 157.951 431.163 157.692C430.902 157.434 430.523 157.327 430.162 157.411L426.605 158.238C426.374 158.046 426.14 157.855 425.903 157.669L426.031 154.066C426.046 153.701 425.865 153.355 425.557 153.152C425.248 152.949 424.857 152.918 424.52 153.069L421.201 154.562C420.933 154.417 420.665 154.273 420.393 154.134L419.806 150.584C419.747 150.224 419.502 149.918 419.16 149.779C418.819 149.638 418.427 149.684 418.126 149.897L415.168 151.997C414.876 151.906 414.584 151.818 414.288 151.734L413.012 148.367C412.882 148.024 412.583 147.772 412.219 147.701C411.855 147.631 411.481 147.75 411.229 148.016L408.739 150.652C408.438 150.619 408.136 150.589 407.834 150.565L405.911 147.499C405.716 147.189 405.372 147 405.001 147C404.631 147 404.287 147.189 404.093 147.499L402.17 150.565C401.867 150.589 401.565 150.619 401.264 150.652L398.773 148.016C398.521 147.75 398.146 147.631 397.784 147.701C397.419 147.773 397.12 148.024 396.99 148.367L395.714 151.734C395.419 151.818 395.126 151.907 394.834 151.997L391.876 149.897C391.575 149.683 391.184 149.638 390.841 149.779C390.5 149.918 390.255 150.224 390.195 150.584L389.608 154.134C389.337 154.273 389.068 154.416 388.8 154.562L385.482 153.069C385.144 152.917 384.751 152.949 384.444 153.152C384.136 153.355 383.956 153.701 383.97 154.066L384.097 157.669C383.861 157.855 383.627 158.046 383.396 158.238L379.839 157.411C379.478 157.328 379.099 157.434 378.837 157.692C378.574 157.951 378.467 158.324 378.552 158.68L379.39 162.19C379.196 162.417 379.003 162.647 378.814 162.88L375.162 162.755C374.794 162.744 374.442 162.919 374.236 163.223C374.029 163.526 373.998 163.913 374.152 164.247L375.665 167.521C375.518 167.784 375.372 168.049 375.231 168.318L371.633 168.896C371.267 168.955 370.959 169.196 370.817 169.533C370.675 169.872 370.721 170.257 370.937 170.554L373.066 173.471C372.973 173.759 372.883 174.048 372.798 174.34L369.385 175.599C369.039 175.726 368.783 176.022 368.711 176.381C368.639 176.74 368.76 177.109 369.031 177.358L371.701 179.815C371.668 180.111 371.638 180.41 371.613 180.707L368.506 182.604C368.192 182.796 368 183.135 368 183.501C368 183.868 368.192 184.207 368.506 184.398L371.613 186.295C371.638 186.593 371.668 186.891 371.701 187.187L369.031 189.645C368.76 189.894 368.639 190.263 368.711 190.621C368.783 190.98 369.039 191.275 369.385 191.404L372.798 192.662C372.883 192.954 372.973 193.243 373.066 193.532L370.937 196.449C370.721 196.746 370.675 197.132 370.817 197.469C370.959 197.807 371.268 198.048 371.633 198.106L375.231 198.684C375.372 198.953 375.516 199.218 375.665 199.482L374.152 202.755C373.998 203.088 374.029 203.475 374.236 203.779C374.442 204.084 374.794 204.262 375.162 204.247L378.813 204.121C379.003 204.355 379.195 204.585 379.39 204.813L378.552 208.323C378.467 208.679 378.574 209.051 378.837 209.309C379.098 209.57 379.478 209.673 379.839 209.59L383.396 208.763C383.627 208.957 383.861 209.145 384.097 209.331L383.97 212.935C383.956 213.3 384.136 213.645 384.444 213.849C384.751 214.052 385.144 214.083 385.482 213.931L388.8 212.439C389.068 212.585 389.336 212.728 389.608 212.866L390.195 216.415C390.255 216.776 390.499 217.082 390.841 217.221C391.183 217.361 391.575 217.315 391.876 217.103L394.832 215.001C395.124 215.093 395.418 215.182 395.713 215.266L396.99 218.632C397.119 218.973 397.419 219.227 397.783 219.296C398.146 219.369 398.52 219.249 398.773 218.981L401.263 216.347C401.564 216.381 401.867 216.409 402.169 216.436L404.092 219.501C404.286 219.81 404.63 220 405.001 220C405.371 220 405.715 219.81 405.91 219.501L407.833 216.436C408.136 216.409 408.437 216.381 408.738 216.347L411.228 218.981C411.48 219.249 411.855 219.369 412.218 219.296C412.582 219.226 412.882 218.973 413.011 218.632L414.287 215.266C414.583 215.182 414.876 215.093 415.168 215.001L418.126 217.103C418.426 217.315 418.818 217.361 419.159 217.221C419.501 217.082 419.746 216.776 419.806 216.415L420.392 212.866C420.664 212.728 420.932 212.583 421.2 212.439L424.519 213.931C424.856 214.083 425.249 214.052 425.556 213.849C425.865 213.645 426.044 213.3 426.031 212.935L425.903 209.331C426.14 209.145 426.374 208.957 426.604 208.763L430.161 209.59C430.522 209.673 430.901 209.57 431.162 209.309C431.425 209.051 431.532 208.679 431.447 208.323L430.609 204.813C430.804 204.585 430.997 204.355 431.185 204.121L434.837 204.247C435.206 204.262 435.558 204.084 435.763 203.779C435.97 203.475 436.002 203.088 435.847 202.755L434.335 199.482C434.482 199.218 434.627 198.953 434.767 198.684L438.366 198.106C438.732 198.048 439.04 197.807 439.182 197.469C439.323 197.132 439.279 196.746 439.062 196.449L436.933 193.532C437.025 193.243 437.115 192.954 437.2 192.662L440.613 191.404C440.96 191.275 441.216 190.98 441.287 190.621C441.36 190.263 441.239 189.894 440.967 189.645L438.297 187.187C438.33 186.891 438.36 186.593 438.386 186.295L441.492 184.398C441.807 184.207 441.999 183.867 441.999 183.501C441.999 183.136 441.808 182.796 441.493 182.604ZM420.701 208.027C419.514 207.775 418.76 206.621 419.014 205.448C419.268 204.275 420.437 203.529 421.623 203.781C422.809 204.032 423.565 205.187 423.31 206.359C423.056 207.531 421.886 208.278 420.701 208.027ZM419.645 200.985C418.563 200.756 417.498 201.435 417.266 202.505L416.163 207.582C412.759 209.106 408.98 209.953 404.999 209.953C400.928 209.953 397.066 209.065 393.602 207.476L392.499 202.398C392.267 201.33 391.203 200.649 390.121 200.879L385.577 201.841C384.734 200.985 383.949 200.072 383.228 199.109H405.337C405.588 199.109 405.754 199.064 405.754 198.84V191.125C405.754 190.9 405.588 190.855 405.337 190.855H398.871V185.965H405.865C406.503 185.965 409.278 186.145 410.165 189.644C410.443 190.72 411.053 194.221 411.471 195.341C411.886 196.598 413.579 199.109 415.382 199.109H426.4C426.525 199.109 426.659 199.095 426.799 199.07C426.035 200.095 425.196 201.064 424.294 201.97L419.645 200.985ZM389.065 207.921C387.879 208.174 386.711 207.428 386.456 206.255C386.202 205.081 386.956 203.928 388.143 203.675C389.329 203.425 390.498 204.171 390.752 205.344C391.006 206.515 390.251 207.67 389.065 207.921ZM380.678 174.37C381.17 175.466 380.67 176.75 379.56 177.235C378.451 177.721 377.153 177.226 376.661 176.13C376.169 175.034 376.669 173.752 377.779 173.266C378.889 172.78 380.186 173.274 380.678 174.37ZM378.1 180.398L382.834 178.323C383.845 177.881 384.302 176.712 383.853 175.712L382.878 173.538H386.712V190.586H378.976C378.305 188.259 377.946 185.804 377.946 183.266C377.946 182.297 377.999 181.339 378.1 180.398ZM398.872 178.743V173.717H408.003C408.474 173.717 411.333 174.255 411.333 176.364C411.333 178.114 409.14 178.742 407.337 178.742H398.872V178.743ZM432.054 183.266C432.054 183.932 432.029 184.592 431.98 185.247H429.204C428.926 185.247 428.814 185.427 428.814 185.696V186.953C428.814 189.913 427.122 190.557 425.64 190.721C424.228 190.878 422.663 190.138 422.47 189.285C421.637 184.664 420.249 183.677 418.057 181.972C420.777 180.268 423.607 177.754 423.607 174.39C423.607 170.757 421.082 168.468 419.362 167.346C416.947 165.776 414.274 165.462 413.553 165.462H384.846C388.739 161.176 394.014 158.14 399.982 157.035L403.365 160.537C404.13 161.327 405.397 161.356 406.198 160.601L409.984 157.029C417.917 158.486 424.634 163.357 428.505 170.041L425.913 175.816C425.465 176.816 425.922 177.985 426.932 178.427L431.922 180.614C432.009 181.488 432.054 182.371 432.054 183.266ZM403.367 154.056C404.243 153.228 405.634 153.26 406.473 154.127C407.311 154.995 407.279 156.368 406.401 157.196C405.524 158.025 404.133 157.993 403.294 157.125C402.457 156.258 402.489 154.885 403.367 154.056ZM429.088 174.476C429.579 173.38 430.877 172.885 431.987 173.372C433.096 173.857 433.596 175.14 433.104 176.236C432.613 177.332 431.315 177.827 430.205 177.341C429.097 176.855 428.596 175.573 429.088 174.476Z" fill="#EEECEC"/>
</g>
<rect width="581" height="384" fill="#001641"/>
<path d="M50.26 63.09C50.26 60.15 50.848 57.532 52.024 55.236C53.228 52.94 54.936 51.162 57.148 49.902C59.36 48.614 61.964 47.97 64.96 47.97C67.536 47.97 69.832 48.46 71.848 49.44C73.892 50.392 75.544 51.75 76.804 53.514C78.092 55.278 78.946 57.336 79.366 59.688H69.538C69.09 58.708 68.446 57.952 67.606 57.42C66.794 56.86 65.856 56.58 64.792 56.58C63.224 56.58 61.978 57.168 61.054 58.344C60.158 59.52 59.71 61.102 59.71 63.09C59.71 65.078 60.158 66.66 61.054 67.836C61.978 69.012 63.224 69.6 64.792 69.6C65.856 69.6 66.794 69.334 67.606 68.802C68.446 68.242 69.09 67.472 69.538 66.492H79.366C78.946 68.844 78.092 70.902 76.804 72.666C75.544 74.43 73.892 75.802 71.848 76.782C69.832 77.734 67.536 78.21 64.96 78.21C61.964 78.21 59.36 77.58 57.148 76.32C54.936 75.032 53.228 73.24 52.024 70.944C50.848 68.648 50.26 66.03 50.26 63.09ZM93.979 78.294C91.599 78.294 89.457 77.804 87.553 76.824C85.649 75.844 84.151 74.444 83.059 72.624C81.995 70.776 81.463 68.62 81.463 66.156C81.463 63.692 81.995 61.55 83.059 59.73C84.151 57.882 85.649 56.468 87.553 55.488C89.457 54.508 91.599 54.018 93.979 54.018C96.359 54.018 98.501 54.508 100.405 55.488C102.309 56.468 103.793 57.882 104.857 59.73C105.949 61.55 106.495 63.692 106.495 66.156C106.495 68.62 105.949 70.776 104.857 72.624C103.793 74.444 102.309 75.844 100.405 76.824C98.501 77.804 96.359 78.294 93.979 78.294ZM93.979 70.23C94.847 70.23 95.575 69.894 96.163 69.222C96.751 68.522 97.045 67.5 97.045 66.156C97.045 64.812 96.751 63.804 96.163 63.132C95.575 62.432 94.847 62.082 93.979 62.082C93.111 62.082 92.383 62.432 91.795 63.132C91.207 63.804 90.913 64.812 90.913 66.156C90.913 67.5 91.193 68.522 91.753 69.222C92.341 69.894 93.083 70.23 93.979 70.23ZM108.164 66.156C108.164 63.664 108.584 61.508 109.424 59.688C110.292 57.84 111.468 56.44 112.952 55.488C114.436 54.508 116.102 54.018 117.95 54.018C119.49 54.018 120.806 54.34 121.898 54.984C123.018 55.6 123.872 56.454 124.46 57.546V46.92H133.784V78H124.46V74.766C123.872 75.858 123.018 76.726 121.898 77.37C120.806 77.986 119.49 78.294 117.95 78.294C116.102 78.294 114.436 77.818 112.952 76.866C111.468 75.886 110.292 74.486 109.424 72.666C108.584 70.818 108.164 68.648 108.164 66.156ZM124.502 66.156C124.502 64.896 124.18 63.916 123.536 63.216C122.892 62.516 122.066 62.166 121.058 62.166C120.05 62.166 119.224 62.516 118.58 63.216C117.936 63.916 117.614 64.896 117.614 66.156C117.614 67.416 117.936 68.396 118.58 69.096C119.224 69.796 120.05 70.146 121.058 70.146C122.066 70.146 122.892 69.796 123.536 69.096C124.18 68.396 124.502 67.416 124.502 66.156ZM160.903 65.946C160.903 66.59 160.861 67.206 160.777 67.794H145.783C145.923 69.838 146.777 70.86 148.345 70.86C149.353 70.86 150.081 70.398 150.529 69.474H160.399C160.063 71.154 159.349 72.666 158.257 74.01C157.193 75.326 155.835 76.376 154.183 77.16C152.559 77.916 150.767 78.294 148.807 78.294C146.455 78.294 144.355 77.804 142.507 76.824C140.687 75.844 139.259 74.444 138.223 72.624C137.215 70.776 136.711 68.62 136.711 66.156C136.711 63.692 137.215 61.55 138.223 59.73C139.259 57.882 140.687 56.468 142.507 55.488C144.355 54.508 146.455 54.018 148.807 54.018C151.159 54.018 153.245 54.508 155.065 55.488C156.913 56.44 158.341 57.812 159.349 59.604C160.385 61.396 160.903 63.51 160.903 65.946ZM151.453 63.72C151.453 62.936 151.201 62.348 150.697 61.956C150.193 61.536 149.563 61.326 148.807 61.326C147.155 61.326 146.189 62.124 145.909 63.72H151.453ZM206.692 48.264L199.888 78H188.296L184.852 61.116L181.408 78H169.816L163.012 48.264H173.05L175.738 66.996L179.77 48.264H189.934L193.966 66.996L196.654 48.264H206.692ZM214.74 52.422C213.116 52.422 211.814 51.988 210.834 51.12C209.854 50.252 209.364 49.16 209.364 47.844C209.364 46.5 209.854 45.394 210.834 44.526C211.814 43.63 213.116 43.182 214.74 43.182C216.336 43.182 217.624 43.63 218.604 44.526C219.584 45.394 220.074 46.5 220.074 47.844C220.074 49.16 219.584 50.252 218.604 51.12C217.624 51.988 216.336 52.422 214.74 52.422ZM219.36 54.312V78H210.036V54.312H219.36ZM240.161 54.144C242.877 54.144 244.991 55.054 246.503 56.874C248.043 58.694 248.813 61.158 248.813 64.266V78H239.531V65.442C239.531 64.322 239.223 63.44 238.607 62.796C238.019 62.124 237.221 61.788 236.213 61.788C235.177 61.788 234.365 62.124 233.777 62.796C233.189 63.44 232.895 64.322 232.895 65.442V78H223.571V54.312H232.895V57.924C233.623 56.804 234.589 55.894 235.793 55.194C237.025 54.494 238.481 54.144 240.161 54.144ZM261.382 54.018C262.922 54.018 264.252 54.34 265.372 54.984C266.492 55.6 267.346 56.454 267.934 57.546V54.312H277.216V77.58C277.216 79.792 276.81 81.808 275.998 83.628C275.186 85.448 273.87 86.904 272.05 87.996C270.258 89.088 267.948 89.634 265.12 89.634C261.312 89.634 258.288 88.738 256.048 86.946C253.836 85.182 252.576 82.774 252.268 79.722H261.424C261.676 80.954 262.684 81.57 264.448 81.57C265.54 81.57 266.394 81.29 267.01 80.73C267.626 80.17 267.934 79.12 267.934 77.58V74.766C267.346 75.858 266.492 76.726 265.372 77.37C264.252 77.986 262.922 78.294 261.382 78.294C259.534 78.294 257.868 77.818 256.384 76.866C254.9 75.886 253.724 74.486 252.856 72.666C252.016 70.818 251.596 68.648 251.596 66.156C251.596 63.664 252.016 61.508 252.856 59.688C253.724 57.84 254.9 56.44 256.384 55.488C257.868 54.508 259.534 54.018 261.382 54.018ZM267.934 66.156C267.934 64.896 267.612 63.916 266.968 63.216C266.324 62.516 265.498 62.166 264.49 62.166C263.482 62.166 262.656 62.516 262.012 63.216C261.368 63.916 261.046 64.896 261.046 66.156C261.046 67.416 261.368 68.396 262.012 69.096C262.656 69.796 263.482 70.146 264.49 70.146C265.498 70.146 266.324 69.796 266.968 69.096C267.612 68.396 267.934 67.416 267.934 66.156ZM291.945 78.294C289.705 78.294 287.717 77.93 285.981 77.202C284.273 76.474 282.915 75.466 281.907 74.178C280.899 72.89 280.325 71.434 280.185 69.81H289.131C289.243 70.51 289.537 71.028 290.013 71.364C290.517 71.7 291.147 71.868 291.903 71.868C292.379 71.868 292.757 71.77 293.037 71.574C293.317 71.35 293.457 71.084 293.457 70.776C293.457 70.244 293.163 69.866 292.575 69.642C291.987 69.418 290.993 69.166 289.593 68.886C287.885 68.55 286.471 68.186 285.351 67.794C284.259 67.402 283.293 66.73 282.453 65.778C281.641 64.826 281.235 63.51 281.235 61.83C281.235 60.374 281.613 59.058 282.369 57.882C283.153 56.678 284.301 55.74 285.813 55.068C287.325 54.368 289.159 54.018 291.315 54.018C294.507 54.018 296.999 54.802 298.791 56.37C300.611 57.938 301.703 59.982 302.067 62.502H293.793C293.653 61.858 293.359 61.368 292.911 61.032C292.463 60.668 291.861 60.486 291.105 60.486C290.629 60.486 290.265 60.584 290.013 60.78C289.761 60.948 289.635 61.214 289.635 61.578C289.635 62.054 289.929 62.418 290.517 62.67C291.105 62.894 292.043 63.132 293.331 63.384C295.039 63.72 296.481 64.098 297.657 64.518C298.833 64.938 299.855 65.666 300.723 66.702C301.591 67.71 302.025 69.11 302.025 70.902C302.025 72.302 301.619 73.562 300.807 74.682C299.995 75.802 298.819 76.684 297.279 77.328C295.767 77.972 293.989 78.294 291.945 78.294ZM310.345 78.336C308.721 78.336 307.419 77.902 306.439 77.034C305.459 76.166 304.969 75.074 304.969 73.758C304.969 72.414 305.459 71.308 306.439 70.44C307.419 69.544 308.721 69.096 310.345 69.096C311.941 69.096 313.229 69.544 314.209 70.44C315.189 71.308 315.679 72.414 315.679 73.758C315.679 75.074 315.189 76.166 314.209 77.034C313.229 77.902 311.941 78.336 310.345 78.336ZM310.345 61.704C308.721 61.704 307.419 61.27 306.439 60.402C305.459 59.534 304.969 58.442 304.969 57.126C304.969 55.782 305.459 54.676 306.439 53.808C307.419 52.912 308.721 52.464 310.345 52.464C311.941 52.464 313.229 52.912 314.209 53.808C315.189 54.676 315.679 55.782 315.679 57.126C315.679 58.442 315.189 59.534 314.209 60.402C313.229 61.27 311.941 61.704 310.345 61.704ZM347.022 48.264V67.458C347.022 71.014 346.084 73.716 344.208 75.564C342.36 77.384 339.756 78.294 336.396 78.294C332.784 78.294 329.914 77.3 327.786 75.312C325.658 73.324 324.594 70.426 324.594 66.618H333.792C333.792 67.822 333.988 68.676 334.38 69.18C334.772 69.656 335.304 69.894 335.976 69.894C336.536 69.894 336.97 69.712 337.278 69.348C337.586 68.984 337.74 68.354 337.74 67.458V48.264H347.022ZM349.787 66.156C349.787 63.664 350.207 61.508 351.047 59.688C351.915 57.84 353.091 56.44 354.575 55.488C356.059 54.508 357.725 54.018 359.573 54.018C361.113 54.018 362.443 54.34 363.563 54.984C364.683 55.6 365.537 56.454 366.125 57.546V54.312H375.407V78H366.125V74.766C365.537 75.858 364.683 76.726 363.563 77.37C362.443 77.986 361.113 78.294 359.573 78.294C357.725 78.294 356.059 77.818 354.575 76.866C353.091 75.886 351.915 74.486 351.047 72.666C350.207 70.818 349.787 68.648 349.787 66.156ZM366.125 66.156C366.125 64.896 365.803 63.916 365.159 63.216C364.515 62.516 363.689 62.166 362.681 62.166C361.673 62.166 360.847 62.516 360.203 63.216C359.559 63.916 359.237 64.896 359.237 66.156C359.237 67.416 359.559 68.396 360.203 69.096C360.847 69.796 361.673 70.146 362.681 70.146C363.689 70.146 364.515 69.796 365.159 69.096C365.803 68.396 366.125 67.416 366.125 66.156ZM391.606 69.138L395.386 54.312H405.298L397.402 78H385.768L377.872 54.312H387.784L391.606 69.138ZM406.512 66.156C406.512 63.664 406.932 61.508 407.772 59.688C408.64 57.84 409.816 56.44 411.3 55.488C412.784 54.508 414.45 54.018 416.298 54.018C417.838 54.018 419.168 54.34 420.288 54.984C421.408 55.6 422.262 56.454 422.85 57.546V54.312H432.132V78H422.85V74.766C422.262 75.858 421.408 76.726 420.288 77.37C419.168 77.986 417.838 78.294 416.298 78.294C414.45 78.294 412.784 77.818 411.3 76.866C409.816 75.886 408.64 74.486 407.772 72.666C406.932 70.818 406.512 68.648 406.512 66.156ZM422.85 66.156C422.85 64.896 422.528 63.916 421.884 63.216C421.24 62.516 420.414 62.166 419.406 62.166C418.398 62.166 417.572 62.516 416.928 63.216C416.284 63.916 415.962 64.896 415.962 66.156C415.962 67.416 416.284 68.396 416.928 69.096C417.572 69.796 418.398 70.146 419.406 70.146C420.414 70.146 421.24 69.796 421.884 69.096C422.528 68.396 422.85 67.416 422.85 66.156ZM62.734 124.294C59.178 124.294 56.238 123.468 53.914 121.816C51.618 120.136 50.372 117.686 50.176 114.466H60.088C60.228 116.174 60.984 117.028 62.356 117.028C62.86 117.028 63.28 116.916 63.616 116.692C63.98 116.44 64.162 116.062 64.162 115.558C64.162 114.858 63.784 114.298 63.028 113.878C62.272 113.43 61.096 112.926 59.5 112.366C57.596 111.694 56.014 111.036 54.754 110.392C53.522 109.748 52.458 108.81 51.562 107.578C50.666 106.346 50.232 104.764 50.26 102.832C50.26 100.9 50.75 99.262 51.73 97.918C52.738 96.546 54.096 95.51 55.804 94.81C57.54 94.11 59.486 93.76 61.642 93.76C65.282 93.76 68.166 94.6 70.294 96.28C72.45 97.96 73.584 100.326 73.696 103.378H63.658C63.63 102.538 63.42 101.936 63.028 101.572C62.636 101.208 62.16 101.026 61.6 101.026C61.208 101.026 60.886 101.166 60.634 101.446C60.382 101.698 60.256 102.062 60.256 102.538C60.256 103.21 60.62 103.77 61.348 104.218C62.104 104.638 63.294 105.156 64.918 105.772C66.794 106.472 68.334 107.144 69.538 107.788C70.77 108.432 71.834 109.328 72.73 110.476C73.626 111.624 74.074 113.066 74.074 114.802C74.074 116.622 73.626 118.26 72.73 119.716C71.834 121.144 70.532 122.264 68.824 123.076C67.116 123.888 65.086 124.294 62.734 124.294ZM102.424 100.312V124H93.1V120.388C92.372 121.508 91.392 122.418 90.16 123.118C88.956 123.818 87.514 124.168 85.834 124.168C83.118 124.168 80.99 123.258 79.45 121.438C77.938 119.618 77.182 117.154 77.182 114.046V100.312H86.464V112.87C86.464 113.99 86.758 114.886 87.346 115.558C87.962 116.202 88.774 116.524 89.782 116.524C90.818 116.524 91.63 116.202 92.218 115.558C92.806 114.886 93.1 113.99 93.1 112.87V100.312H102.424ZM115.959 103.546C116.547 102.454 117.387 101.6 118.479 100.984C119.599 100.34 120.929 100.018 122.469 100.018C124.317 100.018 125.983 100.508 127.467 101.488C128.951 102.44 130.113 103.84 130.953 105.688C131.821 107.508 132.255 109.664 132.255 112.156C132.255 114.648 131.821 116.818 130.953 118.666C130.113 120.486 128.951 121.886 127.467 122.866C125.983 123.818 124.317 124.294 122.469 124.294C120.929 124.294 119.599 123.986 118.479 123.37C117.387 122.726 116.547 121.858 115.959 120.766V124H106.635V92.92H115.959V103.546ZM122.805 112.156C122.805 110.896 122.483 109.916 121.839 109.216C121.195 108.516 120.369 108.166 119.361 108.166C118.353 108.166 117.527 108.516 116.883 109.216C116.239 109.916 115.917 110.896 115.917 112.156C115.917 113.416 116.239 114.396 116.883 115.096C117.527 115.796 118.353 116.146 119.361 116.146C120.369 116.146 121.195 115.796 121.839 115.096C122.483 114.396 122.805 113.416 122.805 112.156ZM145.724 124.294C143.484 124.294 141.496 123.93 139.76 123.202C138.052 122.474 136.694 121.466 135.686 120.178C134.678 118.89 134.104 117.434 133.964 115.81H142.91C143.022 116.51 143.316 117.028 143.792 117.364C144.296 117.7 144.926 117.868 145.682 117.868C146.158 117.868 146.536 117.77 146.816 117.574C147.096 117.35 147.236 117.084 147.236 116.776C147.236 116.244 146.942 115.866 146.354 115.642C145.766 115.418 144.772 115.166 143.372 114.886C141.664 114.55 140.25 114.186 139.13 113.794C138.038 113.402 137.072 112.73 136.232 111.778C135.42 110.826 135.014 109.51 135.014 107.83C135.014 106.374 135.392 105.058 136.148 103.882C136.932 102.678 138.08 101.74 139.592 101.068C141.104 100.368 142.938 100.018 145.094 100.018C148.286 100.018 150.778 100.802 152.57 102.37C154.39 103.938 155.482 105.982 155.846 108.502H147.572C147.432 107.858 147.138 107.368 146.69 107.032C146.242 106.668 145.64 106.486 144.884 106.486C144.408 106.486 144.044 106.584 143.792 106.78C143.54 106.948 143.414 107.214 143.414 107.578C143.414 108.054 143.708 108.418 144.296 108.67C144.884 108.894 145.822 109.132 147.11 109.384C148.818 109.72 150.26 110.098 151.436 110.518C152.612 110.938 153.634 111.666 154.502 112.702C155.37 113.71 155.804 115.11 155.804 116.902C155.804 118.302 155.398 119.562 154.586 120.682C153.774 121.802 152.598 122.684 151.058 123.328C149.546 123.972 147.768 124.294 145.724 124.294ZM182.436 111.946C182.436 112.59 182.394 113.206 182.31 113.794H167.316C167.456 115.838 168.31 116.86 169.878 116.86C170.886 116.86 171.614 116.398 172.062 115.474H181.932C181.596 117.154 180.882 118.666 179.79 120.01C178.726 121.326 177.368 122.376 175.716 123.16C174.092 123.916 172.3 124.294 170.34 124.294C167.988 124.294 165.888 123.804 164.04 122.824C162.22 121.844 160.792 120.444 159.756 118.624C158.748 116.776 158.244 114.62 158.244 112.156C158.244 109.692 158.748 107.55 159.756 105.73C160.792 103.882 162.22 102.468 164.04 101.488C165.888 100.508 167.988 100.018 170.34 100.018C172.692 100.018 174.778 100.508 176.598 101.488C178.446 102.44 179.874 103.812 180.882 105.604C181.918 107.396 182.436 109.51 182.436 111.946ZM172.986 109.72C172.986 108.936 172.734 108.348 172.23 107.956C171.726 107.536 171.096 107.326 170.34 107.326C168.688 107.326 167.722 108.124 167.442 109.72H172.986ZM200.127 116.062V124H196.599C190.103 124 186.855 120.766 186.855 114.298V108.082H183.915V100.312H186.855V94.6H196.179V100.312H200.043V108.082H196.179V114.466C196.179 115.026 196.305 115.432 196.557 115.684C196.837 115.936 197.285 116.062 197.901 116.062H200.127ZM209.975 109.09C209.975 106.15 210.563 103.532 211.739 101.236C212.943 98.94 214.651 97.162 216.863 95.902C219.075 94.614 221.679 93.97 224.675 93.97C227.251 93.97 229.547 94.46 231.563 95.44C233.607 96.392 235.259 97.75 236.519 99.514C237.807 101.278 238.661 103.336 239.081 105.688H229.253C228.805 104.708 228.161 103.952 227.321 103.42C226.509 102.86 225.571 102.58 224.507 102.58C222.939 102.58 221.693 103.168 220.769 104.344C219.873 105.52 219.425 107.102 219.425 109.09C219.425 111.078 219.873 112.66 220.769 113.836C221.693 115.012 222.939 115.6 224.507 115.6C225.571 115.6 226.509 115.334 227.321 114.802C228.161 114.242 228.805 113.472 229.253 112.492H239.081C238.661 114.844 237.807 116.902 236.519 118.666C235.259 120.43 233.607 121.802 231.563 122.782C229.547 123.734 227.251 124.21 224.675 124.21C221.679 124.21 219.075 123.58 216.863 122.32C214.651 121.032 212.943 119.24 211.739 116.944C210.563 114.648 209.975 112.03 209.975 109.09ZM253.694 124.294C251.314 124.294 249.172 123.804 247.268 122.824C245.364 121.844 243.866 120.444 242.774 118.624C241.71 116.776 241.178 114.62 241.178 112.156C241.178 109.692 241.71 107.55 242.774 105.73C243.866 103.882 245.364 102.468 247.268 101.488C249.172 100.508 251.314 100.018 253.694 100.018C256.074 100.018 258.216 100.508 260.12 101.488C262.024 102.468 263.508 103.882 264.572 105.73C265.664 107.55 266.21 109.692 266.21 112.156C266.21 114.62 265.664 116.776 264.572 118.624C263.508 120.444 262.024 121.844 260.12 122.824C258.216 123.804 256.074 124.294 253.694 124.294ZM253.694 116.23C254.562 116.23 255.29 115.894 255.878 115.222C256.466 114.522 256.76 113.5 256.76 112.156C256.76 110.812 256.466 109.804 255.878 109.132C255.29 108.432 254.562 108.082 253.694 108.082C252.826 108.082 252.098 108.432 251.51 109.132C250.922 109.804 250.628 110.812 250.628 112.156C250.628 113.5 250.908 114.522 251.468 115.222C252.056 115.894 252.798 116.23 253.694 116.23ZM300.765 100.144C303.789 100.144 306.127 101.054 307.779 102.874C309.459 104.694 310.299 107.158 310.299 110.266V124H301.017V111.442C301.017 110.434 300.709 109.65 300.093 109.09C299.505 108.502 298.707 108.208 297.699 108.208C296.663 108.208 295.851 108.502 295.263 109.09C294.675 109.65 294.381 110.434 294.381 111.442V124H285.099V111.442C285.099 110.434 284.791 109.65 284.175 109.09C283.587 108.502 282.789 108.208 281.781 108.208C280.745 108.208 279.933 108.502 279.345 109.09C278.757 109.65 278.463 110.434 278.463 111.442V124H269.139V100.312H278.463V103.504C279.135 102.496 280.045 101.684 281.193 101.068C282.369 100.452 283.741 100.144 285.309 100.144C287.017 100.144 288.529 100.522 289.845 101.278C291.161 102.006 292.211 103.042 292.995 104.386C293.863 103.154 294.969 102.146 296.313 101.362C297.657 100.55 299.141 100.144 300.765 100.144ZM323.662 103.546C324.25 102.454 325.09 101.6 326.182 100.984C327.302 100.34 328.632 100.018 330.172 100.018C332.02 100.018 333.686 100.508 335.17 101.488C336.654 102.44 337.816 103.84 338.656 105.688C339.524 107.508 339.958 109.664 339.958 112.156C339.958 114.648 339.524 116.818 338.656 118.666C337.816 120.486 336.654 121.886 335.17 122.866C333.686 123.818 332.02 124.294 330.172 124.294C328.632 124.294 327.302 123.986 326.182 123.37C325.09 122.726 324.25 121.858 323.662 120.766V135.34H314.338V100.312H323.662V103.546ZM330.508 112.156C330.508 110.896 330.186 109.916 329.542 109.216C328.898 108.516 328.072 108.166 327.064 108.166C326.056 108.166 325.23 108.516 324.586 109.216C323.942 109.916 323.62 110.896 323.62 112.156C323.62 113.416 323.942 114.396 324.586 115.096C325.23 115.796 326.056 116.146 327.064 116.146C328.072 116.146 328.898 115.796 329.542 115.096C330.186 114.396 330.508 113.416 330.508 112.156ZM347.589 98.422C345.965 98.422 344.663 97.988 343.683 97.12C342.703 96.252 342.213 95.16 342.213 93.844C342.213 92.5 342.703 91.394 343.683 90.526C344.663 89.63 345.965 89.182 347.589 89.182C349.185 89.182 350.473 89.63 351.453 90.526C352.433 91.394 352.923 92.5 352.923 93.844C352.923 95.16 352.433 96.252 351.453 97.12C350.473 97.988 349.185 98.422 347.589 98.422ZM352.209 100.312V124H342.885V100.312H352.209ZM365.744 92.92V124H356.42V92.92H365.744ZM392.887 111.946C392.887 112.59 392.845 113.206 392.761 113.794H377.767C377.907 115.838 378.761 116.86 380.329 116.86C381.337 116.86 382.065 116.398 382.513 115.474H392.383C392.047 117.154 391.333 118.666 390.241 120.01C389.177 121.326 387.819 122.376 386.167 123.16C384.543 123.916 382.751 124.294 380.791 124.294C378.439 124.294 376.339 123.804 374.491 122.824C372.671 121.844 371.243 120.444 370.207 118.624C369.199 116.776 368.695 114.62 368.695 112.156C368.695 109.692 369.199 107.55 370.207 105.73C371.243 103.882 372.671 102.468 374.491 101.488C376.339 100.508 378.439 100.018 380.791 100.018C383.143 100.018 385.229 100.508 387.049 101.488C388.897 102.44 390.325 103.812 391.333 105.604C392.369 107.396 392.887 109.51 392.887 111.946ZM383.437 109.72C383.437 108.936 383.185 108.348 382.681 107.956C382.177 107.536 381.547 107.326 380.791 107.326C379.139 107.326 378.173 108.124 377.893 109.72H383.437ZM405.16 104.68C406.112 103.308 407.274 102.216 408.646 101.404C410.018 100.564 411.446 100.144 412.93 100.144V110.098H410.284C408.52 110.098 407.218 110.406 406.378 111.022C405.566 111.638 405.16 112.73 405.16 114.298V124H395.836V100.312H405.16V104.68Z" fill="white"/>
<g clip-path="url(#clip2_505_230)">
<g clip-path="url(#clip3_505_230)">
<path d="M149.775 270.095C149.775 270.095 146.909 271.851 151.815 272.445C157.758 273.159 160.796 273.056 167.345 271.751C167.345 271.751 169.067 272.888 171.472 273.873C156.79 280.501 138.243 273.489 149.775 270.095Z" fill="#5382A1"/>
<path d="M147.982 261.446C147.982 261.446 144.767 263.952 149.676 264.487C156.025 265.177 161.039 265.233 169.714 263.474C169.714 263.474 170.914 264.755 172.801 265.456C155.05 270.924 135.278 265.887 147.982 261.446Z" fill="#5382A1"/>
<path d="M163.106 246.774C166.724 251.161 162.156 255.109 162.156 255.109C162.156 255.109 171.341 250.114 167.123 243.859C163.183 238.026 160.161 235.128 176.518 225.135C176.518 225.135 150.843 231.89 163.106 246.774Z" fill="#E76F00"/>
<path d="M182.524 276.493C182.524 276.493 184.645 278.333 180.188 279.757C171.714 282.462 144.916 283.278 137.471 279.865C134.795 278.639 139.814 276.937 141.392 276.58C143.039 276.204 143.979 276.274 143.979 276.274C141.003 274.066 124.744 280.61 135.72 282.484C165.655 287.598 190.289 280.182 182.524 276.493Z" fill="#5382A1"/>
<path d="M151.154 252.484C151.154 252.484 137.523 255.895 146.327 257.133C150.044 257.657 157.455 257.539 164.357 256.929C169.998 256.428 175.663 255.362 175.663 255.362C175.663 255.362 173.674 256.26 172.235 257.295C158.392 261.129 131.652 259.345 139.35 255.423C145.861 252.108 151.154 252.484 151.154 252.484Z" fill="#5382A1"/>
<path d="M175.606 266.881C189.677 259.179 183.172 251.778 178.63 252.775C177.517 253.019 177.021 253.231 177.021 253.231C177.021 253.231 177.434 252.549 178.224 252.254C187.207 248.927 194.116 262.066 175.323 267.269C175.323 267.27 175.541 267.065 175.606 266.881Z" fill="#5382A1"/>
<path d="M167.123 209C167.123 209 174.916 217.211 159.732 229.838C147.556 239.966 156.955 245.742 159.727 252.34C152.619 245.585 147.404 239.639 150.903 234.105C156.039 225.982 170.267 222.043 167.123 209Z" fill="#E76F00"/>
<path d="M152.536 287.752C166.043 288.662 186.784 287.246 187.275 280.515C187.275 280.515 186.331 283.067 176.113 285.093C164.584 287.378 150.366 287.112 141.933 285.647C141.933 285.647 143.659 287.152 152.536 287.752Z" fill="#5382A1"/>
</g>
</g>
<g clip-path="url(#clip4_505_230)">
<path d="M77.9806 157.202C78.5831 156.921 80.4063 158.452 79.4895 159.663C78.5831 160.871 77.3808 161.8 76.147 159.663C75.2002 157.963 76.5361 157.614 77.4263 157.381C77.6567 157.321 77.8573 157.268 77.9806 157.202Z" fill="#E92200"/>
<path d="M48.8682 173.594C46.3538 175.055 43.8214 176.525 42.0695 177.413C37.8075 179.553 42.9418 179.874 45.0531 178.947C47.1618 178.018 57.4356 172.531 61.0611 170.355L61.1229 170.318C64.7446 168.181 69.8335 165.178 73.441 162.728C77.0612 160.268 72.8464 159.662 71.9269 160.268C71.6591 160.444 71.0584 160.807 70.3046 161.262L70.3039 161.262L70.3032 161.263C68.4767 162.365 65.7525 164.009 64.6865 164.868C63.1698 166.078 59.2693 168.539 57.158 169.144C55.9241 169.497 52.4142 171.535 48.8682 173.594Z" fill="#E92200"/>
<path d="M143.634 172.651C145.303 171.645 144.627 167.892 142.958 167.892C142.629 167.892 142.298 167.851 141.979 167.812C140.677 167.651 139.571 167.516 139.571 170.273C139.571 173.66 141.963 173.66 143.634 172.651Z" fill="#E92200"/>
<path d="M135.192 173.661C134.001 174.698 131.349 176.455 128.481 178.355C126.548 179.636 124.516 180.982 122.768 182.216C118.39 185.282 110.306 190.729 107.917 192.099C107.671 192.243 107.418 192.39 107.158 192.541L107.157 192.542L107.156 192.542C104.946 193.826 102.333 195.345 100.515 196.856C98.5212 198.594 99.1997 201.66 102.228 200.612C105.248 199.603 108.279 197.91 110.306 195.847C112.297 193.792 114.327 192.42 116.358 191.09C117.305 190.452 121.175 187.587 125.344 184.501L125.345 184.5L125.345 184.5L125.346 184.499L125.348 184.498L125.349 184.497L125.35 184.496C130.124 180.962 135.288 177.14 136.903 176.039C139.931 172.652 137.222 171.965 135.192 173.661Z" fill="#E92200"/>
<path d="M69.9001 190.73C61.8189 188.229 48.3597 184.109 44.9779 183.225C41.5934 182.333 40.9543 183.586 41.9523 184.916C42.6196 185.841 43.6164 186.142 46.3503 186.969C47.6733 187.37 49.4033 187.893 51.6996 188.67C54.8305 189.739 59.2662 191.131 63.6208 192.498L63.6214 192.499L63.6217 192.499C69.1256 194.226 74.5001 195.914 76.9467 196.856C77.676 197.146 78.4054 197.443 79.1317 197.739C79.3331 199.583 79.4898 201.297 79.4898 202.507C79.4898 205.855 79.7701 207.392 81.6011 207.392C83.0356 207.392 82.9388 205.813 82.8432 204.253C82.8194 203.864 82.7956 203.477 82.7956 203.115C82.7956 202.608 82.7749 201.692 82.7505 200.61C82.7402 200.153 82.7292 199.666 82.7188 199.167C85.0796 200.06 87.3482 200.774 89.4078 200.976C93.1145 201.3 93.4681 197.546 88.7294 196.171C87.7183 195.885 86.6447 195.587 85.5019 195.268C84.6059 195.019 83.6673 194.757 82.6828 194.481C82.6985 193.759 82.7329 193.229 82.7956 193.028C83.1152 192.099 82.518 186.894 82.2036 185.362C81.8814 183.828 81.2842 178.946 81.2842 175.88C81.2842 172.814 80.6895 168.861 80.0896 165.19C79.4898 161.519 76.1472 163.653 76.4694 164.866C76.7838 166.077 77.6613 170.677 77.6613 174.951C77.6613 177.274 77.8384 180.241 78.0001 182.951C78.1361 185.231 78.2612 187.328 78.2612 188.709C78.2612 189.82 78.4222 191.491 78.6276 193.331C76.0118 192.578 73.117 191.724 69.9001 190.73Z" fill="#E92200"/>
<path d="M98.1641 202.67C98.84 200.974 98.5204 197.908 95.4974 198.232C92.4326 198.593 92.4326 200.974 93.4699 203.358C94.1458 205.049 97.4883 204.364 98.1641 202.67Z" fill="#E92200"/>
<path d="M141.962 175.031C143.277 175.031 143.95 177.778 143.636 179.833C143.277 181.85 143.95 195.165 144.309 199.925C144.629 204.727 144.629 206.787 143.95 208.48C143.534 209.527 143.633 210.974 143.768 212.974C143.852 214.211 143.95 215.659 143.95 217.354C143.95 221.795 143.277 227.564 142.958 229.984C142.601 232.363 142.282 234.056 140.922 233.735C139.571 233.374 139.571 231.675 139.571 228.931C139.571 226.231 139.571 211.867 139.932 208.48C140.244 205.051 140.244 203.678 140.244 200.973V179.472C140.244 176.727 140.608 175.031 141.962 175.031Z" fill="#E92200"/>
<path d="M142.601 240.874C143.636 239.865 142.958 236.112 140.922 236.438C138.895 236.802 137.899 238.172 138.575 239.865C139.248 241.562 141.601 241.925 142.601 240.874Z" fill="#E92200"/>
<path d="M37.8061 180.157C39.6424 179.873 40.2371 183.226 38.7256 184.431C37.2141 185.686 35.1028 184.755 35.4197 182.902C35.6948 181.083 36.017 180.481 37.8061 180.157Z" fill="#E92200"/>
<path d="M100.633 159.987C97.6049 159.055 87.9361 157.524 84.0304 157.524C80.0906 157.524 81.8798 160.871 83.3912 161.195C83.7061 161.262 84.1253 161.367 84.6434 161.498C86.6208 161.995 90.0375 162.854 94.5793 163.332C98.0868 163.702 102.04 164.42 105.211 164.996C107.224 165.361 108.922 165.669 109.99 165.795C111.402 165.943 113.387 166.519 115.309 167.075C117.071 167.586 118.779 168.08 119.942 168.216C120.333 168.268 120.92 168.343 121.639 168.434L121.64 168.434C125.384 168.912 132.709 169.845 134.711 170.353C137.147 170.998 138.061 167.329 136.547 166.682C135.025 166.079 131.727 165.471 126.27 164.869C121.678 164.353 119.008 163.374 117.766 162.918C117.543 162.836 117.367 162.771 117.233 162.729C116.747 162.557 115.328 162.476 113.92 162.396C112.678 162.326 111.444 162.256 110.868 162.124C110.44 162.008 109.389 161.814 108.078 161.572C105.73 161.14 102.551 160.554 100.633 159.987Z" fill="#E92200"/>
<path d="M36.9338 190.244C36.9338 188.104 40.237 187.175 40.5566 189.96C40.7659 192.029 40.9976 195.15 41.219 198.135C41.2913 199.109 41.3625 200.069 41.4315 200.973C41.7511 204.647 42.0681 207.997 42.3457 210.455C42.5273 211.83 43.0932 214.402 43.6007 216.708C43.9867 218.462 44.339 220.063 44.4623 220.866C44.7741 222.676 45.0543 226.35 45.0543 228.49C45.0543 229.356 45.1586 230.374 45.2618 231.381C45.4134 232.862 45.5626 234.318 45.3739 235.23C45.0543 236.759 43.5429 240.714 42.6653 236.153C42.1641 233.633 42.1164 230.749 42.0776 228.404C42.0457 226.472 42.0198 224.906 41.7511 224.213C41.1512 222.676 39.9174 219.329 39.9174 216.871C39.9174 214.456 38.7718 208.246 38.4603 206.558L38.4426 206.463C38.1283 204.928 36.9338 192.38 36.9338 190.244Z" fill="#E92200"/>
<path d="M47.1631 241.359C46.2908 239.827 43.8625 240.714 43.5429 241.966C43.2626 243.174 43.5429 245.922 45.6909 245.638C47.7996 245.314 48.0825 242.895 47.1631 241.359Z" fill="#E92200"/>
<path d="M48.3969 237.972C49.7402 236.613 52.3425 234.878 55.1789 232.987C58.0675 231.06 61.1988 228.972 63.4906 226.955C65.9716 224.793 69.5232 222.16 72.4804 219.968C74.9311 218.151 76.9736 216.637 77.6597 215.944C79.1712 214.408 83.1162 215.658 79.7711 218.403C78.0518 219.832 75.0994 222.093 72.1918 224.32C69.5175 226.368 66.8811 228.387 65.2772 229.703C63.7505 230.99 60.996 232.984 58.2951 234.941C55.1567 237.213 52.0908 239.434 51.1081 240.43C49.3163 242.248 45.6909 240.714 48.3969 237.972Z" fill="#E92200"/>
<path d="M83.7119 214.128C84.9091 213.523 84.9091 211.062 83.7119 210.738C82.5174 210.457 81.006 210.738 80.689 212.593C80.4061 214.407 82.5174 214.731 83.7119 214.128Z" fill="#E92200"/>
<path d="M52.6217 245.033C55.1627 245.762 59.5685 248.278 63.3318 250.427L63.3325 250.427L63.3328 250.428C65.8152 251.845 68.0182 253.103 69.2217 253.583C72.2473 254.796 77.9814 257.859 80.6874 259.394C82.7946 260.586 87.2925 262.711 90.0458 264.012L90.0461 264.012L90.0468 264.012L90.0476 264.013L90.0479 264.013L90.0498 264.014L90.0511 264.014L90.0543 264.016L90.0587 264.018L90.0601 264.019C90.836 264.385 91.4722 264.686 91.8755 264.881C92.5278 265.22 93.1443 265.478 93.7085 265.714C94.6894 266.125 95.5125 266.47 96.0929 267.06C97.0097 267.944 95.7786 271.336 93.3843 270.086C90.9586 268.876 81.6016 263.994 80.0902 263.065C79.4772 262.687 78.1632 261.955 76.6967 261.139C74.5595 259.949 72.0983 258.579 71.0108 257.859C70.0274 257.194 68.8509 256.797 67.594 256.374C66.5641 256.026 65.4803 255.661 64.4044 255.115C61.9761 253.91 53.5359 249.309 50.788 247.775C48.0847 246.243 48.3964 243.78 52.6217 245.033Z" fill="#E92200"/>
<path d="M92.1573 217.473C92.7307 217.867 93.8075 218.558 95.1271 219.349C95.5626 221.868 96.3247 226.857 96.0929 230.63C95.7785 235.23 96.0929 241.038 96.6927 244.101C97.2847 247.17 97.6043 255.115 97.6043 257.257C97.6043 259.394 98.2016 262.136 98.5212 262.744C98.7988 263.389 100.635 266.131 100.91 262.136C101.073 260.158 101.073 257.183 101.073 254.395C101.073 251.607 101.073 249.005 101.235 247.775C101.462 245.78 101.108 241.586 100.648 236.155L100.648 236.154C100.541 234.885 100.428 233.549 100.316 232.159C99.9937 228.201 99.7541 224.609 99.6015 221.847C101.414 222.774 103.198 223.561 104.532 223.889C107.334 224.605 112.484 226.959 116.904 228.979C118.208 229.575 119.448 230.142 120.545 230.629C123.429 231.909 127.3 233.959 130.522 235.665C132.678 236.807 134.543 237.794 135.628 238.295C138.34 239.506 138.062 234.903 136.862 234.016C136.277 233.575 133.802 232.518 131.102 231.365C128.11 230.087 124.842 228.691 123.568 227.887C122.021 226.91 116.453 224.45 111.283 222.166L111.283 222.165C108.323 220.858 105.493 219.608 103.623 218.726C102.33 218.103 100.879 217.461 99.404 216.84C99.4054 216.457 99.4317 215.955 99.4616 215.384L99.4616 215.383C99.5751 213.218 99.7406 210.06 98.7988 208.603C97.8846 205.534 94.5814 204.647 94.2618 207.713C94.0898 209.587 94.2534 212.529 94.4788 214.862C92.0147 213.912 89.9656 213.173 89.1239 212.876C87.34 212.273 86.4179 213.199 87.34 214.731C87.8862 215.651 88.8642 216.019 89.9459 216.427C90.6693 216.699 91.4392 216.989 92.1573 217.473Z" fill="#E92200"/>
<path d="M99.996 268.269C100.91 267.945 103.944 270.409 102.741 273.151C101.515 275.898 99.721 274.685 98.5212 272.548C97.2848 270.409 99.1185 268.553 99.996 268.269Z" fill="#E92200"/>
<path d="M111.275 261.218C110.13 261.715 108.854 262.269 106.367 265.201C102.425 269.804 106.642 270.407 107.876 269.477C109.076 268.554 110.267 267.667 111.779 267.062C112.815 266.62 113.849 265.484 115.258 263.937C115.914 263.215 116.653 262.404 117.51 261.532C118.735 260.29 119.846 259.784 120.916 259.296C122.214 258.705 123.451 258.141 124.759 256.327C127.192 253.017 133.238 247.007 135.947 245.313C138.661 243.623 135.947 241.358 134.11 242.895C133.48 243.421 132.77 243.953 131.982 244.543C130.535 245.625 128.827 246.903 126.873 248.703C124.985 250.412 120.996 253.673 117.748 256.327L117.748 256.328L117.747 256.328C115.784 257.932 114.092 259.315 113.298 260.001C112.534 260.672 111.926 260.936 111.275 261.218Z" fill="#E92200"/>
</g>
<path fill-rule="evenodd" clip-rule="evenodd" d="M304.635 171.816C304.634 170.457 304.302 169.256 303.629 168.225C302.968 167.211 301.978 166.361 300.65 165.69C289.689 160.168 278.718 154.663 267.761 149.136C264.808 147.646 261.943 147.701 259.011 149.212C254.649 151.46 232.807 162.393 226.298 165.686C223.618 167.042 222.313 169.117 222.313 171.814C222.309 182.918 222.313 194.022 222.309 205.126C222.309 206.456 222.628 207.634 223.271 208.649C223.932 209.694 224.936 210.567 226.295 211.254C232.804 214.547 254.649 225.48 259.01 227.728C261.943 229.24 264.808 229.294 267.762 227.804C278.72 222.276 289.691 216.772 300.654 211.25C302.012 210.563 303.016 209.69 303.677 208.646C304.319 207.631 304.639 206.453 304.639 205.123C304.639 205.123 304.639 182.921 304.635 171.816" fill="#5C8DBC"/>
<path fill-rule="evenodd" clip-rule="evenodd" d="M263.6 188.362L223.271 208.649C223.932 209.694 224.936 210.567 226.295 211.254C232.804 214.547 254.649 225.48 259.01 227.728C261.943 229.24 264.808 229.294 267.762 227.804C278.72 222.276 289.691 216.772 300.654 211.25C302.012 210.563 303.016 209.69 303.677 208.646L263.6 188.362" fill="#1A4674"/>
<path fill-rule="evenodd" clip-rule="evenodd" d="M251.655 194.371C254.002 197.95 258.413 200.365 263.474 200.365C268.566 200.365 273.002 197.92 275.337 194.302L263.6 188.362L251.655 194.371" fill="#1A4674"/>
<path fill-rule="evenodd" clip-rule="evenodd" d="M304.635 171.816C304.634 170.457 304.302 169.256 303.629 168.225L263.6 188.362L303.677 208.646C304.319 207.631 304.639 206.453 304.639 205.123C304.639 205.123 304.639 182.921 304.635 171.816" fill="#1B598E"/>
<path fill-rule="evenodd" clip-rule="evenodd" d="M302.431 189.812H299.3V192.549H296.167V189.812H293.036V187.076H296.167V184.34H299.3V187.076H302.431V189.812" fill="white"/>
<path fill-rule="evenodd" clip-rule="evenodd" d="M291.004 189.812H287.872V192.549H284.741V189.812H281.609V187.076H284.741V184.34H287.872V187.076H291.004V189.812" fill="white"/>
<path fill-rule="evenodd" clip-rule="evenodd" d="M275.337 194.302C273.003 197.92 268.566 200.365 263.474 200.365C258.413 200.365 254.002 197.95 251.655 194.371C250.515 192.632 249.859 190.618 249.859 188.47C249.859 181.901 255.955 176.575 263.474 176.575C268.502 176.575 272.89 178.959 275.249 182.502L287.149 176.515C282.419 169.382 273.588 164.583 263.474 164.583C248.374 164.583 236.133 175.278 236.133 188.47C236.133 192.798 237.451 196.857 239.754 200.357C244.472 207.528 253.328 212.357 263.474 212.357C273.639 212.357 282.508 207.509 287.219 200.317L275.337 194.302" fill="white"/>
<defs>
<linearGradient id="paint0_linear_505_230" x1="157.988" y1="286.869" x2="146.689" y2="227.436" gradientUnits="userSpaceOnUse">
<stop stop-color="#F74C00"/>
<stop offset="0.33" stop-color="#F74C00"/>
<stop offset="1" stop-color="#F49600"/>
</linearGradient>
<linearGradient id="paint1_linear_505_230" x1="170.84" y1="286.877" x2="170.84" y2="263.245" gradientUnits="userSpaceOnUse">
<stop stop-color="#CC3A00"/>
<stop offset="0.15" stop-color="#CC3A00"/>
<stop offset="0.74" stop-color="#F74C00"/>
<stop offset="1" stop-color="#F74C00"/>
</linearGradient>
<linearGradient id="paint2_linear_505_230" x1="143.472" y1="287.864" x2="143.472" y2="266.725" gradientUnits="userSpaceOnUse">
<stop stop-color="#CC3A00"/>
<stop offset="0.15" stop-color="#CC3A00"/>
<stop offset="0.74" stop-color="#F74C00"/>
<stop offset="1" stop-color="#F74C00"/>
</linearGradient>
<clipPath id="clip0_505_230">
<rect width="126" height="128" fill="white" transform="translate(122 224)"/>
</clipPath>
<clipPath id="clip1_505_230">
<rect width="74" height="73" fill="white" transform="translate(368 147)"/>
</clipPath>
<clipPath id="clip2_505_230">
<rect width="126" height="128" fill="white" transform="translate(122 224)"/>
</clipPath>
<clipPath id="clip3_505_230">
<rect width="75" height="79" fill="white" transform="translate(122 209)"/>
</clipPath>
<clipPath id="clip4_505_230">
<rect width="110" height="118" fill="white" transform="translate(35 157)"/>
</clipPath>
</defs>
</svg>
