<svg width="581" height="384" viewBox="0 0 581 384" fill="none" xmlns="http://www.w3.org/2000/svg">
<rect width="581" height="384" fill="#001641"/>
<path d="M86.842 48.264V78H77.56V63.174L72.982 78H65.002L60.424 63.174V78H51.1V48.264H62.524L69.076 66.114L75.46 48.264H86.842ZM95.7532 52.422C94.1292 52.422 92.8272 51.988 91.8472 51.12C90.8672 50.252 90.3772 49.16 90.3772 47.844C90.3772 46.5 90.8672 45.394 91.8472 44.526C92.8272 43.63 94.1292 43.182 95.7532 43.182C97.3492 43.182 98.6372 43.63 99.6172 44.526C100.597 45.394 101.087 46.5 101.087 47.844C101.087 49.16 100.597 50.252 99.6172 51.12C98.6372 51.988 97.3492 52.422 95.7532 52.422ZM100.373 54.312V78H91.0492V54.312H100.373ZM103.324 66.156C103.324 63.692 103.828 61.55 104.836 59.73C105.872 57.882 107.3 56.468 109.12 55.488C110.968 54.508 113.068 54.018 115.42 54.018C118.5 54.018 121.09 54.886 123.19 56.622C125.318 58.358 126.662 60.766 127.222 63.846H117.352C116.988 62.614 116.274 61.998 115.21 61.998C114.454 61.998 113.852 62.348 113.404 63.048C112.984 63.748 112.774 64.784 112.774 66.156C112.774 67.528 112.984 68.564 113.404 69.264C113.852 69.964 114.454 70.314 115.21 70.314C116.274 70.314 116.988 69.698 117.352 68.466H127.222C126.662 71.546 125.318 73.954 123.19 75.69C121.09 77.426 118.5 78.294 115.42 78.294C113.068 78.294 110.968 77.804 109.12 76.824C107.3 75.844 105.872 74.444 104.836 72.624C103.828 70.776 103.324 68.62 103.324 66.156ZM139.502 58.68C140.454 57.308 141.616 56.216 142.988 55.404C144.36 54.564 145.788 54.144 147.272 54.144V64.098H144.626C142.862 64.098 141.56 64.406 140.72 65.022C139.908 65.638 139.502 66.73 139.502 68.298V78H130.178V54.312H139.502V58.68ZM161.04 78.294C158.66 78.294 156.518 77.804 154.614 76.824C152.71 75.844 151.212 74.444 150.12 72.624C149.056 70.776 148.524 68.62 148.524 66.156C148.524 63.692 149.056 61.55 150.12 59.73C151.212 57.882 152.71 56.468 154.614 55.488C156.518 54.508 158.66 54.018 161.04 54.018C163.42 54.018 165.562 54.508 167.466 55.488C169.37 56.468 170.854 57.882 171.918 59.73C173.01 61.55 173.556 63.692 173.556 66.156C173.556 68.62 173.01 70.776 171.918 72.624C170.854 74.444 169.37 75.844 167.466 76.824C165.562 77.804 163.42 78.294 161.04 78.294ZM161.04 70.23C161.908 70.23 162.636 69.894 163.224 69.222C163.812 68.522 164.106 67.5 164.106 66.156C164.106 64.812 163.812 63.804 163.224 63.132C162.636 62.432 161.908 62.082 161.04 62.082C160.172 62.082 159.444 62.432 158.856 63.132C158.268 63.804 157.974 64.812 157.974 66.156C157.974 67.5 158.254 68.522 158.814 69.222C159.402 69.894 160.144 70.23 161.04 70.23ZM187.027 78.294C184.787 78.294 182.799 77.93 181.063 77.202C179.355 76.474 177.997 75.466 176.989 74.178C175.981 72.89 175.407 71.434 175.267 69.81H184.213C184.325 70.51 184.619 71.028 185.095 71.364C185.599 71.7 186.229 71.868 186.985 71.868C187.461 71.868 187.839 71.77 188.119 71.574C188.399 71.35 188.539 71.084 188.539 70.776C188.539 70.244 188.245 69.866 187.657 69.642C187.069 69.418 186.075 69.166 184.675 68.886C182.967 68.55 181.553 68.186 180.433 67.794C179.341 67.402 178.375 66.73 177.535 65.778C176.723 64.826 176.317 63.51 176.317 61.83C176.317 60.374 176.695 59.058 177.451 57.882C178.235 56.678 179.383 55.74 180.895 55.068C182.407 54.368 184.241 54.018 186.397 54.018C189.589 54.018 192.081 54.802 193.873 56.37C195.693 57.938 196.785 59.982 197.149 62.502H188.875C188.735 61.858 188.441 61.368 187.993 61.032C187.545 60.668 186.943 60.486 186.187 60.486C185.711 60.486 185.347 60.584 185.095 60.78C184.843 60.948 184.717 61.214 184.717 61.578C184.717 62.054 185.011 62.418 185.599 62.67C186.187 62.894 187.125 63.132 188.413 63.384C190.121 63.72 191.563 64.098 192.739 64.518C193.915 64.938 194.937 65.666 195.805 66.702C196.673 67.71 197.107 69.11 197.107 70.902C197.107 72.302 196.701 73.562 195.889 74.682C195.077 75.802 193.901 76.684 192.361 77.328C190.849 77.972 189.071 78.294 187.027 78.294ZM223.739 65.946C223.739 66.59 223.697 67.206 223.613 67.794H208.619C208.759 69.838 209.613 70.86 211.181 70.86C212.189 70.86 212.917 70.398 213.365 69.474H223.235C222.899 71.154 222.185 72.666 221.093 74.01C220.029 75.326 218.671 76.376 217.019 77.16C215.395 77.916 213.603 78.294 211.643 78.294C209.291 78.294 207.191 77.804 205.343 76.824C203.523 75.844 202.095 74.444 201.059 72.624C200.051 70.776 199.547 68.62 199.547 66.156C199.547 63.692 200.051 61.55 201.059 59.73C202.095 57.882 203.523 56.468 205.343 55.488C207.191 54.508 209.291 54.018 211.643 54.018C213.995 54.018 216.081 54.508 217.901 55.488C219.749 56.44 221.177 57.812 222.185 59.604C223.221 61.396 223.739 63.51 223.739 65.946ZM214.289 63.72C214.289 62.936 214.037 62.348 213.533 61.956C213.029 61.536 212.399 61.326 211.643 61.326C209.991 61.326 209.025 62.124 208.745 63.72H214.289ZM236.012 58.68C236.964 57.308 238.126 56.216 239.498 55.404C240.87 54.564 242.298 54.144 243.782 54.144V64.098H241.136C239.372 64.098 238.07 64.406 237.23 65.022C236.418 65.638 236.012 66.73 236.012 68.298V78H226.688V54.312H236.012V58.68ZM258.305 69.138L262.085 54.312H271.997L264.101 78H252.467L244.571 54.312H254.483L258.305 69.138ZM279.175 52.422C277.551 52.422 276.249 51.988 275.269 51.12C274.289 50.252 273.799 49.16 273.799 47.844C273.799 46.5 274.289 45.394 275.269 44.526C276.249 43.63 277.551 43.182 279.175 43.182C280.771 43.182 282.059 43.63 283.039 44.526C284.019 45.394 284.509 46.5 284.509 47.844C284.509 49.16 284.019 50.252 283.039 51.12C282.059 51.988 280.771 52.422 279.175 52.422ZM283.795 54.312V78H274.471V54.312H283.795ZM286.746 66.156C286.746 63.692 287.25 61.55 288.258 59.73C289.294 57.882 290.722 56.468 292.542 55.488C294.39 54.508 296.49 54.018 298.842 54.018C301.922 54.018 304.512 54.886 306.612 56.622C308.74 58.358 310.084 60.766 310.644 63.846H300.774C300.41 62.614 299.696 61.998 298.632 61.998C297.876 61.998 297.274 62.348 296.826 63.048C296.406 63.748 296.196 64.784 296.196 66.156C296.196 67.528 296.406 68.564 296.826 69.264C297.274 69.964 297.876 70.314 298.632 70.314C299.696 70.314 300.41 69.698 300.774 68.466H310.644C310.084 71.546 308.74 73.954 306.612 75.69C304.512 77.426 301.922 78.294 298.842 78.294C296.49 78.294 294.39 77.804 292.542 76.824C290.722 75.844 289.294 74.444 288.258 72.624C287.25 70.776 286.746 68.62 286.746 66.156ZM336.532 65.946C336.532 66.59 336.49 67.206 336.406 67.794H321.412C321.552 69.838 322.406 70.86 323.974 70.86C324.982 70.86 325.71 70.398 326.158 69.474H336.028C335.692 71.154 334.978 72.666 333.886 74.01C332.822 75.326 331.464 76.376 329.812 77.16C328.188 77.916 326.396 78.294 324.436 78.294C322.084 78.294 319.984 77.804 318.136 76.824C316.316 75.844 314.888 74.444 313.852 72.624C312.844 70.776 312.34 68.62 312.34 66.156C312.34 63.692 312.844 61.55 313.852 59.73C314.888 57.882 316.316 56.468 318.136 55.488C319.984 54.508 322.084 54.018 324.436 54.018C326.788 54.018 328.874 54.508 330.694 55.488C332.542 56.44 333.97 57.812 334.978 59.604C336.014 61.396 336.532 63.51 336.532 65.946ZM327.082 63.72C327.082 62.936 326.83 62.348 326.326 61.956C325.822 61.536 325.192 61.326 324.436 61.326C322.784 61.326 321.818 62.124 321.538 63.72H327.082ZM350.023 78.294C347.783 78.294 345.795 77.93 344.059 77.202C342.351 76.474 340.993 75.466 339.985 74.178C338.977 72.89 338.403 71.434 338.263 69.81H347.209C347.321 70.51 347.615 71.028 348.091 71.364C348.595 71.7 349.225 71.868 349.981 71.868C350.457 71.868 350.835 71.77 351.115 71.574C351.395 71.35 351.535 71.084 351.535 70.776C351.535 70.244 351.241 69.866 350.653 69.642C350.065 69.418 349.071 69.166 347.671 68.886C345.963 68.55 344.549 68.186 343.429 67.794C342.337 67.402 341.371 66.73 340.531 65.778C339.719 64.826 339.313 63.51 339.313 61.83C339.313 60.374 339.691 59.058 340.447 57.882C341.231 56.678 342.379 55.74 343.891 55.068C345.403 54.368 347.237 54.018 349.393 54.018C352.585 54.018 355.077 54.802 356.869 56.37C358.689 57.938 359.781 59.982 360.145 62.502H351.871C351.731 61.858 351.437 61.368 350.989 61.032C350.541 60.668 349.939 60.486 349.183 60.486C348.707 60.486 348.343 60.584 348.091 60.78C347.839 60.948 347.713 61.214 347.713 61.578C347.713 62.054 348.007 62.418 348.595 62.67C349.183 62.894 350.121 63.132 351.409 63.384C353.117 63.72 354.559 64.098 355.735 64.518C356.911 64.938 357.933 65.666 358.801 66.702C359.669 67.71 360.103 69.11 360.103 70.902C360.103 72.302 359.697 73.562 358.885 74.682C358.073 75.802 356.897 76.684 355.357 77.328C353.845 77.972 352.067 78.294 350.023 78.294ZM60.424 101.698V105.352H69.664V112.366H60.424V116.566H70.924V124H51.1V94.264H70.924V101.698H60.424ZM92.7499 105.814V113.5H73.1779V105.814H92.7499ZM97.3771 112.156C97.3771 109.692 97.8811 107.55 98.8891 105.73C99.9251 103.882 101.353 102.468 103.173 101.488C105.021 100.508 107.121 100.018 109.473 100.018C112.553 100.018 115.143 100.886 117.243 102.622C119.371 104.358 120.715 106.766 121.275 109.846H111.405C111.041 108.614 110.327 107.998 109.263 107.998C108.507 107.998 107.905 108.348 107.457 109.048C107.037 109.748 106.827 110.784 106.827 112.156C106.827 113.528 107.037 114.564 107.457 115.264C107.905 115.964 108.507 116.314 109.263 116.314C110.327 116.314 111.041 115.698 111.405 114.466H121.275C120.715 117.546 119.371 119.954 117.243 121.69C115.143 123.426 112.553 124.294 109.473 124.294C107.121 124.294 105.021 123.804 103.173 122.824C101.353 121.844 99.9251 120.444 98.8891 118.624C97.8811 116.776 97.3771 114.62 97.3771 112.156ZM135.487 124.294C133.107 124.294 130.965 123.804 129.061 122.824C127.157 121.844 125.659 120.444 124.567 118.624C123.503 116.776 122.971 114.62 122.971 112.156C122.971 109.692 123.503 107.55 124.567 105.73C125.659 103.882 127.157 102.468 129.061 101.488C130.965 100.508 133.107 100.018 135.487 100.018C137.867 100.018 140.009 100.508 141.913 101.488C143.817 102.468 145.301 103.882 146.365 105.73C147.457 107.55 148.003 109.692 148.003 112.156C148.003 114.62 147.457 116.776 146.365 118.624C145.301 120.444 143.817 121.844 141.913 122.824C140.009 123.804 137.867 124.294 135.487 124.294ZM135.487 116.23C136.355 116.23 137.083 115.894 137.671 115.222C138.259 114.522 138.553 113.5 138.553 112.156C138.553 110.812 138.259 109.804 137.671 109.132C137.083 108.432 136.355 108.082 135.487 108.082C134.619 108.082 133.891 108.432 133.303 109.132C132.715 109.804 132.421 110.812 132.421 112.156C132.421 113.5 132.701 114.522 133.261 115.222C133.849 115.894 134.591 116.23 135.487 116.23ZM182.558 100.144C185.582 100.144 187.92 101.054 189.572 102.874C191.252 104.694 192.092 107.158 192.092 110.266V124H182.81V111.442C182.81 110.434 182.502 109.65 181.886 109.09C181.298 108.502 180.5 108.208 179.492 108.208C178.456 108.208 177.644 108.502 177.056 109.09C176.468 109.65 176.174 110.434 176.174 111.442V124H166.892V111.442C166.892 110.434 166.584 109.65 165.968 109.09C165.38 108.502 164.582 108.208 163.574 108.208C162.538 108.208 161.726 108.502 161.138 109.09C160.55 109.65 160.256 110.434 160.256 111.442V124H150.932V100.312H160.256V103.504C160.928 102.496 161.838 101.684 162.986 101.068C164.162 100.452 165.534 100.144 167.102 100.144C168.81 100.144 170.322 100.522 171.638 101.278C172.954 102.006 174.004 103.042 174.788 104.386C175.656 103.154 176.762 102.146 178.106 101.362C179.45 100.55 180.934 100.144 182.558 100.144ZM227.757 100.144C230.781 100.144 233.119 101.054 234.771 102.874C236.451 104.694 237.291 107.158 237.291 110.266V124H228.009V111.442C228.009 110.434 227.701 109.65 227.085 109.09C226.497 108.502 225.699 108.208 224.691 108.208C223.655 108.208 222.843 108.502 222.255 109.09C221.667 109.65 221.373 110.434 221.373 111.442V124H212.091V111.442C212.091 110.434 211.783 109.65 211.167 109.09C210.579 108.502 209.781 108.208 208.773 108.208C207.737 108.208 206.925 108.502 206.337 109.09C205.749 109.65 205.455 110.434 205.455 111.442V124H196.131V100.312H205.455V103.504C206.127 102.496 207.037 101.684 208.185 101.068C209.361 100.452 210.733 100.144 212.301 100.144C214.009 100.144 215.521 100.522 216.837 101.278C218.153 102.006 219.203 103.042 219.987 104.386C220.855 103.154 221.961 102.146 223.305 101.362C224.649 100.55 226.133 100.144 227.757 100.144ZM264.262 111.946C264.262 112.59 264.22 113.206 264.136 113.794H249.142C249.282 115.838 250.136 116.86 251.704 116.86C252.712 116.86 253.44 116.398 253.888 115.474H263.758C263.422 117.154 262.708 118.666 261.616 120.01C260.552 121.326 259.194 122.376 257.542 123.16C255.918 123.916 254.126 124.294 252.166 124.294C249.814 124.294 247.714 123.804 245.866 122.824C244.046 121.844 242.618 120.444 241.582 118.624C240.574 116.776 240.07 114.62 240.07 112.156C240.07 109.692 240.574 107.55 241.582 105.73C242.618 103.882 244.046 102.468 245.866 101.488C247.714 100.508 249.814 100.018 252.166 100.018C254.518 100.018 256.604 100.508 258.424 101.488C260.272 102.44 261.7 103.812 262.708 105.604C263.744 107.396 264.262 109.51 264.262 111.946ZM254.812 109.72C254.812 108.936 254.56 108.348 254.056 107.956C253.552 107.536 252.922 107.326 252.166 107.326C250.514 107.326 249.548 108.124 249.268 109.72H254.812ZM276.535 104.68C277.487 103.308 278.649 102.216 280.021 101.404C281.393 100.564 282.821 100.144 284.305 100.144V110.098H281.659C279.895 110.098 278.593 110.406 277.753 111.022C276.941 111.638 276.535 112.73 276.535 114.298V124H267.211V100.312H276.535V104.68ZM285.557 112.156C285.557 109.692 286.061 107.55 287.069 105.73C288.105 103.882 289.533 102.468 291.353 101.488C293.201 100.508 295.301 100.018 297.653 100.018C300.733 100.018 303.323 100.886 305.423 102.622C307.551 104.358 308.895 106.766 309.455 109.846H299.585C299.221 108.614 298.507 107.998 297.443 107.998C296.687 107.998 296.085 108.348 295.637 109.048C295.217 109.748 295.007 110.784 295.007 112.156C295.007 113.528 295.217 114.564 295.637 115.264C296.085 115.964 296.687 116.314 297.443 116.314C298.507 116.314 299.221 115.698 299.585 114.466H309.455C308.895 117.546 307.551 119.954 305.423 121.69C303.323 123.426 300.733 124.294 297.653 124.294C295.301 124.294 293.201 123.804 291.353 122.824C289.533 121.844 288.105 120.444 287.069 118.624C286.061 116.776 285.557 114.62 285.557 112.156ZM335.343 111.946C335.343 112.59 335.301 113.206 335.217 113.794H320.223C320.363 115.838 321.217 116.86 322.785 116.86C323.793 116.86 324.521 116.398 324.969 115.474H334.839C334.503 117.154 333.789 118.666 332.697 120.01C331.633 121.326 330.275 122.376 328.623 123.16C326.999 123.916 325.207 124.294 323.247 124.294C320.895 124.294 318.795 123.804 316.947 122.824C315.127 121.844 313.699 120.444 312.663 118.624C311.655 116.776 311.151 114.62 311.151 112.156C311.151 109.692 311.655 107.55 312.663 105.73C313.699 103.882 315.127 102.468 316.947 101.488C318.795 100.508 320.895 100.018 323.247 100.018C325.599 100.018 327.685 100.508 329.505 101.488C331.353 102.44 332.781 103.812 333.789 105.604C334.825 107.396 335.343 109.51 335.343 111.946ZM325.893 109.72C325.893 108.936 325.641 108.348 325.137 107.956C324.633 107.536 324.003 107.326 323.247 107.326C321.595 107.326 320.629 108.124 320.349 109.72H325.893ZM75.418 150.47C75.418 152.346 74.984 154.054 74.116 155.594C73.248 157.106 71.96 158.31 70.252 159.206C68.572 160.102 66.528 160.55 64.12 160.55H60.424V170H51.1V140.264H64.12C67.76 140.264 70.546 141.188 72.478 143.036C74.438 144.884 75.418 147.362 75.418 150.47ZM63.07 153.2C65.002 153.2 65.968 152.29 65.968 150.47C65.968 148.65 65.002 147.74 63.07 147.74H60.424V153.2H63.07ZM87.6994 138.92V170H78.3754V138.92H87.6994ZM90.6505 158.156C90.6505 155.664 91.0705 153.508 91.9105 151.688C92.7785 149.84 93.9545 148.44 95.4385 147.488C96.9225 146.508 98.5885 146.018 100.437 146.018C101.977 146.018 103.307 146.34 104.427 146.984C105.547 147.6 106.401 148.454 106.989 149.546V146.312H116.271V170H106.989V166.766C106.401 167.858 105.547 168.726 104.427 169.37C103.307 169.986 101.977 170.294 100.437 170.294C98.5885 170.294 96.9225 169.818 95.4385 168.866C93.9545 167.886 92.7785 166.486 91.9105 164.666C91.0705 162.818 90.6505 160.648 90.6505 158.156ZM106.989 158.156C106.989 156.896 106.667 155.916 106.023 155.216C105.379 154.516 104.553 154.166 103.545 154.166C102.537 154.166 101.711 154.516 101.067 155.216C100.423 155.916 100.101 156.896 100.101 158.156C100.101 159.416 100.423 160.396 101.067 161.096C101.711 161.796 102.537 162.146 103.545 162.146C104.553 162.146 105.379 161.796 106.023 161.096C106.667 160.396 106.989 159.416 106.989 158.156ZM135.199 162.062V170H131.671C125.175 170 121.927 166.766 121.927 160.298V154.082H118.987V146.312H121.927V140.6H131.251V146.312H135.115V154.082H131.251V160.466C131.251 161.026 131.377 161.432 131.629 161.684C131.909 161.936 132.357 162.062 132.973 162.062H135.199ZM152.4 144.632C151.896 144.576 151.546 144.548 151.35 144.548C150.65 144.548 150.118 144.688 149.754 144.968C149.39 145.22 149.138 145.668 148.998 146.312H152.4V154.082H148.914V170H139.59V154.082H137.07V146.312H139.59C139.646 143.232 140.612 140.852 142.488 139.172C144.392 137.464 147.052 136.61 150.468 136.61C150.86 136.61 151.504 136.638 152.4 136.694V144.632ZM166.167 170.294C163.787 170.294 161.645 169.804 159.741 168.824C157.837 167.844 156.339 166.444 155.247 164.624C154.183 162.776 153.651 160.62 153.651 158.156C153.651 155.692 154.183 153.55 155.247 151.73C156.339 149.882 157.837 148.468 159.741 147.488C161.645 146.508 163.787 146.018 166.167 146.018C168.547 146.018 170.689 146.508 172.593 147.488C174.497 148.468 175.981 149.882 177.045 151.73C178.137 153.55 178.683 155.692 178.683 158.156C178.683 160.62 178.137 162.776 177.045 164.624C175.981 166.444 174.497 167.844 172.593 168.824C170.689 169.804 168.547 170.294 166.167 170.294ZM166.167 162.23C167.035 162.23 167.763 161.894 168.351 161.222C168.939 160.522 169.233 159.5 169.233 158.156C169.233 156.812 168.939 155.804 168.351 155.132C167.763 154.432 167.035 154.082 166.167 154.082C165.299 154.082 164.571 154.432 163.983 155.132C163.395 155.804 163.101 156.812 163.101 158.156C163.101 159.5 163.381 160.522 163.941 161.222C164.529 161.894 165.271 162.23 166.167 162.23ZM190.936 150.68C191.888 149.308 193.05 148.216 194.422 147.404C195.794 146.564 197.222 146.144 198.706 146.144V156.098H196.06C194.296 156.098 192.994 156.406 192.154 157.022C191.342 157.638 190.936 158.73 190.936 160.298V170H181.612V146.312H190.936V150.68ZM232.843 146.144C235.867 146.144 238.205 147.054 239.857 148.874C241.537 150.694 242.377 153.158 242.377 156.266V170H233.095V157.442C233.095 156.434 232.787 155.65 232.171 155.09C231.583 154.502 230.785 154.208 229.777 154.208C228.741 154.208 227.929 154.502 227.341 155.09C226.753 155.65 226.459 156.434 226.459 157.442V170H217.177V157.442C217.177 156.434 216.869 155.65 216.253 155.09C215.665 154.502 214.867 154.208 213.859 154.208C212.823 154.208 212.011 154.502 211.423 155.09C210.835 155.65 210.541 156.434 210.541 157.442V170H201.217V146.312H210.541V149.504C211.213 148.496 212.123 147.684 213.271 147.068C214.447 146.452 215.819 146.144 217.387 146.144C219.095 146.144 220.607 146.522 221.923 147.278C223.239 148.006 224.289 149.042 225.073 150.386C225.941 149.154 227.047 148.146 228.391 147.362C229.735 146.55 231.219 146.144 232.843 146.144Z" fill="white"/>
<g clip-path="url(#clip0_505_159)">
<path d="M239 340.569C236.127 341.43 234.35 340.606 232.755 337.786C229.176 331.471 225.225 325.445 221.413 319.308C220.921 318.514 220.411 317.735 219.775 316.748C215.263 323.917 210.757 330.744 206.529 337.846C205.017 340.384 203.429 341.489 200.606 340.591L217.569 313.78L201.778 289.565C204.494 288.942 206.372 289.261 208.035 292.125C211.709 298.448 215.761 304.466 219.8 310.833C223.864 304.489 227.866 298.463 231.646 292.2C233.165 289.662 234.797 288.697 237.525 289.632C235.459 292.86 233.436 296.036 231.401 299.19C228.653 303.442 225.956 307.746 223.108 311.91C222.093 313.394 222.257 314.358 223.165 315.761C228.433 323.917 233.638 332.154 239 340.569ZM160.019 313.334C160.473 310.655 160.775 307.924 161.405 305.297C165.186 289.394 180.687 282.782 191.337 292.637C197.575 298.418 199.125 306.566 198.816 315.754H163.655C163.125 332.235 173.201 342.187 186.043 337.111C190.549 335.33 193.202 331.174 194.531 325.98C195.206 323.375 196.321 322.967 198.4 323.709C197.335 330.21 194.922 335.642 189.881 339.04C182.319 344.131 171.525 342.484 165.848 335.412C162.495 331.256 161.071 326.083 160.441 320.496C160.347 319.605 160.151 318.729 160 317.846C160.013 316.342 160.019 314.838 160.019 313.334ZM163.718 312.229H195.495C195.288 300.311 188.986 291.843 180.372 291.769C170.92 291.68 164.127 299.947 163.718 312.229Z" fill="#36F05F"/>
</g>
<g clip-path="url(#clip1_505_159)">
<path d="M274.426 234.898C273.676 234.69 272.899 234.494 272.099 234.309C272.231 233.879 272.352 233.454 272.459 233.036C274.22 226.175 273.069 220.648 269.136 218.829C265.366 217.084 259.199 218.903 252.972 223.252C252.373 223.67 251.772 224.113 251.172 224.577C250.772 224.27 250.373 223.974 249.974 223.69C243.447 219.039 236.905 217.079 232.977 218.904C229.21 220.654 228.094 225.85 229.68 232.352C229.833 232.98 230.012 233.621 230.214 234.273C229.288 234.484 228.394 234.709 227.539 234.948C219.887 237.089 215 240.444 215 243.925C215 247.519 220.246 251.125 228.216 253.311C228.845 253.483 229.498 253.646 230.171 253.801C229.952 254.506 229.762 255.197 229.603 255.872C228.091 262.26 229.272 267.334 233.029 269.072C236.909 270.868 243.422 269.022 249.764 264.574C250.265 264.222 250.768 263.849 251.272 263.459C251.925 263.963 252.577 264.441 253.226 264.889C259.368 269.131 265.435 270.844 269.189 269.1C273.065 267.299 274.325 261.849 272.689 255.219C272.565 254.713 272.419 254.195 272.256 253.669C272.713 253.56 273.162 253.448 273.6 253.332C281.886 251.129 287.277 247.567 287.277 243.925C287.277 240.432 282.232 237.054 274.426 234.898ZM272.629 250.98C272.234 251.085 271.828 251.186 271.415 251.285C270.5 248.961 269.266 246.49 267.755 243.937C269.197 241.445 270.384 239.005 271.273 236.696C272.012 236.868 272.73 237.049 273.421 237.24C280.109 239.088 284.189 241.82 284.189 243.925C284.189 246.167 279.783 249.078 272.629 250.98ZM269.66 255.7C270.384 258.632 270.487 261.283 270.008 263.355C269.578 265.217 268.712 266.458 267.641 266.956C265.364 268.014 260.493 266.638 255.239 263.011C254.637 262.595 254.031 262.151 253.422 261.681C255.459 259.894 257.494 257.816 259.481 255.508C262.975 255.259 266.276 254.852 269.269 254.297C269.417 254.774 269.548 255.242 269.66 255.7ZM239.641 266.773C237.415 267.404 235.643 267.422 234.572 266.926C232.292 265.871 231.344 261.797 232.637 256.334C232.785 255.708 232.961 255.065 233.164 254.408C236.125 254.933 239.402 255.312 242.904 255.539C244.904 257.798 246.998 259.873 249.109 261.691C248.648 262.048 248.188 262.388 247.732 262.708C244.928 264.675 242.117 266.071 239.641 266.773ZM229.215 250.966C225.691 249.999 222.78 248.743 220.785 247.372C218.993 246.14 218.088 244.917 218.088 243.925C218.088 241.813 222.011 239.119 228.555 237.288C229.349 237.066 230.181 236.857 231.043 236.66C231.948 239.021 233.134 241.489 234.566 243.985C233.116 246.518 231.912 249.026 230.999 251.414C230.384 251.273 229.788 251.123 229.215 250.966ZM232.71 231.876C231.352 226.306 232.254 222.103 234.524 221.049C236.942 219.925 242.289 221.527 247.924 225.543C248.284 225.799 248.646 226.068 249.009 226.346C246.909 228.155 244.834 230.215 242.851 232.46C239.452 232.713 236.198 233.119 233.207 233.663C233.019 233.056 232.852 232.459 232.71 231.876ZM263.887 238.054C263.172 237.063 262.437 236.095 261.689 235.153C263.995 235.387 266.205 235.698 268.279 236.078C267.656 237.68 266.88 239.355 265.966 241.072C265.311 240.073 264.617 239.066 263.887 238.054ZM251.173 228.117C252.597 229.355 254.023 230.737 255.426 232.237C254.013 232.183 252.581 232.156 251.138 232.156C249.709 232.156 248.289 232.183 246.884 232.235C248.288 230.749 249.727 229.369 251.173 228.117ZM238.378 238.071C237.663 239.065 236.983 240.067 236.337 241.07C235.438 239.359 234.669 237.676 234.041 236.052C236.103 235.681 238.302 235.378 240.593 235.149C239.834 236.099 239.094 237.074 238.378 238.071V238.071ZM240.659 252.877C238.292 252.665 236.06 252.378 233.998 252.018C234.636 250.364 235.423 248.646 236.341 246.898C236.988 247.9 237.671 248.902 238.39 249.899H238.39C239.122 250.914 239.881 251.908 240.659 252.877ZM251.258 259.908C249.795 258.641 248.335 257.239 246.91 255.731C248.294 255.775 249.705 255.797 251.138 255.797C252.612 255.797 254.068 255.771 255.501 255.719C254.094 257.254 252.673 258.658 251.258 259.908ZM265.996 246.809C266.962 248.576 267.776 250.285 268.423 251.911C266.327 252.294 264.064 252.603 261.68 252.833C262.431 251.879 263.171 250.894 263.899 249.882C264.635 248.857 265.335 247.831 265.996 246.809ZM261.225 248.644C260.095 250.216 258.935 251.717 257.757 253.133C255.613 253.256 253.397 253.32 251.138 253.32C248.889 253.32 246.701 253.263 244.595 253.154C243.37 251.719 242.184 250.213 241.062 248.657H241.062C239.942 247.105 238.912 245.54 237.978 243.984C238.912 242.424 239.939 240.858 241.053 239.309L241.052 239.309C242.169 237.756 243.343 236.258 244.557 234.832C246.707 234.701 248.911 234.633 251.138 234.633H251.138C253.376 234.633 255.583 234.702 257.732 234.833C258.927 236.249 260.094 237.742 261.214 239.295C262.348 240.866 263.389 242.423 264.33 243.949C263.392 245.502 262.353 247.074 261.225 248.644ZM267.594 220.975C270.014 222.095 270.956 226.612 269.435 232.536C269.338 232.914 269.229 233.299 269.11 233.689C266.111 233.133 262.855 232.72 259.446 232.464C257.46 230.194 255.402 228.131 253.336 226.345C253.892 225.916 254.446 225.507 254.999 225.121C260.335 221.395 265.322 219.924 267.594 220.975ZM251.138 238.746C254.703 238.746 257.593 241.064 257.593 243.925C257.593 246.785 254.703 249.104 251.138 249.104C247.574 249.104 244.684 246.785 244.684 243.925C244.684 241.064 247.574 238.746 251.138 238.746Z" fill="#00D8FF"/>
</g>
<g clip-path="url(#clip2_505_159)">
<path d="M376.697 296.84H385.439L371.483 270.011H361.818L347.862 296.84H356.605L358.885 292.296H372.072L369.685 287.267H361.002L366.65 275.723L376.697 296.84ZM405.525 276.977C405.215 276.148 404.059 275.661 402.935 275.892C401.816 276.123 401.16 276.981 401.471 277.81C402.349 280.151 402.793 282.57 402.793 285C402.793 299.824 386.512 311.883 366.5 311.883C346.488 311.883 330.207 299.824 330.207 285C330.207 270.176 346.488 258.116 366.5 258.116C374.977 258.116 383.18 260.347 389.654 264.317C389.402 264.762 389.263 265.251 389.263 265.764C389.263 267.834 391.529 269.513 394.324 269.513C397.12 269.513 399.386 267.834 399.386 265.764C399.386 263.693 397.12 262.014 394.324 262.014C393.786 262.014 393.268 262.078 392.781 262.193C385.491 257.591 376.155 255 366.5 255C344.168 255 326 268.458 326 285C326 301.542 344.168 315 366.5 315C388.832 315 407 301.542 407 285C407 282.288 406.504 279.588 405.525 276.977Z" fill="#F1F1F1"/>
</g>
<path d="M141.962 256.746V205.511C141.962 203.992 140.843 202.761 139.462 202.761H125.33V190.979C125.33 189.459 124.211 188.229 122.83 188.229H112.056V184.363C112.056 176.443 106.199 170 99 170C91.8008 170 85.9442 176.443 85.9442 184.363V188.229H75.1703C73.7893 188.229 72.6704 189.459 72.6704 190.979V202.761H58.5375C57.1569 202.761 56.0376 203.992 56.0376 205.511V256.746C52.146 256.823 49 260.323 49 264.622V265.97C49 270.317 52.215 273.853 56.1666 273.853H141.833C145.785 273.853 149 270.317 149 265.97V264.622C149 260.323 145.854 256.823 141.962 256.746ZM75.1703 246.475H122.83C124.211 246.475 125.33 245.244 125.33 243.725V217.652H129.133V256.179H68.8671V217.651H72.6704V243.725C72.6704 245.244 73.7893 246.475 75.1703 246.475ZM136.962 208.261V256.179H134.134V214.901C134.134 213.382 133.015 212.151 131.634 212.151H125.33V208.261H136.962ZM90.9441 184.363C90.9441 179.476 94.5581 175.5 99 175.5C103.442 175.5 107.056 179.476 107.056 184.363V188.229H90.9441V184.363ZM77.6703 193.729H85.9442V198.438C85.9442 199.957 87.0632 201.188 88.4441 201.188C89.8251 201.188 90.9441 199.957 90.9441 198.438V193.729H107.056V198.438C107.056 199.957 108.175 201.188 109.556 201.188C110.937 201.188 112.056 199.957 112.056 198.438V193.729H120.33V240.975H77.6703V193.729ZM61.0375 208.261H72.6704V212.151H66.3671C64.9861 212.151 63.8671 213.382 63.8671 214.901V256.178H61.0378L61.0375 208.261ZM144 265.97C144 267.284 143.028 268.353 141.833 268.353H56.1666C54.9719 268.353 53.9999 267.284 53.9999 265.97V264.622C53.9999 263.308 54.9719 262.239 56.1666 262.239H141.833C143.028 262.239 144 263.308 144 264.622V265.97Z" fill="#FFFEFE"/>
<g clip-path="url(#clip3_505_159)">
<path fill-rule="evenodd" clip-rule="evenodd" d="M247.642 213.565C247.418 213.565 247.209 213.507 247.015 213.406L245.031 212.263C244.733 212.104 244.882 212.046 244.971 212.017C245.374 211.887 245.449 211.858 245.867 211.626C245.911 211.597 245.971 211.612 246.016 211.641L247.537 212.523C247.597 212.552 247.672 212.552 247.717 212.523L253.669 209.182C253.729 209.153 253.759 209.095 253.759 209.022V202.353C253.759 202.281 253.729 202.223 253.669 202.194L247.717 198.867C247.657 198.838 247.582 198.838 247.537 198.867L241.585 202.194C241.525 202.223 241.495 202.295 241.495 202.353V209.022C241.495 209.08 241.525 209.153 241.585 209.182L243.211 210.093C244.091 210.527 244.643 210.021 244.643 209.514V202.932C244.643 202.845 244.718 202.758 244.822 202.758H245.583C245.673 202.758 245.762 202.831 245.762 202.932V209.514C245.762 210.657 245.121 211.323 244.002 211.323C243.659 211.323 243.39 211.323 242.629 210.961L241.063 210.093C240.675 209.876 240.436 209.471 240.436 209.037V202.368C240.436 201.934 240.675 201.529 241.063 201.312L247.015 197.97C247.388 197.767 247.896 197.767 248.268 197.97L254.221 201.312C254.609 201.529 254.848 201.934 254.848 202.368V209.037C254.848 209.471 254.609 209.876 254.221 210.093L248.268 213.435C248.075 213.521 247.851 213.565 247.642 213.565ZM249.477 208.979C246.866 208.979 246.329 207.822 246.329 206.838C246.329 206.751 246.404 206.664 246.508 206.664H247.284C247.373 206.664 247.448 206.722 247.448 206.809C247.567 207.576 247.91 207.952 249.492 207.952C250.745 207.952 251.282 207.677 251.282 207.026C251.282 206.65 251.133 206.375 249.179 206.187C247.552 206.028 246.538 205.681 246.538 204.422C246.538 203.25 247.552 202.556 249.253 202.556C251.163 202.556 252.103 203.192 252.222 204.581C252.222 204.625 252.207 204.668 252.177 204.711C252.147 204.74 252.103 204.769 252.058 204.769H251.282C251.207 204.769 251.133 204.711 251.118 204.639C250.939 203.843 250.476 203.583 249.253 203.583C247.881 203.583 247.717 204.046 247.717 204.393C247.717 204.813 247.91 204.943 249.76 205.174C251.595 205.406 252.461 205.738 252.461 206.983C252.446 208.256 251.372 208.979 249.477 208.979Z" fill="#539E43"/>
<path fill-rule="evenodd" clip-rule="evenodd" d="M229.173 187.482C229.173 187.221 229.024 186.975 228.785 186.845L222.459 183.315C222.355 183.257 222.236 183.229 222.116 183.214H222.057C221.937 183.214 221.818 183.257 221.713 183.315L215.388 186.845C215.149 186.975 215 187.221 215 187.482L215.015 196.972C215.015 197.102 215.09 197.232 215.209 197.29C215.328 197.362 215.477 197.362 215.582 197.29L219.341 195.207C219.58 195.077 219.729 194.831 219.729 194.57V190.129C219.729 189.869 219.878 189.623 220.117 189.493L221.713 188.596C221.833 188.523 221.967 188.494 222.101 188.494C222.236 188.494 222.37 188.523 222.474 188.596L224.071 189.493C224.309 189.623 224.458 189.869 224.458 190.129V194.57C224.458 194.831 224.608 195.077 224.846 195.207L228.606 197.29C228.725 197.362 228.874 197.362 228.994 197.29C229.113 197.232 229.188 197.102 229.188 196.972L229.173 187.482V187.482V187.482Z" fill="white"/>
<path fill-rule="evenodd" clip-rule="evenodd" d="M259.577 174.418C259.457 174.361 259.308 174.361 259.204 174.418C259.084 174.491 259.01 174.606 259.01 174.737V184.14C259.01 184.227 258.965 184.314 258.876 184.371C258.786 184.415 258.697 184.415 258.607 184.371L257.026 183.489C256.787 183.359 256.504 183.359 256.265 183.489L249.939 187.033C249.701 187.163 249.551 187.409 249.551 187.67V194.744C249.551 195.004 249.701 195.25 249.939 195.38L256.265 198.925C256.504 199.055 256.787 199.055 257.026 198.925L263.351 195.38C263.59 195.25 263.739 195.004 263.739 194.744V177.109C263.739 176.834 263.59 176.588 263.351 176.458L259.577 174.418V174.418V174.418ZM258.995 192.415C258.995 192.487 258.965 192.545 258.905 192.574L256.742 193.789C256.682 193.818 256.608 193.818 256.548 193.789L254.385 192.574C254.325 192.545 254.296 192.473 254.296 192.415V189.984C254.296 189.912 254.325 189.854 254.385 189.825L256.548 188.61C256.608 188.581 256.682 188.581 256.742 188.61L258.905 189.825C258.965 189.854 258.995 189.927 258.995 189.984V192.415V192.415V192.415Z" fill="white"/>
<path fill-rule="evenodd" clip-rule="evenodd" d="M280.627 189.927C280.866 189.796 281 189.55 281 189.29V187.568C281 187.308 280.851 187.062 280.627 186.932L274.346 183.402C274.108 183.272 273.824 183.272 273.585 183.402L267.26 186.946C267.021 187.077 266.872 187.323 266.872 187.583V194.657C266.872 194.918 267.021 195.163 267.26 195.294L273.541 198.766C273.779 198.896 274.063 198.896 274.287 198.766L278.091 196.711C278.21 196.653 278.285 196.523 278.285 196.393C278.285 196.263 278.21 196.133 278.091 196.075L271.736 192.531C271.616 192.458 271.542 192.342 271.542 192.212V189.999C271.542 189.869 271.616 189.738 271.736 189.681L273.72 188.581C273.839 188.509 273.988 188.509 274.108 188.581L276.092 189.681C276.211 189.753 276.286 189.869 276.286 189.999V191.735C276.286 191.865 276.36 191.995 276.48 192.053C276.599 192.125 276.748 192.125 276.868 192.053L280.627 189.927V189.927V189.927Z" fill="white"/>
<path fill-rule="evenodd" clip-rule="evenodd" d="M273.869 189.594C273.914 189.565 273.973 189.565 274.018 189.594L275.226 190.274C275.271 190.303 275.301 190.346 275.301 190.404V191.764C275.301 191.822 275.271 191.865 275.226 191.894L274.018 192.574C273.973 192.603 273.914 192.603 273.869 192.574L272.66 191.894C272.616 191.865 272.586 191.822 272.586 191.764V190.404C272.586 190.346 272.616 190.303 272.66 190.274L273.869 189.594V189.594V189.594Z" fill="#539E43"/>
<path fill-rule="evenodd" clip-rule="evenodd" d="M239.75 183.431C239.511 183.301 239.228 183.301 238.989 183.431L232.708 186.946C232.47 187.077 232.335 187.323 232.335 187.583V194.628C232.335 194.889 232.485 195.134 232.708 195.265L238.989 198.78C239.228 198.91 239.511 198.91 239.75 198.78L246.031 195.265C246.269 195.134 246.404 194.889 246.404 194.628V187.583C246.404 187.323 246.255 187.077 246.031 186.946L239.75 183.431V183.431V183.431Z" fill="white"/>
<path fill-rule="evenodd" clip-rule="evenodd" d="M239.75 183.431C239.511 183.301 239.228 183.301 238.989 183.431L232.708 186.946C232.47 187.077 232.335 187.323 232.335 187.583V194.628C232.335 194.889 232.485 195.134 232.708 195.265L238.989 198.78C239.228 198.91 239.511 198.91 239.75 198.78L246.031 195.265C246.269 195.134 246.404 194.889 246.404 194.628V187.583C246.404 187.323 246.255 187.077 246.031 186.946L239.75 183.431V183.431V183.431Z" fill="url(#paint0_linear_505_159)"/>
<mask id="mask0_505_159" style="mask-type:luminance" maskUnits="userSpaceOnUse" x="232" y="183" width="15" height="16">
<path fill-rule="evenodd" clip-rule="evenodd" d="M239.75 183.431C239.511 183.301 239.228 183.301 238.989 183.431L232.708 186.946C232.47 187.077 232.335 187.323 232.335 187.583V194.628C232.335 194.889 232.485 195.134 232.708 195.265L238.989 198.78C239.228 198.91 239.511 198.91 239.75 198.78L246.031 195.265C246.269 195.134 246.404 194.889 246.404 194.628V187.583C246.404 187.323 246.255 187.077 246.031 186.946L239.75 183.431V183.431V183.431Z" fill="white"/>
</mask>
<g mask="url(#mask0_505_159)">
<path fill-rule="evenodd" clip-rule="evenodd" d="M246.046 186.946L239.735 183.431C239.676 183.402 239.601 183.373 239.541 183.359L232.47 195.106C232.53 195.178 232.604 195.236 232.679 195.279L238.989 198.795C239.168 198.896 239.377 198.925 239.571 198.867L246.21 187.091C246.165 187.033 246.105 186.99 246.046 186.946V186.946V186.946Z" fill="url(#paint1_linear_505_159)"/>
</g>
<mask id="mask1_505_159" style="mask-type:luminance" maskUnits="userSpaceOnUse" x="232" y="183" width="15" height="16">
<path fill-rule="evenodd" clip-rule="evenodd" d="M239.75 183.431C239.511 183.301 239.228 183.301 238.989 183.431L232.708 186.946C232.47 187.077 232.335 187.323 232.335 187.583V194.628C232.335 194.889 232.485 195.134 232.708 195.265L238.989 198.78C239.228 198.91 239.511 198.91 239.75 198.78L246.031 195.265C246.269 195.134 246.404 194.889 246.404 194.628V187.583C246.404 187.323 246.255 187.077 246.031 186.946L239.75 183.431V183.431V183.431Z" fill="white"/>
</mask>
<g mask="url(#mask1_505_159)">
<path fill-rule="evenodd" clip-rule="evenodd" d="M246.061 195.265C246.24 195.163 246.374 194.99 246.434 194.802L239.511 183.344C239.332 183.315 239.138 183.33 238.974 183.431L232.708 186.932L239.467 198.881C239.556 198.867 239.661 198.838 239.75 198.795L246.061 195.265V195.265V195.265Z" fill="url(#paint2_linear_505_159)"/>
<path fill-rule="evenodd" clip-rule="evenodd" d="M246.061 195.265L239.765 198.78C239.675 198.823 239.586 198.852 239.482 198.867L239.601 199.084L246.583 195.163V195.077L246.404 194.787C246.374 194.99 246.24 195.163 246.061 195.265V195.265V195.265Z" fill="url(#paint3_linear_505_159)"/>
<path fill-rule="evenodd" clip-rule="evenodd" d="M246.061 195.265L239.765 198.78C239.675 198.823 239.586 198.852 239.482 198.867L239.601 199.084L246.583 195.163V195.077L246.404 194.787C246.374 194.99 246.24 195.163 246.061 195.265V195.265V195.265Z" fill="url(#paint4_linear_505_159)"/>
</g>
</g>
<g clip-path="url(#clip4_505_159)">
<g clip-path="url(#clip5_505_159)">
<g clip-path="url(#clip6_505_159)">
<path fill-rule="evenodd" clip-rule="evenodd" d="M414.89 157.825C414.774 157.849 414.657 158.106 414.657 158.246C414.633 159.181 414.61 161.658 414.61 163.34C414.61 163.387 414.68 163.48 414.75 163.48C415.101 163.504 415.942 163.527 416.666 163.527C417.671 163.527 418.255 163.387 418.583 163.247C419.424 162.826 419.821 161.915 419.821 160.91C419.821 158.643 418.232 157.778 415.872 157.778C415.708 157.755 415.241 157.755 414.89 157.825V157.825V157.825V157.825ZM420.919 168.271C420.919 165.957 419.213 164.672 416.129 164.672C415.989 164.672 415.007 164.649 414.774 164.695C414.703 164.719 414.61 164.766 414.61 164.836C414.61 166.495 414.587 169.136 414.657 170.164C414.703 170.608 415.031 171.239 415.428 171.426C415.848 171.659 416.807 171.706 417.461 171.706C419.307 171.706 420.919 170.678 420.919 168.271V168.271V168.271V168.271ZM410.123 156.54C410.357 156.54 411.058 156.61 412.857 156.61C414.563 156.61 415.919 156.563 417.578 156.563C419.611 156.563 422.415 157.288 422.415 160.326C422.415 161.821 421.363 163.013 419.985 163.597C419.915 163.621 419.915 163.667 419.985 163.691C421.948 164.181 423.677 165.397 423.677 167.687C423.677 169.93 422.275 171.355 420.242 172.243C419.003 172.781 417.461 172.968 415.895 172.968C414.703 172.968 411.502 172.828 409.726 172.874C409.539 172.804 409.89 171.963 410.053 171.823C410.474 171.799 410.801 171.776 411.245 171.636C411.876 171.472 411.946 171.285 412.04 170.327C412.086 169.509 412.086 166.612 412.086 164.555C412.086 161.728 412.11 159.812 412.086 158.877C412.063 158.153 411.806 157.919 411.292 157.778C410.895 157.708 410.24 157.615 409.703 157.545C409.586 157.428 409.983 156.633 410.123 156.54V156.54V156.54V156.54ZM396.64 171.075C397.201 171.519 398.299 171.706 399.281 171.706C400.543 171.706 401.804 171.472 403.019 170.374C404.258 169.252 405.123 167.523 405.123 164.766C405.123 162.125 404.118 159.975 402.061 158.713C400.893 157.989 399.397 157.685 397.668 157.685C397.154 157.685 396.663 157.708 396.36 157.849C396.289 157.895 396.126 158.106 396.126 158.222C396.079 158.69 396.079 162.288 396.079 164.392C396.079 166.565 396.079 169.603 396.126 169.953C396.126 170.304 396.289 170.841 396.64 171.075V171.075V171.075V171.075ZM391.335 156.54C391.779 156.54 393.485 156.61 394.303 156.61C395.775 156.61 396.827 156.54 399.608 156.54C401.944 156.54 403.907 157.171 405.309 158.363C407.015 159.835 407.903 161.868 407.903 164.345C407.903 167.874 406.291 169.907 404.678 171.075C403.066 172.267 400.963 172.968 397.972 172.968C396.383 172.968 393.649 172.921 391.382 172.898H391.359C391.242 172.687 391.546 171.87 391.733 171.846C392.34 171.776 392.504 171.753 392.808 171.636C393.298 171.449 393.392 171.192 393.462 170.327C393.532 168.715 393.509 166.775 393.509 164.579C393.509 163.013 393.532 159.952 393.485 158.97C393.415 158.153 393.065 157.942 392.364 157.802C392.013 157.732 391.546 157.638 390.891 157.568C390.798 157.405 391.219 156.68 391.335 156.54V156.54V156.54V156.54Z" fill="#8E714E"/>
<path fill-rule="evenodd" clip-rule="evenodd" d="M363.06 171.986C362.476 171.916 362.055 171.823 361.541 171.589C361.471 171.542 361.354 171.309 361.354 171.215C361.307 170.397 361.307 168.06 361.307 166.495C361.307 165.233 361.097 164.135 360.56 163.364C359.929 162.475 359.017 161.961 357.849 161.961C356.821 161.961 355.442 162.663 354.297 163.644C354.274 163.667 354.087 163.831 354.11 163.574C354.11 163.317 354.157 162.803 354.18 162.452C354.204 162.125 354.017 161.961 354.017 161.961C353.269 162.335 351.166 162.826 350.394 162.896C349.834 163.013 349.694 163.55 350.278 163.737H350.301C350.932 163.924 351.353 164.135 351.68 164.345C351.913 164.532 351.89 164.789 351.89 164.999C351.913 166.752 351.913 169.439 351.843 170.911C351.82 171.496 351.656 171.706 351.236 171.799L351.282 171.776C350.955 171.846 350.698 171.916 350.301 171.963C350.161 172.103 350.161 172.851 350.301 173.015C350.558 173.015 351.913 172.944 353.035 172.944C354.577 172.944 355.372 173.015 355.769 173.015C355.933 172.828 355.98 172.126 355.886 171.963C355.442 171.94 355.115 171.893 354.811 171.799C354.391 171.706 354.274 171.496 354.25 171.005C354.204 169.766 354.204 167.149 354.204 165.373C354.204 164.882 354.344 164.649 354.484 164.509C355.021 164.041 355.886 163.714 356.657 163.714C357.405 163.714 357.896 163.948 358.27 164.252C358.784 164.672 358.947 165.28 359.017 165.724C359.134 166.729 359.087 168.715 359.087 170.444C359.087 171.379 359.017 171.612 358.667 171.729C358.503 171.799 358.083 171.893 357.592 171.94C357.428 172.103 357.475 172.828 357.592 172.991C358.27 172.991 359.064 172.921 360.232 172.921C361.681 172.921 362.616 172.991 362.99 172.991C363.107 172.851 363.153 172.173 363.06 171.986H363.06V171.986V171.986ZM369.533 163.06C368.294 163.06 367.523 164.018 367.523 165.513C367.523 167.032 368.201 168.785 370.117 168.785C370.444 168.785 371.052 168.645 371.332 168.318C371.776 167.897 372.08 167.056 372.08 166.168C372.08 164.228 371.122 163.06 369.533 163.06V163.06V163.06V163.06ZM369.369 173.388C368.902 173.388 368.575 173.529 368.365 173.646C367.383 174.276 366.939 174.884 366.939 175.608C366.939 176.286 367.196 176.823 367.757 177.291C368.435 177.875 369.369 178.156 370.561 178.156C372.945 178.156 373.996 176.87 373.996 175.608C373.996 174.72 373.552 174.136 372.641 173.809C371.987 173.529 370.795 173.388 369.369 173.388V173.388V173.388V173.388ZM369.533 179.464C368.108 179.464 367.079 179.16 366.191 178.483C365.327 177.828 364.953 176.847 364.953 176.169C364.953 175.982 365 175.468 365.42 175.001C365.677 174.72 366.238 174.183 367.57 173.272C367.617 173.248 367.64 173.225 367.64 173.178C367.64 173.131 367.593 173.085 367.547 173.061C366.448 172.641 366.121 171.963 366.028 171.589V171.542C366.004 171.402 365.958 171.262 366.168 171.122C366.332 171.005 366.565 170.865 366.822 170.701C367.219 170.467 367.64 170.21 367.897 170C367.944 169.953 367.944 169.907 367.944 169.86C367.944 169.813 367.897 169.766 367.85 169.743C366.215 169.205 365.397 167.99 365.397 166.168C365.397 164.976 365.934 163.901 366.892 163.223C367.547 162.709 369.182 162.078 370.257 162.078H370.328C371.426 162.102 372.033 162.335 372.898 162.639C373.365 162.803 373.809 162.873 374.417 162.873C375.328 162.873 375.726 162.592 376.053 162.265C376.076 162.312 376.123 162.429 376.146 162.733C376.17 163.036 376.076 163.48 375.842 163.808C375.655 164.064 375.235 164.252 374.814 164.252H374.697C374.277 164.205 374.09 164.158 374.09 164.158L373.996 164.205C373.973 164.252 373.996 164.298 374.02 164.368L374.043 164.415C374.09 164.625 374.183 165.256 374.183 165.42C374.183 167.336 373.412 168.177 372.594 168.808C371.8 169.392 370.888 169.766 369.86 169.86C369.837 169.86 369.743 169.86 369.533 169.883C369.416 169.883 369.253 169.907 369.229 169.907H369.206C369.019 169.953 368.552 170.187 368.552 170.584C368.552 170.935 368.762 171.355 369.767 171.426C369.977 171.449 370.187 171.449 370.421 171.472C371.753 171.566 373.412 171.683 374.183 171.94C375.258 172.337 375.936 173.295 375.936 174.44C375.936 176.169 374.697 177.782 372.641 178.786C371.636 179.23 370.631 179.464 369.533 179.464V179.464V179.464V179.464ZM382.853 163.177C382.362 163.177 381.918 163.293 381.591 163.527C380.68 164.088 380.212 165.21 380.212 166.845C380.212 169.907 381.754 172.056 383.951 172.056C384.605 172.056 385.119 171.87 385.564 171.496C386.241 170.935 386.592 169.813 386.592 168.247C386.592 165.21 385.073 163.177 382.853 163.177V163.177V163.177V163.177ZM383.274 173.178C379.301 173.178 377.875 170.257 377.875 167.523C377.875 165.607 378.647 164.135 380.189 163.083C381.287 162.405 382.596 162.032 383.764 162.032C386.802 162.032 388.929 164.205 388.929 167.336C388.929 169.463 388.087 171.145 386.475 172.173C385.704 172.687 384.372 173.178 383.273 173.178H383.274V173.178V173.178ZM341.632 163.177C341.141 163.177 340.697 163.293 340.37 163.527C339.458 164.088 338.991 165.21 338.991 166.845C338.991 169.907 340.533 172.056 342.73 172.056C343.384 172.056 343.898 171.87 344.342 171.496C345.02 170.935 345.37 169.813 345.37 168.247C345.37 165.21 343.875 163.177 341.632 163.177V163.177V163.177V163.177ZM342.052 173.178C338.08 173.178 336.654 170.257 336.654 167.523C336.654 165.607 337.425 164.135 338.967 163.083C340.066 162.405 341.374 162.032 342.543 162.032C345.581 162.032 347.707 164.205 347.707 167.336C347.707 169.463 346.866 171.145 345.253 172.173C344.506 172.687 343.174 173.178 342.052 173.178V173.178V173.178V173.178ZM315.342 172.944C315.296 172.874 315.249 172.664 315.272 172.407C315.272 172.22 315.319 172.103 315.342 172.056C315.833 171.986 316.09 171.916 316.37 171.846C316.838 171.729 317.025 171.472 317.048 170.888C317.118 169.486 317.118 166.822 317.095 164.976V164.929C317.095 164.719 317.095 164.462 316.838 164.275C316.464 164.041 316.02 163.831 315.436 163.667C315.225 163.597 315.085 163.48 315.109 163.34C315.109 163.2 315.249 163.036 315.553 162.99C316.324 162.919 318.333 162.429 319.128 162.078C319.175 162.125 319.245 162.265 319.245 162.452L319.221 162.709C319.198 162.966 319.175 163.27 319.175 163.574C319.175 163.667 319.268 163.737 319.362 163.737C319.408 163.737 319.455 163.714 319.502 163.691C320.997 162.522 322.353 162.102 323.054 162.102C324.199 162.102 325.087 162.639 325.765 163.761C325.811 163.831 325.858 163.854 325.928 163.854C325.975 163.854 326.045 163.831 326.068 163.784C327.447 162.733 328.826 162.102 329.737 162.102C331.91 162.102 333.196 163.714 333.196 166.448C333.196 167.219 333.196 168.224 333.172 169.136C333.172 169.953 333.149 170.701 333.149 171.239C333.149 171.355 333.312 171.729 333.57 171.799C333.897 171.963 334.341 172.033 334.925 172.126H334.948C334.995 172.29 334.901 172.898 334.808 173.015C334.668 173.015 334.457 173.015 334.224 172.991C333.78 172.968 333.149 172.944 332.448 172.944C330.999 172.944 330.251 172.968 329.527 173.015C329.48 172.828 329.457 172.267 329.527 172.126C329.947 172.056 330.158 171.986 330.415 171.916C330.882 171.776 330.999 171.566 331.022 170.958C331.022 170.514 331.116 166.729 330.976 165.817C330.835 164.882 330.134 163.784 328.592 163.784C328.008 163.784 327.097 164.018 326.208 164.695C326.162 164.742 326.115 164.859 326.115 164.929V164.953C326.208 165.443 326.208 166.004 326.208 166.869V168.388C326.208 169.439 326.185 170.421 326.208 171.168C326.208 171.683 326.512 171.799 326.769 171.893C326.91 171.916 327.003 171.94 327.12 171.963C327.33 172.01 327.541 172.056 327.868 172.126C327.914 172.22 327.914 172.524 327.844 172.781C327.821 172.921 327.774 172.991 327.751 173.015C326.956 172.991 326.138 172.968 324.947 172.968C324.596 172.968 323.989 172.991 323.474 172.991C323.054 172.991 322.656 173.015 322.423 173.015C322.4 172.968 322.353 172.804 322.353 172.547C322.353 172.337 322.4 172.173 322.446 172.126C322.563 172.103 322.656 172.08 322.773 172.08C323.054 172.033 323.287 171.986 323.521 171.94C323.918 171.823 324.059 171.612 324.082 171.098C324.152 169.93 324.222 166.588 324.059 165.747C323.778 164.392 323.007 163.714 321.769 163.714C321.044 163.714 320.133 164.064 319.385 164.625C319.268 164.719 319.175 164.953 319.175 165.163V166.542C319.175 168.224 319.175 170.327 319.198 171.239C319.221 171.519 319.315 171.846 319.852 171.963C319.969 171.986 320.156 172.033 320.39 172.056L320.811 172.126C320.857 172.267 320.834 172.828 320.74 173.015C320.507 173.015 320.226 172.991 319.899 172.991C319.408 172.968 318.777 172.944 318.076 172.944C317.259 172.944 316.674 172.968 316.207 172.991C315.88 172.944 315.623 172.944 315.342 172.944V172.944V172.944V172.944Z" fill="#F7F7F7"/>
<g clip-path="url(#clip7_505_159)">
<path fill-rule="evenodd" clip-rule="evenodd" d="M303.051 178.553L302.093 178.226C302.093 178.226 302.21 173.342 300.457 172.991C299.289 171.636 300.644 115.506 304.85 172.804C304.85 172.804 303.401 173.529 303.144 174.767C302.864 175.982 303.051 178.553 303.051 178.553V178.553V178.553V178.553Z" fill="white"/>
<path fill-rule="evenodd" clip-rule="evenodd" d="M303.051 178.553L302.093 178.226C302.093 178.226 302.21 173.342 300.457 172.991C299.289 171.636 300.644 115.506 304.85 172.804C304.85 172.804 303.401 173.529 303.144 174.767C302.864 175.982 303.051 178.553 303.051 178.553V178.553V178.553V178.553Z" fill="#A6A385"/>
<path fill-rule="evenodd" clip-rule="evenodd" d="M303.565 173.832C303.565 173.832 311.954 168.318 309.991 156.844C308.098 148.501 303.635 145.767 303.144 144.716C302.607 143.968 302.093 142.659 302.093 142.659L302.443 165.864C302.443 165.887 301.719 172.968 303.565 173.832" fill="white"/>
<path fill-rule="evenodd" clip-rule="evenodd" d="M303.565 173.832C303.565 173.832 311.954 168.318 309.991 156.844C308.098 148.501 303.635 145.767 303.144 144.716C302.607 143.968 302.093 142.659 302.093 142.659L302.443 165.864C302.443 165.887 301.719 172.968 303.565 173.832" fill="#499D4A"/>
<path fill-rule="evenodd" clip-rule="evenodd" d="M301.602 174.136C301.602 174.136 293.727 168.761 294.194 159.298C294.638 149.833 300.2 145.183 301.275 144.342C301.976 143.594 301.999 143.314 302.046 142.566C302.537 143.618 302.443 158.293 302.513 160.022C302.724 166.682 302.139 172.874 301.602 174.136V174.136V174.136V174.136Z" fill="white"/>
<path fill-rule="evenodd" clip-rule="evenodd" d="M301.602 174.136C301.602 174.136 293.727 168.761 294.194 159.298C294.638 149.833 300.2 145.183 301.275 144.342C301.976 143.594 301.999 143.314 302.046 142.566C302.537 143.618 302.443 158.293 302.513 160.022C302.724 166.682 302.139 172.874 301.602 174.136V174.136V174.136V174.136Z" fill="#58AA50"/>
</g>
</g>
</g>
</g>
<path d="M460.407 324.945L459.991 325.533L460.52 325.907L460.948 325.421L460.407 324.945ZM454.899 321.046L454.222 320.801L454.035 321.317L454.483 321.634L454.899 321.046ZM454.93 310.836L454.516 310.247L454.068 310.562L454.252 311.078L454.93 310.836ZM460.426 306.978L460.965 306.501L460.539 306.019L460.012 306.389L460.426 306.978ZM457.964 302.559L458.378 303.149L458.802 302.851L458.655 302.354L457.964 302.559ZM452.466 306.419L451.905 306.871L452.328 307.395L452.879 307.008L452.466 306.419ZM443.093 300.972H442.372V301.585L442.978 301.683L443.093 300.972ZM443.093 294.345L442.945 293.64L442.372 293.76V294.345H443.093ZM438.061 294.291H438.781V293.717L438.222 293.589L438.061 294.291ZM438.061 301.004L438.185 301.713L438.781 301.609V301.004H438.061ZM438.166 330.811H438.886V330.202L438.285 330.101L438.166 330.811ZM438.166 337.9L438.32 338.603L438.886 338.479V337.9H438.166ZM443.198 337.9H442.477V338.479L443.043 338.603L443.198 337.9ZM443.198 330.811L443.078 330.1L442.477 330.202V330.811H443.198ZM452.412 325.452L452.828 324.864L452.279 324.475L451.854 324.996L452.412 325.452ZM457.956 329.376L458.647 329.579L458.792 329.085L458.372 328.788L457.956 329.376ZM469.196 320.232C465.477 320.232 462.145 321.881 459.866 324.47L460.948 325.421C462.968 323.126 465.913 321.672 469.196 321.672V320.232ZM460.823 324.358L455.315 320.459L454.483 321.634L459.991 325.533L460.823 324.358ZM455.576 321.292C456.187 319.61 456.54 317.798 456.54 315.899H455.1C455.1 317.618 454.781 319.264 454.222 320.801L455.576 321.292ZM456.54 315.899C456.54 314.033 456.2 312.252 455.609 310.594L454.252 311.078C454.792 312.592 455.1 314.21 455.1 315.899H456.54ZM455.344 311.425L460.839 307.568L460.012 306.389L454.516 310.247L455.344 311.425ZM459.886 307.455C462.164 310.031 465.488 311.671 469.196 311.671V310.23C465.923 310.23 462.985 308.785 460.965 306.501L459.886 307.455ZM469.196 311.671C476.056 311.671 481.636 306.091 481.636 299.231H480.196C480.196 305.296 475.26 310.23 469.196 310.23V311.671ZM481.636 299.231C481.636 292.37 476.056 286.791 469.196 286.791V288.231C475.26 288.231 480.196 293.166 480.196 299.231H481.636ZM469.196 286.791C462.336 286.791 456.756 292.37 456.756 299.231H458.196C458.196 293.166 463.132 288.231 469.196 288.231V286.791ZM456.756 299.231C456.756 300.46 456.942 301.645 457.274 302.764L458.655 302.354C458.36 301.361 458.196 300.314 458.196 299.231H456.756ZM457.551 301.97L452.052 305.83L452.879 307.008L458.378 303.149L457.551 301.97ZM453.026 305.967C450.62 302.982 447.156 300.898 443.207 300.261L442.978 301.683C446.566 302.261 449.717 304.156 451.905 306.871L453.026 305.967ZM443.813 300.972V294.345H442.372V300.972H443.813ZM443.241 295.049C448.875 293.866 453.122 288.861 453.122 282.877H451.681C451.681 288.164 447.928 292.593 442.945 293.64L443.241 295.049ZM453.122 282.877C453.122 276.016 447.541 270.437 440.682 270.437V271.877C446.746 271.877 451.681 276.812 451.681 282.877H453.122ZM440.682 270.437C433.822 270.437 428.241 276.016 428.241 282.877H429.682C429.682 276.812 434.617 271.877 440.682 271.877V270.437ZM428.241 282.877C428.241 288.782 432.379 293.725 437.899 294.992L438.222 293.589C433.337 292.467 429.682 288.093 429.682 282.877H428.241ZM437.34 294.291V301.004H438.781V294.291H437.34ZM437.936 300.295C430.499 301.6 424.823 308.09 424.823 315.899H426.264C426.264 308.804 431.422 302.901 438.185 301.713L437.936 300.295ZM424.823 315.899C424.823 323.747 430.555 330.26 438.046 331.521L438.285 330.101C431.473 328.954 426.264 323.028 426.264 315.899H424.823ZM437.445 330.811V337.9H438.886V330.811H437.445ZM438.011 337.196C432.433 338.422 428.241 343.396 428.241 349.341H429.682C429.682 344.089 433.386 339.688 438.32 338.603L438.011 337.196ZM428.241 349.341C428.241 356.201 433.822 361.781 440.682 361.781V360.341C434.617 360.341 429.682 355.406 429.682 349.341H428.241ZM440.682 361.781C447.541 361.781 453.122 356.201 453.122 349.341H451.681C451.681 355.406 446.746 360.341 440.682 360.341V361.781ZM453.122 349.341C453.122 343.396 448.93 338.422 443.352 337.196L443.043 338.603C447.977 339.688 451.681 344.089 451.681 349.341H453.122ZM443.918 337.9V330.811H442.477V337.9H443.918ZM443.317 331.521C447.187 330.869 450.588 328.826 452.97 325.907L451.854 324.996C449.688 327.651 446.596 329.508 443.078 330.1L443.317 331.521ZM451.996 326.039L457.54 329.964L458.372 328.788L452.828 324.864L451.996 326.039ZM457.265 329.173C456.939 330.282 456.756 331.454 456.756 332.672H458.196C458.196 331.6 458.358 330.564 458.647 329.579L457.265 329.173ZM456.756 332.672C456.756 339.533 462.336 345.112 469.196 345.112V343.672C463.132 343.672 458.196 338.737 458.196 332.672H456.756ZM469.196 345.112C476.056 345.112 481.636 339.533 481.636 332.672H480.196C480.196 338.737 475.26 343.672 469.196 343.672V345.112ZM481.636 332.672C481.636 325.812 476.056 320.232 469.196 320.232V321.672C475.26 321.672 480.196 326.607 480.196 332.672H481.636ZM469.196 294.268C471.932 294.268 474.158 296.496 474.158 299.231H475.598C475.598 295.7 472.727 292.828 469.196 292.828V294.268ZM474.158 299.231C474.158 301.966 471.932 304.193 469.196 304.193V305.633C472.727 305.633 475.598 302.761 475.598 299.231H474.158ZM469.196 304.193C466.46 304.193 464.234 301.966 464.234 299.231H462.794C462.794 302.761 465.665 305.633 469.196 305.633V304.193ZM464.234 299.231C464.234 296.496 466.46 294.268 469.196 294.268V292.828C465.665 292.828 462.794 295.7 462.794 299.231H464.234ZM435.719 282.877C435.719 280.142 437.946 277.915 440.682 277.915V276.474C437.15 276.474 434.279 279.346 434.279 282.877H435.719ZM440.682 277.915C443.417 277.915 445.644 280.142 445.644 282.877H447.084C447.084 279.346 444.213 276.474 440.682 276.474V277.915ZM445.644 282.877C445.644 285.612 443.417 287.839 440.682 287.839V289.279C444.213 289.279 447.084 286.407 447.084 282.877H445.644ZM440.682 287.839C437.946 287.839 435.719 285.612 435.719 282.877H434.279C434.279 286.407 437.15 289.279 440.682 289.279V287.839ZM445.644 349.341C445.644 352.076 443.417 354.303 440.682 354.303V355.743C444.213 355.743 447.084 352.871 447.084 349.341H445.644ZM440.682 354.303C437.946 354.303 435.719 352.076 435.719 349.341H434.279C434.279 352.871 437.15 355.743 440.682 355.743V354.303ZM435.719 349.341C435.719 346.606 437.946 344.379 440.682 344.379V342.938C437.15 342.938 434.279 345.81 434.279 349.341H435.719ZM440.682 344.379C443.417 344.379 445.644 346.606 445.644 349.341H447.084C447.084 345.81 444.213 342.938 440.682 342.938V344.379ZM440.681 323.104C436.708 323.104 433.476 319.871 433.476 315.899H432.035C432.035 320.667 435.913 324.544 440.681 324.544V323.104ZM433.476 315.899C433.476 311.927 436.708 308.694 440.681 308.694V307.253C435.913 307.253 432.035 311.131 432.035 315.899H433.476ZM440.681 308.694C444.653 308.694 447.886 311.926 447.886 315.899H449.327C449.327 311.131 445.449 307.253 440.681 307.253V308.694ZM447.886 315.899C447.886 319.871 444.654 323.104 440.681 323.104V324.544C445.449 324.544 449.327 320.667 449.327 315.899H447.886ZM469.196 337.635C466.46 337.635 464.234 335.407 464.234 332.672H462.794C462.794 336.203 465.665 339.075 469.196 339.075V337.635ZM464.234 332.672C464.234 329.937 466.46 327.71 469.196 327.71V326.27C465.665 326.27 462.794 329.142 462.794 332.672H464.234ZM469.196 327.71C471.932 327.71 474.158 329.937 474.158 332.672H475.598C475.598 329.142 472.727 326.27 469.196 326.27V327.71ZM474.158 332.672C474.158 335.407 471.932 337.635 469.196 337.635V339.075C472.727 339.075 475.598 336.203 475.598 332.672H474.158Z" fill="#9B9B9B"/>
<path d="M322.566 310.687L324.076 311.781C326.703 313.9 328.214 316.292 328.542 319.027C331.367 318.48 334.979 318.89 336.555 319.984L338 320.872L337.737 321.419C337.278 322.444 337.146 322.718 337.081 322.855C334.519 327.981 329.462 328.05 327.097 327.981C321.121 342.951 308.379 351.223 291.172 351.223C283.225 351.223 277.182 348.693 273.11 343.703C267.725 337.141 267.725 328.597 268.184 325.862L268.316 325.315H315.801C318.297 325.315 320.201 324.632 321.121 324.085C320.136 322.581 319.807 320.872 319.742 319.915C319.545 317.181 320.201 314.31 321.515 312.259L322.566 310.687ZM280.663 317.113V323.948H273.439V317.113H280.663ZM289.201 317.113V323.948H281.977V317.113H289.201ZM297.739 317.113V323.948H290.515V317.113H297.739ZM306.278 317.113V323.948H299.053V317.113H306.278ZM314.816 317.113V323.948H307.591V317.113H314.816ZM306.278 308.91V315.745H299.053V308.91H306.278ZM297.739 308.91V315.745H290.515V308.91H297.739ZM289.201 308.91V315.745H281.977V308.91H289.201ZM306.278 300.707V307.543H299.053V300.707H306.278Z" fill="#2396ED"/>
<path d="M364.096 233.942C365.91 233.175 368.072 232.896 370.863 232.966C370.784 232.443 369.787 231.823 369.057 231.369C368.811 231.216 368.596 231.083 368.456 230.977C367.34 230.175 366.154 229.338 364.968 228.605C364.586 228.372 364.036 228.177 363.506 227.99C363.166 227.869 362.834 227.752 362.561 227.629C362.282 227.515 361.902 227.401 361.491 227.279C360.516 226.987 359.371 226.644 359.003 226.129C358.054 224.896 357.392 223.405 356.731 221.916C356.663 221.762 356.595 221.608 356.526 221.454C356.18 220.664 355.795 219.857 355.408 219.046C354.976 218.14 354.541 217.229 354.154 216.327C353.986 215.959 353.857 215.612 353.731 215.27C353.57 214.833 353.412 214.405 353.177 213.955C350.631 209.036 346.864 204.92 342.294 202.025C340.794 201.083 339.12 200.211 337.271 199.618C336.706 199.448 336.081 199.421 335.449 199.394C334.91 199.37 334.366 199.347 333.852 199.234H333.12C332.697 199.117 332.321 198.778 331.972 198.462C331.803 198.309 331.64 198.162 331.48 198.048C330.399 197.316 329.318 196.827 328.027 196.304C327.573 196.095 326.283 195.606 325.829 195.99C325.55 196.06 325.411 196.165 325.341 196.444C325.062 196.862 325.306 197.49 325.48 197.874C325.826 198.611 326.263 199.151 326.711 199.704C326.941 199.988 327.174 200.275 327.399 200.595C327.506 200.746 327.618 200.901 327.732 201.059C328.247 201.772 328.8 202.538 329.143 203.28C329.627 204.323 329.972 205.424 330.315 206.522C330.616 207.482 330.915 208.439 331.306 209.35C331.62 210.083 332.108 210.92 332.562 211.583C332.704 211.777 332.889 211.951 333.077 212.128C333.395 212.429 333.721 212.735 333.852 213.152C334.191 213.718 333.569 215.337 333.19 216.32C333.102 216.551 333.027 216.746 332.98 216.885C332.073 219.745 332.248 223.722 333.294 226.198C333.331 226.286 333.369 226.374 333.406 226.464C333.787 227.374 334.196 228.351 335.213 228.605C335.244 228.574 335.247 228.564 335.254 228.559C335.262 228.553 335.276 228.555 335.352 228.536C335.403 228.135 335.447 227.737 335.489 227.344C335.652 225.86 335.805 224.455 336.329 223.268C336.579 222.656 336.99 222.161 337.392 221.679C337.608 221.42 337.82 221.165 338.003 220.896C338.225 221.029 338.305 221.331 338.389 221.64C338.436 221.818 338.485 221.999 338.561 222.152C338.594 222.231 338.627 222.31 338.661 222.389C339.086 223.405 339.544 224.498 340.061 225.501C341.212 227.733 342.503 229.896 343.968 231.849C344.456 232.547 345.154 233.315 345.782 233.942C345.878 234.026 345.977 234.097 346.075 234.168C346.264 234.303 346.447 234.434 346.584 234.64H346.654V234.745C345.992 234.502 345.483 233.98 344.987 233.47C344.699 233.174 344.415 232.882 344.108 232.652C342.538 231.466 340.654 229.687 339.573 227.978C339.232 227.244 338.872 226.53 338.507 225.806C338.386 225.566 338.264 225.325 338.143 225.082C338.143 225.082 338.143 225.047 338.143 225.013C338.009 225.19 337.989 225.368 337.965 225.582C337.952 225.704 337.937 225.837 337.899 225.989C337.769 226.487 337.705 227.004 337.643 227.504C337.488 228.757 337.346 229.901 336.224 230.35C334.445 231.082 333.12 229.163 332.562 228.291C330.783 225.396 330.294 220.513 331.55 216.571C331.647 216.268 331.715 215.943 331.782 215.619C331.908 215.013 332.034 214.41 332.352 213.955C332.282 213.536 332.041 213.318 331.806 213.106C331.689 213 331.573 212.896 331.48 212.769C330.992 212.106 330.573 211.339 330.19 210.606C329.632 209.517 329.196 208.267 328.773 207.055C328.64 206.674 328.509 206.298 328.376 205.932C328.257 205.626 328.179 205.319 328.102 205.017C328.022 204.7 327.943 204.387 327.818 204.083C327.488 203.368 326.942 202.654 326.435 201.991C326.298 201.812 326.164 201.637 326.038 201.467C325.903 201.272 325.723 201.046 325.522 200.794C324.539 199.558 323.059 197.699 323.841 195.816C325.306 192.223 330.434 194.943 332.422 196.199C332.621 196.327 332.831 196.513 333.048 196.704C333.365 196.983 333.696 197.275 334.027 197.42C334.463 197.438 334.899 197.464 335.335 197.49C335.771 197.516 336.207 197.542 336.643 197.56C336.786 197.593 336.928 197.626 337.069 197.659C338.548 198.001 339.93 198.321 341.108 198.99C347.108 202.513 351.015 206.106 354.607 212.036C355.095 212.834 355.428 213.675 355.767 214.53C355.961 215.021 356.158 215.517 356.386 216.013C357.258 218.036 358.236 220.164 359.247 222.082C359.374 222.337 359.493 222.599 359.612 222.862C359.918 223.537 360.225 224.216 360.677 224.768C360.84 225.001 361.203 225.124 361.551 225.243C361.726 225.303 361.898 225.361 362.037 225.431C362.489 225.664 362.977 225.875 363.47 226.087C364.234 226.417 365.008 226.751 365.665 227.175C367.688 228.431 369.642 229.931 371.421 231.466C371.781 231.788 372.079 232.181 372.376 232.574C372.627 232.906 372.878 233.237 373.165 233.524V233.838C372.607 234.012 372.049 234.187 371.491 234.326C370.884 234.482 370.311 234.544 369.743 234.604C369.168 234.666 368.599 234.726 368.002 234.884C367.927 234.906 367.85 234.928 367.772 234.951C367.085 235.149 366.284 235.38 365.595 235.443C365.63 235.477 365.665 235.512 365.665 235.512C366.002 236.469 367.431 237.292 368.603 237.966C369.011 238.201 369.388 238.418 369.677 238.617C371.037 239.593 372.293 240.78 373.305 242.14C373.479 242.314 373.653 242.479 373.826 242.644C374.001 242.81 374.176 242.977 374.351 243.152C374.469 243.32 374.547 243.514 374.623 243.704C374.704 243.907 374.783 244.106 374.909 244.268V244.372C374.604 244.263 374.394 244.045 374.186 243.829C374.061 243.699 373.937 243.57 373.793 243.466C373.464 243.242 373.136 242.998 372.807 242.755C372.369 242.43 371.93 242.105 371.491 241.826C370.816 241.4 370.087 241.064 369.354 240.726C368.647 240.401 367.938 240.074 367.27 239.663C366.503 239.175 365.77 238.617 365.037 238.059C364.375 237.57 363.642 236.628 363.223 235.931C363.118 235.765 363.052 235.586 362.988 235.414C362.904 235.188 362.824 234.973 362.665 234.815C362.717 234.319 363.199 234.194 363.657 234.075C363.812 234.035 363.964 233.995 364.096 233.942Z" fill="#F7F7F7"/>
<path d="M333.852 202.827C334.271 202.722 334.689 202.652 335.282 202.652C335.393 202.763 335.531 202.857 335.67 202.952C335.882 203.097 336.098 203.244 336.224 203.455C336.302 203.563 336.351 203.672 336.401 203.78C336.464 203.916 336.526 204.052 336.643 204.188C336.643 205.025 336.399 205.583 335.91 205.932C335.91 205.932 335.875 205.966 335.84 206.002C335.701 205.723 335.57 205.444 335.44 205.165C335.309 204.886 335.178 204.606 335.038 204.327C334.902 204.137 334.745 203.963 334.588 203.788C334.341 203.513 334.092 203.238 333.922 202.897H333.852V202.827Z" fill="#F7F7F7"/>
<path d="M436.489 229.07C438.495 228.866 440.017 227.166 439.948 225.125C439.879 223.084 438.149 221.451 436.073 221.451H435.935C433.79 221.519 432.129 223.288 432.199 225.397C432.268 226.417 432.683 227.301 433.306 227.914C430.953 232.472 427.355 235.805 421.958 238.594C418.29 240.499 414.485 241.18 410.679 240.703C407.565 240.295 405.144 238.935 403.621 236.69C401.407 233.356 401.199 229.751 403.068 226.145C404.383 223.56 406.458 221.655 407.773 220.703C407.496 219.818 407.081 218.322 406.873 217.233C396.84 224.376 397.878 234.037 400.923 238.594C403.206 241.996 407.842 244.105 412.963 244.105C414.346 244.105 415.73 243.969 417.114 243.629C425.971 241.928 432.683 236.758 436.489 229.07V229.07ZM448.667 220.635C443.408 214.58 435.658 211.247 426.801 211.247H425.694C425.072 210.022 423.757 209.206 422.304 209.206H422.165C420.02 209.274 418.36 211.042 418.429 213.152C418.498 215.192 420.228 216.825 422.304 216.825H422.442C423.964 216.757 425.279 215.805 425.833 214.512H427.078C432.337 214.512 437.319 216.009 441.817 218.934C445.276 221.179 447.767 224.104 449.151 227.642C450.327 230.499 450.258 233.288 449.013 235.669C447.075 239.275 443.823 241.248 439.533 241.248C436.765 241.248 434.136 240.431 432.752 239.819C431.991 240.499 430.607 241.588 429.638 242.268C432.614 243.629 435.658 244.377 438.564 244.377C445.207 244.377 450.12 240.771 451.988 237.166C453.995 233.22 453.856 226.417 448.667 220.635V220.635ZM413.516 230.227C413.585 232.268 415.315 233.9 417.391 233.9H417.529C419.674 233.832 421.335 232.063 421.266 229.955C421.197 227.914 419.467 226.281 417.391 226.281H417.253C417.114 226.281 416.906 226.281 416.768 226.349C413.931 221.723 412.755 216.689 413.17 211.246C413.447 207.165 414.831 203.627 417.253 200.702C419.259 198.185 423.134 196.96 425.764 196.892C433.098 196.756 436.212 205.736 436.419 209.342C437.319 209.546 438.841 210.022 439.879 210.362C439.049 199.342 432.129 193.627 425.487 193.627C419.259 193.627 413.516 198.049 411.233 204.58C408.05 213.287 410.125 221.655 414 228.254C413.655 228.73 413.447 229.478 413.516 230.227V230.227Z" fill="#764ABC"/>
<defs>
<linearGradient id="paint0_linear_505_159" x1="238.013" y1="184.076" x2="231.571" y2="192.116" gradientUnits="userSpaceOnUse">
<stop stop-color="#41873F"/>
<stop offset="0.3288" stop-color="#418B3D"/>
<stop offset="0.6352" stop-color="#419637"/>
<stop offset="0.9319" stop-color="#3FA92D"/>
<stop offset="1" stop-color="#3FAE2A"/>
</linearGradient>
<linearGradient id="paint1_linear_505_159" x1="242.128" y1="200.727" x2="258.707" y2="193.897" gradientUnits="userSpaceOnUse">
<stop offset="0.1376" stop-color="#41873F"/>
<stop offset="0.4032" stop-color="#54A044"/>
<stop offset="0.7136" stop-color="#66B848"/>
<stop offset="0.9081" stop-color="#6CC04A"/>
</linearGradient>
<linearGradient id="paint2_linear_505_159" x1="232.106" y1="199.339" x2="246.639" y2="199.339" gradientUnits="userSpaceOnUse">
<stop offset="0.0919165" stop-color="#6CC04A"/>
<stop offset="0.2864" stop-color="#66B848"/>
<stop offset="0.5968" stop-color="#54A044"/>
<stop offset="0.8624" stop-color="#41873F"/>
</linearGradient>
<linearGradient id="paint3_linear_505_159" x1="232.106" y1="201.344" x2="246.639" y2="201.344" gradientUnits="userSpaceOnUse">
<stop offset="0.0919165" stop-color="#6CC04A"/>
<stop offset="0.2864" stop-color="#66B848"/>
<stop offset="0.5968" stop-color="#54A044"/>
<stop offset="0.8624" stop-color="#41873F"/>
</linearGradient>
<linearGradient id="paint4_linear_505_159" x1="230.608" y1="184.663" x2="229.319" y2="202.552" gradientUnits="userSpaceOnUse">
<stop stop-color="#41873F"/>
<stop offset="0.3288" stop-color="#418B3D"/>
<stop offset="0.6352" stop-color="#419637"/>
<stop offset="0.9319" stop-color="#3FA92D"/>
<stop offset="1" stop-color="#3FAE2A"/>
</linearGradient>
<clipPath id="clip0_505_159">
<rect width="126" height="128" fill="white" transform="translate(122 224)"/>
</clipPath>
<clipPath id="clip1_505_159">
<rect width="72.2769" height="58" fill="white" transform="translate(215 215)"/>
</clipPath>
<clipPath id="clip2_505_159">
<rect width="81" height="60" fill="white" transform="translate(326 255)"/>
</clipPath>
<clipPath id="clip3_505_159">
<rect width="66" height="64" fill="white" transform="translate(215 162)"/>
</clipPath>
<clipPath id="clip4_505_159">
<rect width="129.652" height="36.971" fill="white" transform="translate(294.174 142.515)"/>
</clipPath>
<clipPath id="clip5_505_159">
<rect width="129.652" height="36.971" fill="white" transform="translate(294.174 142.515)"/>
</clipPath>
<clipPath id="clip6_505_159">
<rect width="129.652" height="36.971" fill="white" transform="translate(294.174 142.515)"/>
</clipPath>
<clipPath id="clip7_505_159">
<rect width="16.2065" height="36.2113" fill="white" transform="translate(294.174 142.515)"/>
</clipPath>
</defs>
</svg>
