<svg width="581" height="384" viewBox="0 0 581 384" fill="none" xmlns="http://www.w3.org/2000/svg">
<rect width="581" height="384" fill="#001641"/>
<path d="M120.72 225.546L120.781 225.572L120.845 225.587C121.928 225.839 122.671 226.514 123.196 227.582C123.736 228.682 124.027 230.167 124.155 231.928C124.282 233.68 124.244 235.633 124.173 237.636C124.155 238.122 124.136 238.612 124.116 239.103C124.056 240.616 123.996 242.131 123.996 243.55C123.996 245.11 123.171 246.686 121.483 248.21C119.796 249.734 117.309 251.142 114.171 252.34C107.899 254.735 99.1814 256.233 89.5135 256.233C79.8455 256.233 71.128 254.735 64.8561 252.34C61.7175 251.142 59.2314 249.734 57.5437 248.21C55.856 246.686 55.0307 245.11 55.0307 243.55C55.0307 241.041 54.9513 238.85 54.8826 236.953C54.8774 236.809 54.8722 236.667 54.8671 236.526C54.7951 234.522 54.7449 232.885 54.8207 231.531C54.8967 230.173 55.0968 229.182 55.4738 228.44C55.8352 227.729 56.3842 227.198 57.2771 226.803C58.7046 226.171 60.7137 226.046 63.1993 226.283C65.666 226.519 68.4894 227.098 71.4858 227.776C72.3194 227.965 73.1668 228.161 74.0229 228.36C79.2637 229.576 84.8283 230.867 89.5135 230.867C94.2561 230.867 99.8724 229.239 105.094 227.725C105.716 227.545 106.332 227.367 106.941 227.192C109.832 226.366 112.555 225.637 114.948 225.279C117.359 224.918 119.312 224.956 120.72 225.546Z" fill="#001641" stroke="#FFB800" stroke-width="1.56596"/>
<path d="M123.996 230.084C123.996 231.644 123.171 233.221 121.483 234.744C119.796 236.268 117.309 237.676 114.171 238.874C107.899 241.269 99.1814 242.767 89.5135 242.767C79.8455 242.767 71.1281 241.269 64.8561 238.874C61.7175 237.676 59.2314 236.268 57.5438 234.744C55.856 233.221 55.0307 231.644 55.0307 230.084C55.0307 228.523 55.856 226.947 57.5438 225.424C59.2314 223.9 61.7175 222.492 64.8561 221.294C71.1281 218.899 79.8455 217.401 89.5135 217.401C99.1814 217.401 107.899 218.899 114.171 221.294C117.309 222.492 119.796 223.9 121.483 225.424C123.171 226.947 123.996 228.523 123.996 230.084Z" fill="#001641" stroke="#FFB800" stroke-width="1.56596"/>
<path d="M120.72 201.981L120.781 202.007L120.845 202.022C121.928 202.274 122.671 202.949 123.196 204.017C123.736 205.117 124.027 206.602 124.155 208.363C124.282 210.115 124.244 212.068 124.173 214.071C124.155 214.557 124.136 215.047 124.116 215.538C124.056 217.051 123.996 218.567 123.996 219.985C123.996 221.545 123.171 223.122 121.483 224.645C119.796 226.169 117.309 227.577 114.171 228.775C107.899 231.17 99.1814 232.668 89.5135 232.668C79.8455 232.668 71.128 231.17 64.8561 228.775C61.7175 227.577 59.2314 226.169 57.5437 224.645C55.856 223.122 55.0307 221.545 55.0307 219.985C55.0307 217.476 54.9513 215.285 54.8826 213.388C54.8774 213.244 54.8722 213.102 54.8671 212.961C54.7951 210.957 54.7449 209.32 54.8207 207.966C54.8967 206.609 55.0968 205.617 55.4738 204.875C55.8352 204.164 56.3842 203.633 57.2771 203.238C58.7046 202.606 60.7137 202.481 63.1993 202.719C65.666 202.954 68.4894 203.533 71.4858 204.211C72.3194 204.4 73.1668 204.596 74.0229 204.795C79.2637 206.011 84.8283 207.302 89.5135 207.302C94.2561 207.302 99.8724 205.674 105.094 204.161C105.716 203.98 106.332 203.802 106.941 203.628C109.832 202.801 112.555 202.072 114.948 201.714C117.359 201.354 119.312 201.391 120.72 201.981Z" fill="#001641" stroke="#FFB800" stroke-width="1.56596"/>
<path d="M123.996 206.519C123.996 208.08 123.171 209.656 121.483 211.18C119.796 212.703 117.309 214.111 114.171 215.31C107.899 217.704 99.1814 219.202 89.5135 219.202C79.8455 219.202 71.1281 217.704 64.8561 215.31C61.7175 214.111 59.2314 212.703 57.5438 211.18C55.856 209.656 55.0307 208.08 55.0307 206.519C55.0307 204.959 55.856 203.383 57.5438 201.859C59.2314 200.336 61.7175 198.928 64.8561 197.729C71.1281 195.334 79.8455 193.837 89.5135 193.837C99.1814 193.837 107.899 195.334 114.171 197.729C117.309 198.928 119.796 200.336 121.483 201.859C123.171 203.383 123.996 204.959 123.996 206.519Z" fill="#001641" stroke="#FFB800" stroke-width="1.56596"/>
<path d="M120.759 178.312L120.698 178.286C119.291 177.691 117.341 177.654 114.93 178.017C112.539 178.378 109.816 179.112 106.926 179.945C106.318 180.12 105.702 180.3 105.08 180.482C99.8603 182.007 94.2449 183.647 89.5027 183.647C84.8182 183.647 79.2545 182.346 74.0154 181.121C73.1596 180.921 72.3124 180.723 71.4792 180.533C68.4837 179.849 65.6614 179.266 63.196 179.029C60.7115 178.79 58.7042 178.916 57.2783 179.552M120.759 178.312L57.2783 179.552M120.759 178.312L120.824 178.327C121.905 178.581 122.648 179.261 123.174 180.339C123.715 181.448 124.005 182.947 124.133 184.722C124.26 186.487 124.223 188.456 124.151 190.474C124.134 190.964 124.115 191.458 124.095 191.952C124.035 193.477 123.975 195.003 123.975 196.432C123.975 198.009 123.147 199.599 121.46 201.134C119.773 202.67 117.288 204.088 114.151 205.295C107.881 207.708 99.1671 209.217 89.5027 209.217C79.8383 209.217 71.1242 207.708 64.8548 205.295C61.7175 204.088 59.2324 202.67 57.5451 201.134C55.8581 199.599 55.0306 198.009 55.0306 196.432C55.0306 193.905 54.9513 191.697 54.8826 189.786C54.8773 189.641 54.8722 189.497 54.8671 189.356C54.7951 187.336 54.7449 185.686 54.8207 184.321C54.8968 182.953 55.0969 181.953 55.4747 181.203C55.8369 180.485 56.3865 179.95 57.2783 179.552M120.759 178.312L57.2783 179.552" fill="#001641" stroke="#FFB800" stroke-width="1.56596"/>
<path d="M144.432 194.068C144.432 196.143 143.325 198.211 141.122 200.184C138.919 202.156 135.687 203.968 131.627 205.505C123.511 208.579 112.248 210.496 99.7673 210.496C87.2869 210.496 76.0232 208.579 67.908 205.505C63.8476 203.968 60.6158 202.156 58.413 200.184C56.2098 198.211 55.1022 196.143 55.1022 194.068C55.1022 191.992 56.2098 189.924 58.413 187.952C60.6158 185.979 63.8476 184.167 67.908 182.63C76.0232 179.556 87.2869 177.639 99.7673 177.639C112.248 177.639 123.511 179.556 131.627 182.63C135.687 184.167 138.919 185.979 141.122 187.952C143.325 189.924 144.432 191.992 144.432 194.068Z" fill="#001641" stroke="#FFB800" stroke-width="1.56596"/>
<path d="M106.429 143H133V277H63L106.429 143Z" fill="#001641"/>
<mask id="mask0_505_230" style="mask-type:alpha" maskUnits="userSpaceOnUse" x="72" y="153" width="70" height="134">
<path d="M72.5384 286.609L115.713 153.391H141.609V286.609H72.5384Z" fill="#001641" stroke="#FFB800" stroke-width="0.782979"/>
</mask>
<g mask="url(#mask0_505_230)">
</g>
<mask id="mask1_505_230" style="mask-type:alpha" maskUnits="userSpaceOnUse" x="87" y="144" width="75" height="143">
<path d="M87.9546 286.567L133.875 145.229H161.45V286.567H87.9546Z" fill="#001641" stroke="#FF0049" stroke-width="0.782979"/>
</mask>
<g mask="url(#mask1_505_230)">
<rect x="89.7177" y="206.267" width="13.623" height="54.1797" rx="3.13191" fill="#001641" stroke="#FFB800" stroke-width="1.56596"/>
<path d="M79.4833 258.95H113.575C115.305 258.95 116.707 260.352 116.707 262.082V264.122H76.3514V262.082C76.3514 260.352 77.7536 258.95 79.4833 258.95Z" fill="#001641" stroke="#FFB800" stroke-width="1.56596"/>
<rect x="49.0112" y="178.701" width="95.0356" height="66.4315" rx="3.13191" fill="#001641" stroke="#FFB800" stroke-width="1.56596"/>
<rect x="49.0112" y="178.701" width="95.0356" height="54.1797" rx="3.13191" fill="#001641" stroke="#FFB800" stroke-width="1.56596"/>
</g>
<line y1="-0.782979" x2="114.046" y2="-0.782979" transform="matrix(0.293001 -0.956112 0.954738 0.297447 81.34 271.031)" stroke="#FFB800" stroke-width="1.56596" stroke-dasharray="2.35 2.35"/>
<path d="M50.26 63.09C50.26 60.15 50.848 57.532 52.024 55.236C53.228 52.94 54.936 51.162 57.148 49.902C59.36 48.614 61.964 47.97 64.96 47.97C67.536 47.97 69.832 48.46 71.848 49.44C73.892 50.392 75.544 51.75 76.804 53.514C78.092 55.278 78.946 57.336 79.366 59.688H69.538C69.09 58.708 68.446 57.952 67.606 57.42C66.794 56.86 65.856 56.58 64.792 56.58C63.224 56.58 61.978 57.168 61.054 58.344C60.158 59.52 59.71 61.102 59.71 63.09C59.71 65.078 60.158 66.66 61.054 67.836C61.978 69.012 63.224 69.6 64.792 69.6C65.856 69.6 66.794 69.334 67.606 68.802C68.446 68.242 69.09 67.472 69.538 66.492H79.366C78.946 68.844 78.092 70.902 76.804 72.666C75.544 74.43 73.892 75.802 71.848 76.782C69.832 77.734 67.536 78.21 64.96 78.21C61.964 78.21 59.36 77.58 57.148 76.32C54.936 75.032 53.228 73.24 52.024 70.944C50.848 68.648 50.26 66.03 50.26 63.09ZM93.979 78.294C91.599 78.294 89.457 77.804 87.553 76.824C85.649 75.844 84.151 74.444 83.059 72.624C81.995 70.776 81.463 68.62 81.463 66.156C81.463 63.692 81.995 61.55 83.059 59.73C84.151 57.882 85.649 56.468 87.553 55.488C89.457 54.508 91.599 54.018 93.979 54.018C96.359 54.018 98.501 54.508 100.405 55.488C102.309 56.468 103.793 57.882 104.857 59.73C105.949 61.55 106.495 63.692 106.495 66.156C106.495 68.62 105.949 70.776 104.857 72.624C103.793 74.444 102.309 75.844 100.405 76.824C98.501 77.804 96.359 78.294 93.979 78.294ZM93.979 70.23C94.847 70.23 95.575 69.894 96.163 69.222C96.751 68.522 97.045 67.5 97.045 66.156C97.045 64.812 96.751 63.804 96.163 63.132C95.575 62.432 94.847 62.082 93.979 62.082C93.111 62.082 92.383 62.432 91.795 63.132C91.207 63.804 90.913 64.812 90.913 66.156C90.913 67.5 91.193 68.522 91.753 69.222C92.341 69.894 93.083 70.23 93.979 70.23ZM108.164 66.156C108.164 63.664 108.584 61.508 109.424 59.688C110.292 57.84 111.468 56.44 112.952 55.488C114.436 54.508 116.102 54.018 117.95 54.018C119.49 54.018 120.806 54.34 121.898 54.984C123.018 55.6 123.872 56.454 124.46 57.546V46.92H133.784V78H124.46V74.766C123.872 75.858 123.018 76.726 121.898 77.37C120.806 77.986 119.49 78.294 117.95 78.294C116.102 78.294 114.436 77.818 112.952 76.866C111.468 75.886 110.292 74.486 109.424 72.666C108.584 70.818 108.164 68.648 108.164 66.156ZM124.502 66.156C124.502 64.896 124.18 63.916 123.536 63.216C122.892 62.516 122.066 62.166 121.058 62.166C120.05 62.166 119.224 62.516 118.58 63.216C117.936 63.916 117.614 64.896 117.614 66.156C117.614 67.416 117.936 68.396 118.58 69.096C119.224 69.796 120.05 70.146 121.058 70.146C122.066 70.146 122.892 69.796 123.536 69.096C124.18 68.396 124.502 67.416 124.502 66.156ZM160.903 65.946C160.903 66.59 160.861 67.206 160.777 67.794H145.783C145.923 69.838 146.777 70.86 148.345 70.86C149.353 70.86 150.081 70.398 150.529 69.474H160.399C160.063 71.154 159.349 72.666 158.257 74.01C157.193 75.326 155.835 76.376 154.183 77.16C152.559 77.916 150.767 78.294 148.807 78.294C146.455 78.294 144.355 77.804 142.507 76.824C140.687 75.844 139.259 74.444 138.223 72.624C137.215 70.776 136.711 68.62 136.711 66.156C136.711 63.692 137.215 61.55 138.223 59.73C139.259 57.882 140.687 56.468 142.507 55.488C144.355 54.508 146.455 54.018 148.807 54.018C151.159 54.018 153.245 54.508 155.065 55.488C156.913 56.44 158.341 57.812 159.349 59.604C160.385 61.396 160.903 63.51 160.903 65.946ZM151.453 63.72C151.453 62.936 151.201 62.348 150.697 61.956C150.193 61.536 149.563 61.326 148.807 61.326C147.155 61.326 146.189 62.124 145.909 63.72H151.453ZM206.692 48.264L199.888 78H188.296L184.852 61.116L181.408 78H169.816L163.012 48.264H173.05L175.738 66.996L179.77 48.264H189.934L193.966 66.996L196.654 48.264H206.692ZM214.74 52.422C213.116 52.422 211.814 51.988 210.834 51.12C209.854 50.252 209.364 49.16 209.364 47.844C209.364 46.5 209.854 45.394 210.834 44.526C211.814 43.63 213.116 43.182 214.74 43.182C216.336 43.182 217.624 43.63 218.604 44.526C219.584 45.394 220.074 46.5 220.074 47.844C220.074 49.16 219.584 50.252 218.604 51.12C217.624 51.988 216.336 52.422 214.74 52.422ZM219.36 54.312V78H210.036V54.312H219.36ZM240.161 54.144C242.877 54.144 244.991 55.054 246.503 56.874C248.043 58.694 248.813 61.158 248.813 64.266V78H239.531V65.442C239.531 64.322 239.223 63.44 238.607 62.796C238.019 62.124 237.221 61.788 236.213 61.788C235.177 61.788 234.365 62.124 233.777 62.796C233.189 63.44 232.895 64.322 232.895 65.442V78H223.571V54.312H232.895V57.924C233.623 56.804 234.589 55.894 235.793 55.194C237.025 54.494 238.481 54.144 240.161 54.144ZM261.382 54.018C262.922 54.018 264.252 54.34 265.372 54.984C266.492 55.6 267.346 56.454 267.934 57.546V54.312H277.216V77.58C277.216 79.792 276.81 81.808 275.998 83.628C275.186 85.448 273.87 86.904 272.05 87.996C270.258 89.088 267.948 89.634 265.12 89.634C261.312 89.634 258.288 88.738 256.048 86.946C253.836 85.182 252.576 82.774 252.268 79.722H261.424C261.676 80.954 262.684 81.57 264.448 81.57C265.54 81.57 266.394 81.29 267.01 80.73C267.626 80.17 267.934 79.12 267.934 77.58V74.766C267.346 75.858 266.492 76.726 265.372 77.37C264.252 77.986 262.922 78.294 261.382 78.294C259.534 78.294 257.868 77.818 256.384 76.866C254.9 75.886 253.724 74.486 252.856 72.666C252.016 70.818 251.596 68.648 251.596 66.156C251.596 63.664 252.016 61.508 252.856 59.688C253.724 57.84 254.9 56.44 256.384 55.488C257.868 54.508 259.534 54.018 261.382 54.018ZM267.934 66.156C267.934 64.896 267.612 63.916 266.968 63.216C266.324 62.516 265.498 62.166 264.49 62.166C263.482 62.166 262.656 62.516 262.012 63.216C261.368 63.916 261.046 64.896 261.046 66.156C261.046 67.416 261.368 68.396 262.012 69.096C262.656 69.796 263.482 70.146 264.49 70.146C265.498 70.146 266.324 69.796 266.968 69.096C267.612 68.396 267.934 67.416 267.934 66.156ZM291.945 78.294C289.705 78.294 287.717 77.93 285.981 77.202C284.273 76.474 282.915 75.466 281.907 74.178C280.899 72.89 280.325 71.434 280.185 69.81H289.131C289.243 70.51 289.537 71.028 290.013 71.364C290.517 71.7 291.147 71.868 291.903 71.868C292.379 71.868 292.757 71.77 293.037 71.574C293.317 71.35 293.457 71.084 293.457 70.776C293.457 70.244 293.163 69.866 292.575 69.642C291.987 69.418 290.993 69.166 289.593 68.886C287.885 68.55 286.471 68.186 285.351 67.794C284.259 67.402 283.293 66.73 282.453 65.778C281.641 64.826 281.235 63.51 281.235 61.83C281.235 60.374 281.613 59.058 282.369 57.882C283.153 56.678 284.301 55.74 285.813 55.068C287.325 54.368 289.159 54.018 291.315 54.018C294.507 54.018 296.999 54.802 298.791 56.37C300.611 57.938 301.703 59.982 302.067 62.502H293.793C293.653 61.858 293.359 61.368 292.911 61.032C292.463 60.668 291.861 60.486 291.105 60.486C290.629 60.486 290.265 60.584 290.013 60.78C289.761 60.948 289.635 61.214 289.635 61.578C289.635 62.054 289.929 62.418 290.517 62.67C291.105 62.894 292.043 63.132 293.331 63.384C295.039 63.72 296.481 64.098 297.657 64.518C298.833 64.938 299.855 65.666 300.723 66.702C301.591 67.71 302.025 69.11 302.025 70.902C302.025 72.302 301.619 73.562 300.807 74.682C299.995 75.802 298.819 76.684 297.279 77.328C295.767 77.972 293.989 78.294 291.945 78.294ZM310.345 78.336C308.721 78.336 307.419 77.902 306.439 77.034C305.459 76.166 304.969 75.074 304.969 73.758C304.969 72.414 305.459 71.308 306.439 70.44C307.419 69.544 308.721 69.096 310.345 69.096C311.941 69.096 313.229 69.544 314.209 70.44C315.189 71.308 315.679 72.414 315.679 73.758C315.679 75.074 315.189 76.166 314.209 77.034C313.229 77.902 311.941 78.336 310.345 78.336ZM310.345 61.704C308.721 61.704 307.419 61.27 306.439 60.402C305.459 59.534 304.969 58.442 304.969 57.126C304.969 55.782 305.459 54.676 306.439 53.808C307.419 52.912 308.721 52.464 310.345 52.464C311.941 52.464 313.229 52.912 314.209 53.808C315.189 54.676 315.679 55.782 315.679 57.126C315.679 58.442 315.189 59.534 314.209 60.402C313.229 61.27 311.941 61.704 310.345 61.704ZM347.022 48.264V67.458C347.022 71.014 346.084 73.716 344.208 75.564C342.36 77.384 339.756 78.294 336.396 78.294C332.784 78.294 329.914 77.3 327.786 75.312C325.658 73.324 324.594 70.426 324.594 66.618H333.792C333.792 67.822 333.988 68.676 334.38 69.18C334.772 69.656 335.304 69.894 335.976 69.894C336.536 69.894 336.97 69.712 337.278 69.348C337.586 68.984 337.74 68.354 337.74 67.458V48.264H347.022ZM349.787 66.156C349.787 63.664 350.207 61.508 351.047 59.688C351.915 57.84 353.091 56.44 354.575 55.488C356.059 54.508 357.725 54.018 359.573 54.018C361.113 54.018 362.443 54.34 363.563 54.984C364.683 55.6 365.537 56.454 366.125 57.546V54.312H375.407V78H366.125V74.766C365.537 75.858 364.683 76.726 363.563 77.37C362.443 77.986 361.113 78.294 359.573 78.294C357.725 78.294 356.059 77.818 354.575 76.866C353.091 75.886 351.915 74.486 351.047 72.666C350.207 70.818 349.787 68.648 349.787 66.156ZM366.125 66.156C366.125 64.896 365.803 63.916 365.159 63.216C364.515 62.516 363.689 62.166 362.681 62.166C361.673 62.166 360.847 62.516 360.203 63.216C359.559 63.916 359.237 64.896 359.237 66.156C359.237 67.416 359.559 68.396 360.203 69.096C360.847 69.796 361.673 70.146 362.681 70.146C363.689 70.146 364.515 69.796 365.159 69.096C365.803 68.396 366.125 67.416 366.125 66.156ZM391.606 69.138L395.386 54.312H405.298L397.402 78H385.768L377.872 54.312H387.784L391.606 69.138ZM406.512 66.156C406.512 63.664 406.932 61.508 407.772 59.688C408.64 57.84 409.816 56.44 411.3 55.488C412.784 54.508 414.45 54.018 416.298 54.018C417.838 54.018 419.168 54.34 420.288 54.984C421.408 55.6 422.262 56.454 422.85 57.546V54.312H432.132V78H422.85V74.766C422.262 75.858 421.408 76.726 420.288 77.37C419.168 77.986 417.838 78.294 416.298 78.294C414.45 78.294 412.784 77.818 411.3 76.866C409.816 75.886 408.64 74.486 407.772 72.666C406.932 70.818 406.512 68.648 406.512 66.156ZM422.85 66.156C422.85 64.896 422.528 63.916 421.884 63.216C421.24 62.516 420.414 62.166 419.406 62.166C418.398 62.166 417.572 62.516 416.928 63.216C416.284 63.916 415.962 64.896 415.962 66.156C415.962 67.416 416.284 68.396 416.928 69.096C417.572 69.796 418.398 70.146 419.406 70.146C420.414 70.146 421.24 69.796 421.884 69.096C422.528 68.396 422.85 67.416 422.85 66.156ZM62.734 124.294C59.178 124.294 56.238 123.468 53.914 121.816C51.618 120.136 50.372 117.686 50.176 114.466H60.088C60.228 116.174 60.984 117.028 62.356 117.028C62.86 117.028 63.28 116.916 63.616 116.692C63.98 116.44 64.162 116.062 64.162 115.558C64.162 114.858 63.784 114.298 63.028 113.878C62.272 113.43 61.096 112.926 59.5 112.366C57.596 111.694 56.014 111.036 54.754 110.392C53.522 109.748 52.458 108.81 51.562 107.578C50.666 106.346 50.232 104.764 50.26 102.832C50.26 100.9 50.75 99.262 51.73 97.918C52.738 96.546 54.096 95.51 55.804 94.81C57.54 94.11 59.486 93.76 61.642 93.76C65.282 93.76 68.166 94.6 70.294 96.28C72.45 97.96 73.584 100.326 73.696 103.378H63.658C63.63 102.538 63.42 101.936 63.028 101.572C62.636 101.208 62.16 101.026 61.6 101.026C61.208 101.026 60.886 101.166 60.634 101.446C60.382 101.698 60.256 102.062 60.256 102.538C60.256 103.21 60.62 103.77 61.348 104.218C62.104 104.638 63.294 105.156 64.918 105.772C66.794 106.472 68.334 107.144 69.538 107.788C70.77 108.432 71.834 109.328 72.73 110.476C73.626 111.624 74.074 113.066 74.074 114.802C74.074 116.622 73.626 118.26 72.73 119.716C71.834 121.144 70.532 122.264 68.824 123.076C67.116 123.888 65.086 124.294 62.734 124.294ZM102.424 100.312V124H93.1V120.388C92.372 121.508 91.392 122.418 90.16 123.118C88.956 123.818 87.514 124.168 85.834 124.168C83.118 124.168 80.99 123.258 79.45 121.438C77.938 119.618 77.182 117.154 77.182 114.046V100.312H86.464V112.87C86.464 113.99 86.758 114.886 87.346 115.558C87.962 116.202 88.774 116.524 89.782 116.524C90.818 116.524 91.63 116.202 92.218 115.558C92.806 114.886 93.1 113.99 93.1 112.87V100.312H102.424ZM115.959 103.546C116.547 102.454 117.387 101.6 118.479 100.984C119.599 100.34 120.929 100.018 122.469 100.018C124.317 100.018 125.983 100.508 127.467 101.488C128.951 102.44 130.113 103.84 130.953 105.688C131.821 107.508 132.255 109.664 132.255 112.156C132.255 114.648 131.821 116.818 130.953 118.666C130.113 120.486 128.951 121.886 127.467 122.866C125.983 123.818 124.317 124.294 122.469 124.294C120.929 124.294 119.599 123.986 118.479 123.37C117.387 122.726 116.547 121.858 115.959 120.766V124H106.635V92.92H115.959V103.546ZM122.805 112.156C122.805 110.896 122.483 109.916 121.839 109.216C121.195 108.516 120.369 108.166 119.361 108.166C118.353 108.166 117.527 108.516 116.883 109.216C116.239 109.916 115.917 110.896 115.917 112.156C115.917 113.416 116.239 114.396 116.883 115.096C117.527 115.796 118.353 116.146 119.361 116.146C120.369 116.146 121.195 115.796 121.839 115.096C122.483 114.396 122.805 113.416 122.805 112.156ZM145.724 124.294C143.484 124.294 141.496 123.93 139.76 123.202C138.052 122.474 136.694 121.466 135.686 120.178C134.678 118.89 134.104 117.434 133.964 115.81H142.91C143.022 116.51 143.316 117.028 143.792 117.364C144.296 117.7 144.926 117.868 145.682 117.868C146.158 117.868 146.536 117.77 146.816 117.574C147.096 117.35 147.236 117.084 147.236 116.776C147.236 116.244 146.942 115.866 146.354 115.642C145.766 115.418 144.772 115.166 143.372 114.886C141.664 114.55 140.25 114.186 139.13 113.794C138.038 113.402 137.072 112.73 136.232 111.778C135.42 110.826 135.014 109.51 135.014 107.83C135.014 106.374 135.392 105.058 136.148 103.882C136.932 102.678 138.08 101.74 139.592 101.068C141.104 100.368 142.938 100.018 145.094 100.018C148.286 100.018 150.778 100.802 152.57 102.37C154.39 103.938 155.482 105.982 155.846 108.502H147.572C147.432 107.858 147.138 107.368 146.69 107.032C146.242 106.668 145.64 106.486 144.884 106.486C144.408 106.486 144.044 106.584 143.792 106.78C143.54 106.948 143.414 107.214 143.414 107.578C143.414 108.054 143.708 108.418 144.296 108.67C144.884 108.894 145.822 109.132 147.11 109.384C148.818 109.72 150.26 110.098 151.436 110.518C152.612 110.938 153.634 111.666 154.502 112.702C155.37 113.71 155.804 115.11 155.804 116.902C155.804 118.302 155.398 119.562 154.586 120.682C153.774 121.802 152.598 122.684 151.058 123.328C149.546 123.972 147.768 124.294 145.724 124.294ZM182.436 111.946C182.436 112.59 182.394 113.206 182.31 113.794H167.316C167.456 115.838 168.31 116.86 169.878 116.86C170.886 116.86 171.614 116.398 172.062 115.474H181.932C181.596 117.154 180.882 118.666 179.79 120.01C178.726 121.326 177.368 122.376 175.716 123.16C174.092 123.916 172.3 124.294 170.34 124.294C167.988 124.294 165.888 123.804 164.04 122.824C162.22 121.844 160.792 120.444 159.756 118.624C158.748 116.776 158.244 114.62 158.244 112.156C158.244 109.692 158.748 107.55 159.756 105.73C160.792 103.882 162.22 102.468 164.04 101.488C165.888 100.508 167.988 100.018 170.34 100.018C172.692 100.018 174.778 100.508 176.598 101.488C178.446 102.44 179.874 103.812 180.882 105.604C181.918 107.396 182.436 109.51 182.436 111.946ZM172.986 109.72C172.986 108.936 172.734 108.348 172.23 107.956C171.726 107.536 171.096 107.326 170.34 107.326C168.688 107.326 167.722 108.124 167.442 109.72H172.986ZM200.127 116.062V124H196.599C190.103 124 186.855 120.766 186.855 114.298V108.082H183.915V100.312H186.855V94.6H196.179V100.312H200.043V108.082H196.179V114.466C196.179 115.026 196.305 115.432 196.557 115.684C196.837 115.936 197.285 116.062 197.901 116.062H200.127ZM209.975 109.09C209.975 106.15 210.563 103.532 211.739 101.236C212.943 98.94 214.651 97.162 216.863 95.902C219.075 94.614 221.679 93.97 224.675 93.97C227.251 93.97 229.547 94.46 231.563 95.44C233.607 96.392 235.259 97.75 236.519 99.514C237.807 101.278 238.661 103.336 239.081 105.688H229.253C228.805 104.708 228.161 103.952 227.321 103.42C226.509 102.86 225.571 102.58 224.507 102.58C222.939 102.58 221.693 103.168 220.769 104.344C219.873 105.52 219.425 107.102 219.425 109.09C219.425 111.078 219.873 112.66 220.769 113.836C221.693 115.012 222.939 115.6 224.507 115.6C225.571 115.6 226.509 115.334 227.321 114.802C228.161 114.242 228.805 113.472 229.253 112.492H239.081C238.661 114.844 237.807 116.902 236.519 118.666C235.259 120.43 233.607 121.802 231.563 122.782C229.547 123.734 227.251 124.21 224.675 124.21C221.679 124.21 219.075 123.58 216.863 122.32C214.651 121.032 212.943 119.24 211.739 116.944C210.563 114.648 209.975 112.03 209.975 109.09ZM253.694 124.294C251.314 124.294 249.172 123.804 247.268 122.824C245.364 121.844 243.866 120.444 242.774 118.624C241.71 116.776 241.178 114.62 241.178 112.156C241.178 109.692 241.71 107.55 242.774 105.73C243.866 103.882 245.364 102.468 247.268 101.488C249.172 100.508 251.314 100.018 253.694 100.018C256.074 100.018 258.216 100.508 260.12 101.488C262.024 102.468 263.508 103.882 264.572 105.73C265.664 107.55 266.21 109.692 266.21 112.156C266.21 114.62 265.664 116.776 264.572 118.624C263.508 120.444 262.024 121.844 260.12 122.824C258.216 123.804 256.074 124.294 253.694 124.294ZM253.694 116.23C254.562 116.23 255.29 115.894 255.878 115.222C256.466 114.522 256.76 113.5 256.76 112.156C256.76 110.812 256.466 109.804 255.878 109.132C255.29 108.432 254.562 108.082 253.694 108.082C252.826 108.082 252.098 108.432 251.51 109.132C250.922 109.804 250.628 110.812 250.628 112.156C250.628 113.5 250.908 114.522 251.468 115.222C252.056 115.894 252.798 116.23 253.694 116.23ZM300.765 100.144C303.789 100.144 306.127 101.054 307.779 102.874C309.459 104.694 310.299 107.158 310.299 110.266V124H301.017V111.442C301.017 110.434 300.709 109.65 300.093 109.09C299.505 108.502 298.707 108.208 297.699 108.208C296.663 108.208 295.851 108.502 295.263 109.09C294.675 109.65 294.381 110.434 294.381 111.442V124H285.099V111.442C285.099 110.434 284.791 109.65 284.175 109.09C283.587 108.502 282.789 108.208 281.781 108.208C280.745 108.208 279.933 108.502 279.345 109.09C278.757 109.65 278.463 110.434 278.463 111.442V124H269.139V100.312H278.463V103.504C279.135 102.496 280.045 101.684 281.193 101.068C282.369 100.452 283.741 100.144 285.309 100.144C287.017 100.144 288.529 100.522 289.845 101.278C291.161 102.006 292.211 103.042 292.995 104.386C293.863 103.154 294.969 102.146 296.313 101.362C297.657 100.55 299.141 100.144 300.765 100.144ZM323.662 103.546C324.25 102.454 325.09 101.6 326.182 100.984C327.302 100.34 328.632 100.018 330.172 100.018C332.02 100.018 333.686 100.508 335.17 101.488C336.654 102.44 337.816 103.84 338.656 105.688C339.524 107.508 339.958 109.664 339.958 112.156C339.958 114.648 339.524 116.818 338.656 118.666C337.816 120.486 336.654 121.886 335.17 122.866C333.686 123.818 332.02 124.294 330.172 124.294C328.632 124.294 327.302 123.986 326.182 123.37C325.09 122.726 324.25 121.858 323.662 120.766V135.34H314.338V100.312H323.662V103.546ZM330.508 112.156C330.508 110.896 330.186 109.916 329.542 109.216C328.898 108.516 328.072 108.166 327.064 108.166C326.056 108.166 325.23 108.516 324.586 109.216C323.942 109.916 323.62 110.896 323.62 112.156C323.62 113.416 323.942 114.396 324.586 115.096C325.23 115.796 326.056 116.146 327.064 116.146C328.072 116.146 328.898 115.796 329.542 115.096C330.186 114.396 330.508 113.416 330.508 112.156ZM347.589 98.422C345.965 98.422 344.663 97.988 343.683 97.12C342.703 96.252 342.213 95.16 342.213 93.844C342.213 92.5 342.703 91.394 343.683 90.526C344.663 89.63 345.965 89.182 347.589 89.182C349.185 89.182 350.473 89.63 351.453 90.526C352.433 91.394 352.923 92.5 352.923 93.844C352.923 95.16 352.433 96.252 351.453 97.12C350.473 97.988 349.185 98.422 347.589 98.422ZM352.209 100.312V124H342.885V100.312H352.209ZM365.744 92.92V124H356.42V92.92H365.744ZM392.887 111.946C392.887 112.59 392.845 113.206 392.761 113.794H377.767C377.907 115.838 378.761 116.86 380.329 116.86C381.337 116.86 382.065 116.398 382.513 115.474H392.383C392.047 117.154 391.333 118.666 390.241 120.01C389.177 121.326 387.819 122.376 386.167 123.16C384.543 123.916 382.751 124.294 380.791 124.294C378.439 124.294 376.339 123.804 374.491 122.824C372.671 121.844 371.243 120.444 370.207 118.624C369.199 116.776 368.695 114.62 368.695 112.156C368.695 109.692 369.199 107.55 370.207 105.73C371.243 103.882 372.671 102.468 374.491 101.488C376.339 100.508 378.439 100.018 380.791 100.018C383.143 100.018 385.229 100.508 387.049 101.488C388.897 102.44 390.325 103.812 391.333 105.604C392.369 107.396 392.887 109.51 392.887 111.946ZM383.437 109.72C383.437 108.936 383.185 108.348 382.681 107.956C382.177 107.536 381.547 107.326 380.791 107.326C379.139 107.326 378.173 108.124 377.893 109.72H383.437ZM405.16 104.68C406.112 103.308 407.274 102.216 408.646 101.404C410.018 100.564 411.446 100.144 412.93 100.144V110.098H410.284C408.52 110.098 407.218 110.406 406.378 111.022C405.566 111.638 405.16 112.73 405.16 114.298V124H395.836V100.312H405.16V104.68Z" fill="white"/>
<g clip-path="url(#clip0_505_230)">
<path d="M156.587 250.903C148.441 250.903 141.04 252.192 135.56 254.293V272.237C141.04 274.338 148.441 275.627 156.587 275.627C165.911 275.627 174.258 273.938 179.865 271.277V255.253C174.258 252.592 165.911 250.903 156.587 250.903Z" fill="#A52B00"/>
<path d="M188.262 265.483L187.307 262.879C187.312 262.781 187.316 262.682 187.316 262.582C187.316 259.631 184.984 256.91 181.06 254.732V270.432C182.891 269.416 184.376 268.282 185.438 267.061C185.126 268.715 184.057 272.062 183.204 274.416C181.803 277.782 181.296 280.713 181.361 280.858C181.402 280.949 181.88 279.979 182.585 278.406C184.225 275.331 187.333 269.458 187.954 267.962C188.658 266.267 188.262 265.483 188.262 265.483Z" fill="#A52B00"/>
<path d="M126.466 262.754C126.466 263.323 126.553 263.883 126.721 264.432L126.149 265.772C126.149 265.772 125.691 266.554 126.498 268.205C127.209 269.66 130.773 275.356 132.654 278.339C133.463 279.869 134.01 280.811 134.058 280.72C134.134 280.575 133.556 277.704 131.951 274.428C131.202 272.669 130.308 270.338 129.771 268.616C131.27 269.864 133.231 270.997 135.56 271.971V253.538C129.947 255.886 126.466 259.148 126.466 262.754Z" fill="#A52B00"/>
<path d="M155.837 226.251L153.924 230.187C153.618 230.245 153.313 230.303 153.007 230.361L150.597 227.309C150.37 226.983 150.002 226.868 149.65 226.996C149.297 227.125 149.011 227.487 148.882 227.881L147.611 232.187C147.309 232.306 147.008 232.425 146.761 232.595L143.876 230.188C143.606 229.993 143.191 229.948 142.894 230.128C142.549 230.379 142.314 230.731 142.239 231.176L141.599 235.67C141.352 235.84 141.109 236.071 140.811 236.251L137.621 234.702C137.3 234.517 136.893 234.594 136.603 234.896C136.309 235.137 136.133 235.601 136.109 236.037L136.189 240.517C135.997 240.738 135.758 241.03 135.515 241.261L132.07 240.561C131.702 240.446 131.353 240.636 131.067 240.998C130.828 241.29 130.706 241.806 130.785 242.222L131.573 246.506C131.385 246.788 131.197 247.07 131.013 247.413L127.414 247.543C127.054 247.55 126.71 247.8 126.529 248.204C126.349 248.607 126.278 249.113 126.458 249.51L127.893 253.425C127.709 253.768 127.576 254.101 127.442 254.434L123.953 255.467C123.546 255.545 123.26 255.907 123.13 256.301C123.005 256.756 123.036 257.243 123.212 257.579L125.285 261.003C125.238 261.073 125.242 261.134 125.246 261.195L119.267 269.229C119.267 269.229 118.397 270.133 119.653 272.049C120.788 273.681 126.662 280.139 129.765 283.552C131.06 285.276 131.952 286.338 132.05 286.258C132.191 286.046 131.465 282.736 128.91 279.034C126.942 275.652 124.392 270.41 124.968 269.746C124.968 269.746 125.669 268.627 127.107 267.738C127.052 267.687 127.052 267.687 127.107 267.738C127.107 267.738 156.38 281.571 183.802 263.179C186.935 262.214 188.806 264.075 188.806 264.075C189.452 264.507 187.706 270.258 186.303 274.096C184.366 278.467 184.063 281.789 184.223 281.881C184.329 281.923 185.019 280.622 186.018 278.522C188.48 274.298 193.065 266.221 193.919 264.273C194.911 262.052 193.948 261.497 193.948 261.497L187.702 256.464C187.635 256.231 187.569 255.997 187.549 255.693L189.627 251.911C189.862 251.558 189.881 251.062 189.752 250.655C189.623 250.249 189.349 249.993 188.985 249.939L185.454 249.502C185.333 249.217 185.207 248.871 185.086 248.587L186.568 244.364C186.749 243.96 186.718 243.473 186.487 243.086C186.311 242.75 185.99 242.565 185.633 242.632L182.054 243.067C181.882 242.791 181.659 242.526 181.487 242.251L182.339 237.84C182.414 237.394 182.332 236.917 182.109 236.652C181.831 236.335 181.463 236.22 181.11 236.349L177.64 237.686C177.421 237.481 177.202 237.277 176.979 237.011L177.107 232.553C177.13 232.118 176.95 231.721 176.676 231.465C176.352 231.219 175.991 231.226 175.647 231.476L172.431 233.565C172.165 233.431 171.895 233.236 171.628 233.102L171.094 228.77C171.063 228.283 170.785 227.966 170.468 227.842C170.147 227.656 169.74 227.734 169.45 228.035L166.539 230.867C166.277 230.794 166.015 230.721 165.702 230.657L164.513 226.572C164.384 226.166 164.106 225.849 163.742 225.795C163.378 225.741 163.03 225.931 162.744 226.293L160.287 229.777C160.028 229.765 159.715 229.701 159.406 229.699L157.579 226.105C157.399 225.708 157.078 225.523 156.718 225.529C156.358 225.536 156.017 225.847 155.837 226.251Z" fill="url(#paint0_linear_505_230)"/>
<path d="M146.709 276.86C146.597 276.734 146.538 276.659 146.538 276.659L156.116 275.627C148.304 262.061 142.045 272.868 141.378 274.076V276.86H146.709Z" fill="black"/>
<path d="M166.651 276.713C166.763 276.588 166.821 276.513 166.821 276.513L157.617 275.627C165.433 261.504 171.315 272.721 171.982 273.93V276.713H166.651Z" fill="black"/>
<path d="M181.361 263.245C181.361 263.245 180.32 268.728 173.802 274.494L171.989 275.061C171.989 275.061 166.082 260.882 157.715 276.857C157.715 276.857 160.319 274.872 167.303 277.306C167.303 277.306 164.089 283.781 157.626 283.569C157.626 283.569 163.82 293.376 173.264 279.22C173.264 279.22 183.246 274.14 184.054 263.245L181.361 263.245Z" fill="url(#paint1_linear_505_230)"/>
<path d="M161.966 256.217C161.966 256.217 164.888 252.006 167.81 256.217C167.81 256.217 170.106 261.832 167.81 264.639C167.81 264.639 164.053 268.57 161.966 264.639C161.966 264.639 159.461 261.551 161.966 256.217Z" fill="black"/>
<path d="M165.349 257.779C165.349 259.419 164.614 260.748 163.709 260.748C162.803 260.748 162.069 259.419 162.069 257.779C162.069 256.139 162.803 254.81 163.709 254.81C164.614 254.81 165.349 256.139 165.349 257.779Z" fill="white"/>
<path d="M148.924 255.067C148.924 255.067 153.937 252.146 155.305 258.666C155.305 258.666 156.738 266.265 151.188 266.694C151.188 266.694 144.112 264.9 148.924 255.067Z" fill="black"/>
<path d="M151.442 257.887C151.442 259.578 150.684 260.949 149.75 260.949C148.816 260.949 148.059 259.578 148.059 257.887C148.059 256.195 148.816 254.824 149.75 254.824C150.684 254.824 151.442 256.195 151.442 257.887Z" fill="white"/>
<path d="M141.401 280.106C150.555 295.558 154.891 283.15 154.891 283.15C149.752 282.389 146.106 277.886 146.106 277.886C152.273 276.851 155.839 276.766 155.839 276.766C147.584 262.434 140.887 275.413 140.887 275.413C139.216 274.61 137.498 271.545 136.229 268.712L131.106 266.725C137 279.916 141.401 280.106 141.401 280.106Z" fill="url(#paint2_linear_505_230)"/>
</g>
<path fill-rule="evenodd" clip-rule="evenodd" d="M244.358 205.302L240.105 154H286.838L282.581 205.294L263.443 211L244.358 205.302Z" fill="#E44D26"/>
<path fill-rule="evenodd" clip-rule="evenodd" d="M263.472 206.639L278.936 202.028L282.574 158.195H263.472V206.639Z" fill="#F16529"/>
<path d="M255.73 177.222H263.472V183.514H250.38L248.802 164.487H263.472V170.779H255.195L255.73 177.222Z" fill="#EBEBEB"/>
<path d="M263.446 193.57L263.472 193.563V200.109L263.445 200.117L251.461 196.539L250.641 186.66H256.514L256.93 191.678L263.446 193.57Z" fill="#EBEBEB"/>
<path d="M263.452 164.487H278.107L277.583 170.779H263.452V164.487Z" fill="white"/>
<path d="M263.452 183.514V177.222H277.051L276.908 178.911L275.445 196.539L263.452 200.114V193.568L269.977 191.674L270.656 183.514H263.452Z" fill="white"/>
<path fill-rule="evenodd" clip-rule="evenodd" d="M307.497 206.202L303.164 154H350.78L346.443 206.193L326.943 212L307.497 206.202Z" fill="#0071BC"/>
<path fill-rule="evenodd" clip-rule="evenodd" d="M327.012 207.559L342.749 202.909L346.436 158.347H327.012V207.559Z" fill="#29ABE2"/>
<path fill-rule="evenodd" clip-rule="evenodd" d="M313.083 177.526L313.605 183.919L327.012 177.526V171.123L313.083 177.526Z" fill="#B3B3B3"/>
<path fill-rule="evenodd" clip-rule="evenodd" d="M341.861 164.288L327.012 171.123V177.526L341.349 170.68L341.861 164.288Z" fill="#E6E6E6"/>
<path fill-rule="evenodd" clip-rule="evenodd" d="M327.012 194.253L326.966 194.26L320.317 192.343L319.883 187.243H313.899L314.734 197.289L326.965 200.927L327.012 200.915V194.253Z" fill="#E6E6E6"/>
<path fill-rule="evenodd" clip-rule="evenodd" d="M327.012 177.526V183.919H334.292L333.63 192.277L327.012 194.259V200.92L339.203 197.282L340.808 177.526H327.012Z" fill="white"/>
<path fill-rule="evenodd" clip-rule="evenodd" d="M327.012 177.526H313.083L313.605 183.919H327.012V177.526Z" fill="#E6E6E6"/>
<path fill-rule="evenodd" clip-rule="evenodd" d="M327.012 170.68V164.288H326.952H312.025L312.553 170.68H327.012Z" fill="#E6E6E6"/>
<path fill-rule="evenodd" clip-rule="evenodd" d="M327.012 164.288V170.6V170.68H341.349L341.861 164.288H327.012Z" fill="white"/>
<g clip-path="url(#clip1_505_230)">
<path d="M441.493 182.604L438.386 180.707C438.36 180.409 438.331 180.111 438.298 179.815L440.968 177.358C441.239 177.109 441.361 176.739 441.287 176.381C441.216 176.022 440.961 175.726 440.614 175.599L437.201 174.34C437.115 174.048 437.025 173.759 436.934 173.471L439.062 170.554C439.279 170.257 439.324 169.872 439.183 169.533C439.041 169.197 438.732 168.955 438.367 168.896L434.768 168.318C434.628 168.049 434.482 167.784 434.335 167.521L435.848 164.247C436.002 163.913 435.971 163.526 435.764 163.223C435.558 162.919 435.21 162.741 434.838 162.755L431.186 162.88C430.997 162.647 430.804 162.417 430.609 162.19L431.448 158.68C431.533 158.324 431.426 157.951 431.163 157.692C430.902 157.434 430.523 157.327 430.162 157.411L426.605 158.238C426.374 158.046 426.14 157.855 425.903 157.669L426.031 154.066C426.046 153.701 425.865 153.355 425.557 153.152C425.248 152.949 424.857 152.918 424.52 153.069L421.201 154.562C420.933 154.417 420.665 154.273 420.393 154.134L419.806 150.584C419.747 150.224 419.502 149.918 419.16 149.779C418.819 149.638 418.427 149.684 418.126 149.897L415.168 151.997C414.876 151.906 414.584 151.818 414.288 151.734L413.012 148.367C412.882 148.024 412.583 147.772 412.219 147.701C411.855 147.631 411.481 147.75 411.229 148.016L408.739 150.652C408.438 150.619 408.136 150.589 407.834 150.565L405.911 147.499C405.716 147.189 405.372 147 405.001 147C404.631 147 404.287 147.189 404.093 147.499L402.17 150.565C401.867 150.589 401.565 150.619 401.264 150.652L398.773 148.016C398.521 147.75 398.146 147.631 397.784 147.701C397.419 147.773 397.12 148.024 396.99 148.367L395.714 151.734C395.419 151.818 395.126 151.907 394.834 151.997L391.876 149.897C391.575 149.683 391.184 149.638 390.841 149.779C390.5 149.918 390.255 150.224 390.195 150.584L389.608 154.134C389.337 154.273 389.068 154.416 388.8 154.562L385.482 153.069C385.144 152.917 384.751 152.949 384.444 153.152C384.136 153.355 383.956 153.701 383.97 154.066L384.097 157.669C383.861 157.855 383.627 158.046 383.396 158.238L379.839 157.411C379.478 157.328 379.099 157.434 378.837 157.692C378.574 157.951 378.467 158.324 378.552 158.68L379.39 162.19C379.196 162.417 379.003 162.647 378.814 162.88L375.162 162.755C374.794 162.744 374.442 162.919 374.236 163.223C374.029 163.526 373.998 163.913 374.152 164.247L375.665 167.521C375.518 167.784 375.372 168.049 375.231 168.318L371.633 168.896C371.267 168.955 370.959 169.196 370.817 169.533C370.675 169.872 370.721 170.257 370.937 170.554L373.066 173.471C372.973 173.759 372.883 174.048 372.798 174.34L369.385 175.599C369.039 175.726 368.783 176.022 368.711 176.381C368.639 176.74 368.76 177.109 369.031 177.358L371.701 179.815C371.668 180.111 371.638 180.41 371.613 180.707L368.506 182.604C368.192 182.796 368 183.135 368 183.501C368 183.868 368.192 184.207 368.506 184.398L371.613 186.295C371.638 186.593 371.668 186.891 371.701 187.187L369.031 189.645C368.76 189.894 368.639 190.263 368.711 190.621C368.783 190.98 369.039 191.275 369.385 191.404L372.798 192.662C372.883 192.954 372.973 193.243 373.066 193.532L370.937 196.449C370.721 196.746 370.675 197.132 370.817 197.469C370.959 197.807 371.268 198.048 371.633 198.106L375.231 198.684C375.372 198.953 375.516 199.218 375.665 199.482L374.152 202.755C373.998 203.088 374.029 203.475 374.236 203.779C374.442 204.084 374.794 204.262 375.162 204.247L378.813 204.121C379.003 204.355 379.195 204.585 379.39 204.813L378.552 208.323C378.467 208.679 378.574 209.051 378.837 209.309C379.098 209.57 379.478 209.673 379.839 209.59L383.396 208.763C383.627 208.957 383.861 209.145 384.097 209.331L383.97 212.935C383.956 213.3 384.136 213.645 384.444 213.849C384.751 214.052 385.144 214.083 385.482 213.931L388.8 212.439C389.068 212.585 389.336 212.728 389.608 212.866L390.195 216.415C390.255 216.776 390.499 217.082 390.841 217.221C391.183 217.361 391.575 217.315 391.876 217.103L394.832 215.001C395.124 215.093 395.418 215.182 395.713 215.266L396.99 218.632C397.119 218.973 397.419 219.227 397.783 219.296C398.146 219.369 398.52 219.249 398.773 218.981L401.263 216.347C401.564 216.381 401.867 216.409 402.169 216.436L404.092 219.501C404.286 219.81 404.63 220 405.001 220C405.371 220 405.715 219.81 405.91 219.501L407.833 216.436C408.136 216.409 408.437 216.381 408.738 216.347L411.228 218.981C411.48 219.249 411.855 219.369 412.218 219.296C412.582 219.226 412.882 218.973 413.011 218.632L414.287 215.266C414.583 215.182 414.876 215.093 415.168 215.001L418.126 217.103C418.426 217.315 418.818 217.361 419.159 217.221C419.501 217.082 419.746 216.776 419.806 216.415L420.392 212.866C420.664 212.728 420.932 212.583 421.2 212.439L424.519 213.931C424.856 214.083 425.249 214.052 425.556 213.849C425.865 213.645 426.044 213.3 426.031 212.935L425.903 209.331C426.14 209.145 426.374 208.957 426.604 208.763L430.161 209.59C430.522 209.673 430.901 209.57 431.162 209.309C431.425 209.051 431.532 208.679 431.447 208.323L430.609 204.813C430.804 204.585 430.997 204.355 431.185 204.121L434.837 204.247C435.206 204.262 435.558 204.084 435.763 203.779C435.97 203.475 436.002 203.088 435.847 202.755L434.335 199.482C434.482 199.218 434.627 198.953 434.767 198.684L438.366 198.106C438.732 198.048 439.04 197.807 439.182 197.469C439.323 197.132 439.279 196.746 439.062 196.449L436.933 193.532C437.025 193.243 437.115 192.954 437.2 192.662L440.613 191.404C440.96 191.275 441.216 190.98 441.287 190.621C441.36 190.263 441.239 189.894 440.967 189.645L438.297 187.187C438.33 186.891 438.36 186.593 438.386 186.295L441.492 184.398C441.807 184.207 441.999 183.867 441.999 183.501C441.999 183.136 441.808 182.796 441.493 182.604ZM420.701 208.027C419.514 207.775 418.76 206.621 419.014 205.448C419.268 204.275 420.437 203.529 421.623 203.781C422.809 204.032 423.565 205.187 423.31 206.359C423.056 207.531 421.886 208.278 420.701 208.027ZM419.645 200.985C418.563 200.756 417.498 201.435 417.266 202.505L416.163 207.582C412.759 209.106 408.98 209.953 404.999 209.953C400.928 209.953 397.066 209.065 393.602 207.476L392.499 202.398C392.267 201.33 391.203 200.649 390.121 200.879L385.577 201.841C384.734 200.985 383.949 200.072 383.228 199.109H405.337C405.588 199.109 405.754 199.064 405.754 198.84V191.125C405.754 190.9 405.588 190.855 405.337 190.855H398.871V185.965H405.865C406.503 185.965 409.278 186.145 410.165 189.644C410.443 190.72 411.053 194.221 411.471 195.341C411.886 196.598 413.579 199.109 415.382 199.109H426.4C426.525 199.109 426.659 199.095 426.799 199.07C426.035 200.095 425.196 201.064 424.294 201.97L419.645 200.985ZM389.065 207.921C387.879 208.174 386.711 207.428 386.456 206.255C386.202 205.081 386.956 203.928 388.143 203.675C389.329 203.425 390.498 204.171 390.752 205.344C391.006 206.515 390.251 207.67 389.065 207.921ZM380.678 174.37C381.17 175.466 380.67 176.75 379.56 177.235C378.451 177.721 377.153 177.226 376.661 176.13C376.169 175.034 376.669 173.752 377.779 173.266C378.889 172.78 380.186 173.274 380.678 174.37ZM378.1 180.398L382.834 178.323C383.845 177.881 384.302 176.712 383.853 175.712L382.878 173.538H386.712V190.586H378.976C378.305 188.259 377.946 185.804 377.946 183.266C377.946 182.297 377.999 181.339 378.1 180.398ZM398.872 178.743V173.717H408.003C408.474 173.717 411.333 174.255 411.333 176.364C411.333 178.114 409.14 178.742 407.337 178.742H398.872V178.743ZM432.054 183.266C432.054 183.932 432.029 184.592 431.98 185.247H429.204C428.926 185.247 428.814 185.427 428.814 185.696V186.953C428.814 189.913 427.122 190.557 425.64 190.721C424.228 190.878 422.663 190.138 422.47 189.285C421.637 184.664 420.249 183.677 418.057 181.972C420.777 180.268 423.607 177.754 423.607 174.39C423.607 170.757 421.082 168.468 419.362 167.346C416.947 165.776 414.274 165.462 413.553 165.462H384.846C388.739 161.176 394.014 158.14 399.982 157.035L403.365 160.537C404.13 161.327 405.397 161.356 406.198 160.601L409.984 157.029C417.917 158.486 424.634 163.357 428.505 170.041L425.913 175.816C425.465 176.816 425.922 177.985 426.932 178.427L431.922 180.614C432.009 181.488 432.054 182.371 432.054 183.266ZM403.367 154.056C404.243 153.228 405.634 153.26 406.473 154.127C407.311 154.995 407.279 156.368 406.401 157.196C405.524 158.025 404.133 157.993 403.294 157.125C402.457 156.258 402.489 154.885 403.367 154.056ZM429.088 174.476C429.579 173.38 430.877 172.885 431.987 173.372C433.096 173.857 433.596 175.14 433.104 176.236C432.613 177.332 431.315 177.827 430.205 177.341C429.097 176.855 428.596 175.573 429.088 174.476Z" fill="#EEECEC"/>
</g>
<rect width="581" height="384" fill="#001641"/>
<path d="M79.618 78H70.294L60.424 63.048V78H51.1V48.264H60.424L70.294 63.468V48.264H79.618V78ZM95.0865 78.294C92.7065 78.294 90.5645 77.804 88.6605 76.824C86.7565 75.844 85.2585 74.444 84.1665 72.624C83.1025 70.776 82.5705 68.62 82.5705 66.156C82.5705 63.692 83.1025 61.55 84.1665 59.73C85.2585 57.882 86.7565 56.468 88.6605 55.488C90.5645 54.508 92.7065 54.018 95.0865 54.018C97.4665 54.018 99.6085 54.508 101.512 55.488C103.416 56.468 104.9 57.882 105.964 59.73C107.056 61.55 107.602 63.692 107.602 66.156C107.602 68.62 107.056 70.776 105.964 72.624C104.9 74.444 103.416 75.844 101.512 76.824C99.6085 77.804 97.4665 78.294 95.0865 78.294ZM95.0865 70.23C95.9545 70.23 96.6825 69.894 97.2705 69.222C97.8585 68.522 98.1525 67.5 98.1525 66.156C98.1525 64.812 97.8585 63.804 97.2705 63.132C96.6825 62.432 95.9545 62.082 95.0865 62.082C94.2185 62.082 93.4905 62.432 92.9025 63.132C92.3145 63.804 92.0205 64.812 92.0205 66.156C92.0205 67.5 92.3005 68.522 92.8605 69.222C93.4485 69.894 94.1905 70.23 95.0865 70.23ZM125.274 70.062V78H121.746C115.25 78 112.002 74.766 112.002 68.298V62.082H109.062V54.312H112.002V48.6H121.326V54.312H125.19V62.082H121.326V68.466C121.326 69.026 121.452 69.432 121.704 69.684C121.984 69.936 122.432 70.062 123.048 70.062H125.274ZM151.757 65.946C151.757 66.59 151.715 67.206 151.631 67.794H136.637C136.777 69.838 137.631 70.86 139.199 70.86C140.207 70.86 140.935 70.398 141.383 69.474H151.253C150.917 71.154 150.203 72.666 149.111 74.01C148.047 75.326 146.689 76.376 145.037 77.16C143.413 77.916 141.621 78.294 139.661 78.294C137.309 78.294 135.209 77.804 133.361 76.824C131.541 75.844 130.113 74.444 129.077 72.624C128.069 70.776 127.565 68.62 127.565 66.156C127.565 63.692 128.069 61.55 129.077 59.73C130.113 57.882 131.541 56.468 133.361 55.488C135.209 54.508 137.309 54.018 139.661 54.018C142.013 54.018 144.099 54.508 145.919 55.488C147.767 56.44 149.195 57.812 150.203 59.604C151.239 61.396 151.757 63.51 151.757 65.946ZM142.307 63.72C142.307 62.936 142.055 62.348 141.551 61.956C141.047 61.536 140.417 61.326 139.661 61.326C138.009 61.326 137.043 62.124 136.763 63.72H142.307ZM165.037 70.566H176.965V78H154.705V70.986L166.465 55.656H154.705V48.264H176.965V55.278L165.037 70.566ZM179.901 66.156C179.901 63.664 180.321 61.508 181.161 59.688C182.029 57.84 183.205 56.44 184.689 55.488C186.173 54.508 187.839 54.018 189.687 54.018C191.227 54.018 192.557 54.34 193.677 54.984C194.797 55.6 195.651 56.454 196.239 57.546V54.312H205.521V78H196.239V74.766C195.651 75.858 194.797 76.726 193.677 77.37C192.557 77.986 191.227 78.294 189.687 78.294C187.839 78.294 186.173 77.818 184.689 76.866C183.205 75.886 182.029 74.486 181.161 72.666C180.321 70.818 179.901 68.648 179.901 66.156ZM196.239 66.156C196.239 64.896 195.917 63.916 195.273 63.216C194.629 62.516 193.803 62.166 192.795 62.166C191.787 62.166 190.961 62.516 190.317 63.216C189.673 63.916 189.351 64.896 189.351 66.156C189.351 67.416 189.673 68.396 190.317 69.096C190.961 69.796 191.787 70.146 192.795 70.146C193.803 70.146 194.629 69.796 195.273 69.096C195.917 68.396 196.239 67.416 196.239 66.156ZM219.031 57.546C219.619 56.454 220.459 55.6 221.551 54.984C222.671 54.34 224.001 54.018 225.541 54.018C227.389 54.018 229.055 54.508 230.539 55.488C232.023 56.44 233.185 57.84 234.025 59.688C234.893 61.508 235.327 63.664 235.327 66.156C235.327 68.648 234.893 70.818 234.025 72.666C233.185 74.486 232.023 75.886 230.539 76.866C229.055 77.818 227.389 78.294 225.541 78.294C224.001 78.294 222.671 77.986 221.551 77.37C220.459 76.726 219.619 75.858 219.031 74.766V89.34H209.707V54.312H219.031V57.546ZM225.877 66.156C225.877 64.896 225.555 63.916 224.911 63.216C224.267 62.516 223.441 62.166 222.433 62.166C221.425 62.166 220.599 62.516 219.955 63.216C219.311 63.916 218.989 64.896 218.989 66.156C218.989 67.416 219.311 68.396 219.955 69.096C220.599 69.796 221.425 70.146 222.433 70.146C223.441 70.146 224.267 69.796 224.911 69.096C225.555 68.396 225.877 67.416 225.877 66.156ZM242.874 78.336C241.25 78.336 239.948 77.902 238.968 77.034C237.988 76.166 237.498 75.074 237.498 73.758C237.498 72.414 237.988 71.308 238.968 70.44C239.948 69.544 241.25 69.096 242.874 69.096C244.47 69.096 245.758 69.544 246.738 70.44C247.718 71.308 248.208 72.414 248.208 73.758C248.208 75.074 247.718 76.166 246.738 77.034C245.758 77.902 244.47 78.336 242.874 78.336ZM242.874 61.704C241.25 61.704 239.948 61.27 238.968 60.402C237.988 59.534 237.498 58.442 237.498 57.126C237.498 55.782 237.988 54.676 238.968 53.808C239.948 52.912 241.25 52.464 242.874 52.464C244.47 52.464 245.758 52.912 246.738 53.808C247.718 54.676 248.208 55.782 248.208 57.126C248.208 58.442 247.718 59.534 246.738 60.402C245.758 61.27 244.47 61.704 242.874 61.704ZM268.127 70.944H277.115V78H258.803V48.264H268.127V70.944ZM284.753 52.422C283.129 52.422 281.827 51.988 280.847 51.12C279.867 50.252 279.377 49.16 279.377 47.844C279.377 46.5 279.867 45.394 280.847 44.526C281.827 43.63 283.129 43.182 284.753 43.182C286.349 43.182 287.637 43.63 288.617 44.526C289.597 45.394 290.087 46.5 290.087 47.844C290.087 49.16 289.597 50.252 288.617 51.12C287.637 51.988 286.349 52.422 284.753 52.422ZM289.373 54.312V78H280.049V54.312H289.373ZM302.11 54.018C303.65 54.018 304.98 54.34 306.1 54.984C307.22 55.6 308.074 56.454 308.662 57.546V54.312H317.944V77.58C317.944 79.792 317.538 81.808 316.726 83.628C315.914 85.448 314.598 86.904 312.778 87.996C310.986 89.088 308.676 89.634 305.848 89.634C302.04 89.634 299.016 88.738 296.776 86.946C294.564 85.182 293.304 82.774 292.996 79.722H302.152C302.404 80.954 303.412 81.57 305.176 81.57C306.268 81.57 307.122 81.29 307.738 80.73C308.354 80.17 308.662 79.12 308.662 77.58V74.766C308.074 75.858 307.22 76.726 306.1 77.37C304.98 77.986 303.65 78.294 302.11 78.294C300.262 78.294 298.596 77.818 297.112 76.866C295.628 75.886 294.452 74.486 293.584 72.666C292.744 70.818 292.324 68.648 292.324 66.156C292.324 63.664 292.744 61.508 293.584 59.688C294.452 57.84 295.628 56.44 297.112 55.488C298.596 54.508 300.262 54.018 302.11 54.018ZM308.662 66.156C308.662 64.896 308.34 63.916 307.696 63.216C307.052 62.516 306.226 62.166 305.218 62.166C304.21 62.166 303.384 62.516 302.74 63.216C302.096 63.916 301.774 64.896 301.774 66.156C301.774 67.416 302.096 68.396 302.74 69.096C303.384 69.796 304.21 70.146 305.218 70.146C306.226 70.146 307.052 69.796 307.696 69.096C308.34 68.396 308.662 67.416 308.662 66.156ZM338.721 54.144C341.437 54.144 343.551 55.054 345.063 56.874C346.603 58.694 347.373 61.158 347.373 64.266V78H338.091V65.442C338.091 64.322 337.783 63.44 337.167 62.796C336.579 62.124 335.781 61.788 334.773 61.788C333.737 61.788 332.925 62.124 332.337 62.796C331.749 63.44 331.455 64.322 331.455 65.442V78H322.131V46.92H331.455V57.924C332.183 56.804 333.149 55.894 334.353 55.194C335.585 54.494 337.041 54.144 338.721 54.144ZM366.158 70.062V78H362.63C356.134 78 352.886 74.766 352.886 68.298V62.082H349.946V54.312H352.886V48.6H362.21V54.312H366.074V62.082H362.21V68.466C362.21 69.026 362.336 69.432 362.588 69.684C362.868 69.936 363.316 70.062 363.932 70.062H366.158ZM386.299 54.144C389.015 54.144 391.129 55.054 392.641 56.874C394.181 58.694 394.951 61.158 394.951 64.266V78H385.669V65.442C385.669 64.322 385.361 63.44 384.745 62.796C384.157 62.124 383.359 61.788 382.351 61.788C381.315 61.788 380.503 62.124 379.915 62.796C379.327 63.44 379.033 64.322 379.033 65.442V78H369.709V54.312H379.033V57.924C379.761 56.804 380.727 55.894 381.931 55.194C383.163 54.494 384.619 54.144 386.299 54.144ZM403.699 52.422C402.075 52.422 400.773 51.988 399.793 51.12C398.813 50.252 398.323 49.16 398.323 47.844C398.323 46.5 398.813 45.394 399.793 44.526C400.773 43.63 402.075 43.182 403.699 43.182C405.295 43.182 406.583 43.63 407.563 44.526C408.543 45.394 409.033 46.5 409.033 47.844C409.033 49.16 408.543 50.252 407.563 51.12C406.583 51.988 405.295 52.422 403.699 52.422ZM408.319 54.312V78H398.995V54.312H408.319ZM429.12 54.144C431.836 54.144 433.95 55.054 435.462 56.874C437.002 58.694 437.772 61.158 437.772 64.266V78H428.49V65.442C428.49 64.322 428.182 63.44 427.566 62.796C426.978 62.124 426.18 61.788 425.172 61.788C424.136 61.788 423.324 62.124 422.736 62.796C422.148 63.44 421.854 64.322 421.854 65.442V78H412.53V54.312H421.854V57.924C422.582 56.804 423.548 55.894 424.752 55.194C425.984 54.494 427.44 54.144 429.12 54.144ZM450.341 54.018C451.881 54.018 453.211 54.34 454.331 54.984C455.451 55.6 456.305 56.454 456.893 57.546V54.312H466.175V77.58C466.175 79.792 465.769 81.808 464.957 83.628C464.145 85.448 462.829 86.904 461.009 87.996C459.217 89.088 456.907 89.634 454.079 89.634C450.271 89.634 447.247 88.738 445.007 86.946C442.795 85.182 441.535 82.774 441.227 79.722H450.383C450.635 80.954 451.643 81.57 453.407 81.57C454.499 81.57 455.353 81.29 455.969 80.73C456.585 80.17 456.893 79.12 456.893 77.58V74.766C456.305 75.858 455.451 76.726 454.331 77.37C453.211 77.986 451.881 78.294 450.341 78.294C448.493 78.294 446.827 77.818 445.343 76.866C443.859 75.886 442.683 74.486 441.815 72.666C440.975 70.818 440.555 68.648 440.555 66.156C440.555 63.664 440.975 61.508 441.815 59.688C442.683 57.84 443.859 56.44 445.343 55.488C446.827 54.508 448.493 54.018 450.341 54.018ZM456.893 66.156C456.893 64.896 456.571 63.916 455.927 63.216C455.283 62.516 454.457 62.166 453.449 62.166C452.441 62.166 451.615 62.516 450.971 63.216C450.327 63.916 450.005 64.896 450.005 66.156C450.005 67.416 450.327 68.396 450.971 69.096C451.615 69.796 452.441 70.146 453.449 70.146C454.457 70.146 455.283 69.796 455.927 69.096C456.571 68.396 456.893 67.416 456.893 66.156ZM488.674 59.814V67.5H469.102V59.814H488.674ZM72.1 94.264V101.656H60.424V105.772H68.824V112.786H60.424V124H51.1V94.264H72.1ZM73.9982 112.156C73.9982 109.664 74.4182 107.508 75.2582 105.688C76.1262 103.84 77.3022 102.44 78.7862 101.488C80.2702 100.508 81.9362 100.018 83.7842 100.018C85.3242 100.018 86.6542 100.34 87.7742 100.984C88.8942 101.6 89.7482 102.454 90.3362 103.546V100.312H99.6182V124H90.3362V120.766C89.7482 121.858 88.8942 122.726 87.7742 123.37C86.6542 123.986 85.3242 124.294 83.7842 124.294C81.9362 124.294 80.2702 123.818 78.7862 122.866C77.3022 121.886 76.1262 120.486 75.2582 118.666C74.4182 116.818 73.9982 114.648 73.9982 112.156ZM90.3362 112.156C90.3362 110.896 90.0142 109.916 89.3702 109.216C88.7262 108.516 87.9002 108.166 86.8922 108.166C85.8842 108.166 85.0582 108.516 84.4142 109.216C83.7702 109.916 83.4482 110.896 83.4482 112.156C83.4482 113.416 83.7702 114.396 84.4142 115.096C85.0582 115.796 85.8842 116.146 86.8922 116.146C87.9002 116.146 88.7262 115.796 89.3702 115.096C90.0142 114.396 90.3362 113.416 90.3362 112.156ZM114.347 124.294C112.107 124.294 110.119 123.93 108.383 123.202C106.675 122.474 105.317 121.466 104.309 120.178C103.301 118.89 102.727 117.434 102.587 115.81H111.533C111.645 116.51 111.939 117.028 112.415 117.364C112.919 117.7 113.549 117.868 114.305 117.868C114.781 117.868 115.159 117.77 115.439 117.574C115.719 117.35 115.859 117.084 115.859 116.776C115.859 116.244 115.565 115.866 114.977 115.642C114.389 115.418 113.395 115.166 111.995 114.886C110.287 114.55 108.873 114.186 107.753 113.794C106.661 113.402 105.695 112.73 104.855 111.778C104.043 110.826 103.637 109.51 103.637 107.83C103.637 106.374 104.015 105.058 104.771 103.882C105.555 102.678 106.703 101.74 108.215 101.068C109.727 100.368 111.561 100.018 113.717 100.018C116.909 100.018 119.401 100.802 121.193 102.37C123.013 103.938 124.105 105.982 124.469 108.502H116.195C116.055 107.858 115.761 107.368 115.313 107.032C114.865 106.668 114.263 106.486 113.507 106.486C113.031 106.486 112.667 106.584 112.415 106.78C112.163 106.948 112.037 107.214 112.037 107.578C112.037 108.054 112.331 108.418 112.919 108.67C113.507 108.894 114.445 109.132 115.733 109.384C117.441 109.72 118.883 110.098 120.059 110.518C121.235 110.938 122.257 111.666 123.125 112.702C123.993 113.71 124.427 115.11 124.427 116.902C124.427 118.302 124.021 119.562 123.209 120.682C122.397 121.802 121.221 122.684 119.681 123.328C118.169 123.972 116.391 124.294 114.347 124.294ZM142.869 116.062V124H139.341C132.845 124 129.597 120.766 129.597 114.298V108.082H126.657V100.312H129.597V94.6H138.921V100.312H142.785V108.082H138.921V114.466C138.921 115.026 139.047 115.432 139.299 115.684C139.579 115.936 140.027 116.062 140.643 116.062H142.869ZM182.075 124H172.751L162.881 109.048V124H153.557V94.264H162.881L172.751 109.468V94.264H182.075V124ZM197.544 124.294C195.164 124.294 193.022 123.804 191.118 122.824C189.214 121.844 187.716 120.444 186.624 118.624C185.56 116.776 185.028 114.62 185.028 112.156C185.028 109.692 185.56 107.55 186.624 105.73C187.716 103.882 189.214 102.468 191.118 101.488C193.022 100.508 195.164 100.018 197.544 100.018C199.924 100.018 202.066 100.508 203.97 101.488C205.874 102.468 207.358 103.882 208.422 105.73C209.514 107.55 210.06 109.692 210.06 112.156C210.06 114.62 209.514 116.776 208.422 118.624C207.358 120.444 205.874 121.844 203.97 122.824C202.066 123.804 199.924 124.294 197.544 124.294ZM197.544 116.23C198.412 116.23 199.14 115.894 199.728 115.222C200.316 114.522 200.61 113.5 200.61 112.156C200.61 110.812 200.316 109.804 199.728 109.132C199.14 108.432 198.412 108.082 197.544 108.082C196.676 108.082 195.948 108.432 195.36 109.132C194.772 109.804 194.478 110.812 194.478 112.156C194.478 113.5 194.758 114.522 195.318 115.222C195.906 115.894 196.648 116.23 197.544 116.23ZM227.731 116.062V124H224.203C217.707 124 214.459 120.766 214.459 114.298V108.082H211.519V100.312H214.459V94.6H223.783V100.312H227.647V108.082H223.783V114.466C223.783 115.026 223.909 115.432 224.161 115.684C224.441 115.936 224.889 116.062 225.505 116.062H227.731ZM254.214 111.946C254.214 112.59 254.172 113.206 254.088 113.794H239.094C239.234 115.838 240.088 116.86 241.656 116.86C242.664 116.86 243.392 116.398 243.84 115.474H253.71C253.374 117.154 252.66 118.666 251.568 120.01C250.504 121.326 249.146 122.376 247.494 123.16C245.87 123.916 244.078 124.294 242.118 124.294C239.766 124.294 237.666 123.804 235.818 122.824C233.998 121.844 232.57 120.444 231.534 118.624C230.526 116.776 230.022 114.62 230.022 112.156C230.022 109.692 230.526 107.55 231.534 105.73C232.57 103.882 233.998 102.468 235.818 101.488C237.666 100.508 239.766 100.018 242.118 100.018C244.47 100.018 246.556 100.508 248.376 101.488C250.224 102.44 251.652 103.812 252.66 105.604C253.696 107.396 254.214 109.51 254.214 111.946ZM244.764 109.72C244.764 108.936 244.512 108.348 244.008 107.956C243.504 107.536 242.874 107.326 242.118 107.326C240.466 107.326 239.5 108.124 239.22 109.72H244.764ZM287.651 94.264V101.656H279.755V124H270.431V101.656H262.619V94.264H287.651ZM288.92 112.156C288.92 109.664 289.34 107.508 290.18 105.688C291.048 103.84 292.224 102.44 293.708 101.488C295.192 100.508 296.858 100.018 298.706 100.018C300.246 100.018 301.576 100.34 302.696 100.984C303.816 101.6 304.67 102.454 305.258 103.546V100.312H314.54V124H305.258V120.766C304.67 121.858 303.816 122.726 302.696 123.37C301.576 123.986 300.246 124.294 298.706 124.294C296.858 124.294 295.192 123.818 293.708 122.866C292.224 121.886 291.048 120.486 290.18 118.666C289.34 116.818 288.92 114.648 288.92 112.156ZM305.258 112.156C305.258 110.896 304.936 109.916 304.292 109.216C303.648 108.516 302.822 108.166 301.814 108.166C300.806 108.166 299.98 108.516 299.336 109.216C298.692 109.916 298.37 110.896 298.37 112.156C298.37 113.416 298.692 114.396 299.336 115.096C299.98 115.796 300.806 116.146 301.814 116.146C302.822 116.146 303.648 115.796 304.292 115.096C304.936 114.396 305.258 113.416 305.258 112.156ZM333.889 124L328.051 114.55V124H318.727V92.92H328.051V109.174L333.973 100.312H344.809L335.947 112.24L345.019 124H333.889ZM351.814 98.422C350.19 98.422 348.888 97.988 347.908 97.12C346.928 96.252 346.438 95.16 346.438 93.844C346.438 92.5 346.928 91.394 347.908 90.526C348.888 89.63 350.19 89.182 351.814 89.182C353.41 89.182 354.698 89.63 355.678 90.526C356.658 91.394 357.148 92.5 357.148 93.844C357.148 95.16 356.658 96.252 355.678 97.12C354.698 97.988 353.41 98.422 351.814 98.422ZM356.434 100.312V124H347.11V100.312H356.434ZM377.235 100.144C379.951 100.144 382.065 101.054 383.577 102.874C385.117 104.694 385.887 107.158 385.887 110.266V124H376.605V111.442C376.605 110.322 376.297 109.44 375.681 108.796C375.093 108.124 374.295 107.788 373.287 107.788C372.251 107.788 371.439 108.124 370.851 108.796C370.263 109.44 369.969 110.322 369.969 111.442V124H360.645V100.312H369.969V103.924C370.697 102.804 371.663 101.894 372.867 101.194C374.099 100.494 375.555 100.144 377.235 100.144ZM398.456 100.018C399.996 100.018 401.326 100.34 402.446 100.984C403.566 101.6 404.42 102.454 405.008 103.546V100.312H414.29V123.58C414.29 125.792 413.884 127.808 413.072 129.628C412.26 131.448 410.944 132.904 409.124 133.996C407.332 135.088 405.022 135.634 402.194 135.634C398.386 135.634 395.362 134.738 393.122 132.946C390.91 131.182 389.65 128.774 389.342 125.722H398.498C398.75 126.954 399.758 127.57 401.522 127.57C402.614 127.57 403.468 127.29 404.084 126.73C404.7 126.17 405.008 125.12 405.008 123.58V120.766C404.42 121.858 403.566 122.726 402.446 123.37C401.326 123.986 399.996 124.294 398.456 124.294C396.608 124.294 394.942 123.818 393.458 122.866C391.974 121.886 390.798 120.486 389.93 118.666C389.09 116.818 388.67 114.648 388.67 112.156C388.67 109.664 389.09 107.508 389.93 105.688C390.798 103.84 391.974 102.44 393.458 101.488C394.942 100.508 396.608 100.018 398.456 100.018ZM405.008 112.156C405.008 110.896 404.686 109.916 404.042 109.216C403.398 108.516 402.572 108.166 401.564 108.166C400.556 108.166 399.73 108.516 399.086 109.216C398.442 109.916 398.12 110.896 398.12 112.156C398.12 113.416 398.442 114.396 399.086 115.096C399.73 115.796 400.556 116.146 401.564 116.146C402.572 116.146 403.398 115.796 404.042 115.096C404.686 114.396 405.008 113.416 405.008 112.156ZM444.682 119.506H434.77L433.3 124H423.514L434.392 94.264H445.144L455.98 124H446.152L444.682 119.506ZM442.414 112.492L439.726 104.218L437.038 112.492H442.414ZM467.422 103.546C468.01 102.454 468.85 101.6 469.942 100.984C471.062 100.34 472.392 100.018 473.932 100.018C475.78 100.018 477.446 100.508 478.93 101.488C480.414 102.44 481.576 103.84 482.416 105.688C483.284 107.508 483.718 109.664 483.718 112.156C483.718 114.648 483.284 116.818 482.416 118.666C481.576 120.486 480.414 121.886 478.93 122.866C477.446 123.818 475.78 124.294 473.932 124.294C472.392 124.294 471.062 123.986 469.942 123.37C468.85 122.726 468.01 121.858 467.422 120.766V135.34H458.098V100.312H467.422V103.546ZM474.268 112.156C474.268 110.896 473.946 109.916 473.302 109.216C472.658 108.516 471.832 108.166 470.824 108.166C469.816 108.166 468.99 108.516 468.346 109.216C467.702 109.916 467.38 110.896 467.38 112.156C467.38 113.416 467.702 114.396 468.346 115.096C468.99 115.796 469.816 116.146 470.824 116.146C471.832 116.146 472.658 115.796 473.302 115.096C473.946 114.396 474.268 113.416 474.268 112.156ZM495.969 103.546C496.557 102.454 497.397 101.6 498.489 100.984C499.609 100.34 500.939 100.018 502.479 100.018C504.327 100.018 505.993 100.508 507.477 101.488C508.961 102.44 510.123 103.84 510.963 105.688C511.831 107.508 512.265 109.664 512.265 112.156C512.265 114.648 511.831 116.818 510.963 118.666C510.123 120.486 508.961 121.886 507.477 122.866C505.993 123.818 504.327 124.294 502.479 124.294C500.939 124.294 499.609 123.986 498.489 123.37C497.397 122.726 496.557 121.858 495.969 120.766V135.34H486.645V100.312H495.969V103.546ZM502.815 112.156C502.815 110.896 502.493 109.916 501.849 109.216C501.205 108.516 500.379 108.166 499.371 108.166C498.363 108.166 497.537 108.516 496.893 109.216C496.249 109.916 495.927 110.896 495.927 112.156C495.927 113.416 496.249 114.396 496.893 115.096C497.537 115.796 498.363 116.146 499.371 116.146C500.379 116.146 501.205 115.796 501.849 115.096C502.493 114.396 502.815 113.416 502.815 112.156Z" fill="white"/>
<g clip-path="url(#clip2_505_230)">
<path d="M146.008 259.775C146.008 260.562 146.103 261.201 146.268 261.669C146.457 262.137 146.693 262.648 147.024 263.202C147.142 263.372 147.189 263.542 147.189 263.691C147.189 263.904 147.047 264.117 146.741 264.33L145.253 265.224C145.04 265.351 144.828 265.415 144.639 265.415C144.403 265.415 144.167 265.309 143.93 265.117C143.6 264.798 143.317 264.457 143.08 264.117C142.844 263.755 142.608 263.351 142.348 262.861C140.506 264.819 138.192 265.798 135.406 265.798C133.422 265.798 131.84 265.288 130.683 264.266C129.526 263.244 128.936 261.882 128.936 260.179C128.936 258.37 129.644 256.901 131.085 255.794C132.525 254.687 134.438 254.134 136.87 254.134C137.673 254.134 138.499 254.198 139.373 254.304C140.247 254.411 141.144 254.581 142.089 254.772V253.219C142.089 251.601 141.711 250.473 140.979 249.813C140.223 249.153 138.948 248.834 137.13 248.834C136.303 248.834 135.453 248.919 134.579 249.11C133.706 249.302 132.856 249.536 132.029 249.834C131.651 249.983 131.368 250.068 131.203 250.111C131.037 250.153 130.919 250.175 130.825 250.175C130.494 250.175 130.329 249.962 130.329 249.515V248.472C130.329 248.131 130.376 247.876 130.494 247.727C130.612 247.578 130.825 247.429 131.155 247.28C131.982 246.897 132.974 246.577 134.131 246.322C135.288 246.045 136.516 245.918 137.814 245.918C140.625 245.918 142.679 246.492 144.001 247.642C145.3 248.791 145.961 250.537 145.961 252.878V259.775H146.008ZM136.421 263.01C137.201 263.01 138.003 262.882 138.853 262.627C139.704 262.371 140.459 261.903 141.097 261.265C141.475 260.86 141.758 260.413 141.9 259.902C142.041 259.391 142.136 258.774 142.136 258.05V257.156C141.451 257.007 140.719 256.88 139.963 256.795C139.208 256.709 138.476 256.667 137.744 256.667C136.162 256.667 135.004 256.944 134.225 257.518C133.446 258.093 133.068 258.902 133.068 259.966C133.068 260.967 133.351 261.712 133.942 262.222C134.509 262.755 135.335 263.01 136.421 263.01ZM155.383 265.309C154.958 265.309 154.675 265.245 154.486 265.096C154.297 264.968 154.132 264.67 153.99 264.266L148.441 247.812C148.299 247.386 148.228 247.11 148.228 246.961C148.228 246.62 148.417 246.428 148.795 246.428H151.109C151.558 246.428 151.865 246.492 152.03 246.641C152.219 246.769 152.361 247.067 152.502 247.471L156.469 261.563L160.153 247.471C160.271 247.046 160.413 246.769 160.602 246.641C160.791 246.514 161.121 246.428 161.546 246.428H163.436C163.884 246.428 164.191 246.492 164.38 246.641C164.569 246.769 164.734 247.067 164.829 247.471L168.56 261.733L172.645 247.471C172.787 247.046 172.952 246.769 173.117 246.641C173.306 246.514 173.613 246.428 174.038 246.428H176.234C176.612 246.428 176.825 246.599 176.825 246.961C176.825 247.067 176.801 247.173 176.777 247.301C176.754 247.429 176.707 247.599 176.612 247.833L170.921 264.287C170.779 264.713 170.614 264.99 170.425 265.117C170.236 265.245 169.929 265.33 169.528 265.33H167.497C167.048 265.33 166.741 265.266 166.553 265.117C166.364 264.968 166.198 264.692 166.104 264.266L162.444 250.537L158.807 264.245C158.689 264.67 158.547 264.947 158.359 265.096C158.17 265.245 157.839 265.309 157.414 265.309H155.383ZM185.727 265.884C184.499 265.884 183.271 265.756 182.09 265.5C180.91 265.245 179.989 264.968 179.375 264.649C178.997 264.457 178.737 264.245 178.643 264.053C178.548 263.861 178.501 263.649 178.501 263.457V262.371C178.501 261.924 178.69 261.712 179.044 261.712C179.186 261.712 179.328 261.733 179.469 261.775C179.611 261.818 179.824 261.903 180.06 261.988C180.863 262.308 181.736 262.563 182.657 262.733C183.602 262.904 184.523 262.989 185.467 262.989C186.955 262.989 188.112 262.755 188.915 262.286C189.718 261.818 190.143 261.137 190.143 260.264C190.143 259.668 189.93 259.179 189.505 258.774C189.08 258.37 188.277 258.008 187.12 257.667L183.696 256.709C181.972 256.22 180.697 255.496 179.918 254.538C179.139 253.602 178.737 252.559 178.737 251.452C178.737 250.558 178.95 249.77 179.375 249.089C179.8 248.408 180.367 247.812 181.075 247.344C181.783 246.854 182.586 246.492 183.531 246.237C184.475 245.981 185.467 245.875 186.506 245.875C187.026 245.875 187.569 245.896 188.088 245.96C188.632 246.024 189.127 246.109 189.623 246.194C190.096 246.301 190.544 246.407 190.969 246.535C191.394 246.663 191.725 246.79 191.961 246.918C192.292 247.088 192.528 247.259 192.669 247.45C192.811 247.62 192.882 247.855 192.882 248.153V249.153C192.882 249.6 192.693 249.834 192.339 249.834C192.15 249.834 191.843 249.749 191.442 249.579C190.096 249.025 188.584 248.749 186.908 248.749C185.562 248.749 184.499 248.94 183.767 249.345C183.035 249.749 182.657 250.366 182.657 251.239C182.657 251.835 182.893 252.346 183.366 252.75C183.838 253.155 184.712 253.559 185.963 253.921L189.316 254.879C191.017 255.368 192.244 256.05 192.976 256.922C193.708 257.795 194.063 258.795 194.063 259.902C194.063 260.818 193.85 261.648 193.449 262.371C193.024 263.095 192.457 263.734 191.725 264.245C190.993 264.777 190.119 265.16 189.104 265.437C188.041 265.735 186.931 265.884 185.727 265.884Z" fill="#EDEDED"/>
<path d="M190.19 276.228C182.421 281.401 171.134 284.147 161.428 284.147C147.827 284.147 135.571 279.613 126.315 272.078C125.583 271.482 126.244 270.673 127.117 271.141C137.13 276.377 149.48 279.549 162.255 279.549C170.874 279.549 180.343 277.931 189.057 274.611C190.355 274.079 191.465 275.377 190.19 276.228ZM193.425 272.908C192.433 271.758 186.86 272.354 184.334 272.631C183.578 272.716 183.46 272.12 184.145 271.673C188.584 268.864 195.881 269.672 196.731 270.609C197.581 271.567 196.495 278.144 192.339 281.294C191.701 281.784 191.087 281.529 191.371 280.89C192.315 278.783 194.417 274.036 193.425 272.908Z" fill="#FF9900"/>
</g>
<g clip-path="url(#clip3_505_230)">
<rect width="77" height="74" transform="translate(72 162)" fill="#FEFEFE"/>
<path d="M149 162V236H72V162H149ZM141.125 169.568H79.875V228.432H141.125V169.568Z" fill="black"/>
</g>
<path fill-rule="evenodd" clip-rule="evenodd" d="M225.358 218.302L221.105 167H267.838L263.581 218.294L244.443 224L225.358 218.302Z" fill="#E44D26"/>
<path fill-rule="evenodd" clip-rule="evenodd" d="M244.472 219.639L259.936 215.028L263.574 171.195H244.472V219.639Z" fill="#F16529"/>
<path d="M236.73 190.222H244.472V196.514H231.38L229.802 177.487H244.472V183.779H236.195L236.73 190.222Z" fill="#EBEBEB"/>
<path d="M244.446 206.57L244.472 206.563V213.109L244.445 213.117L232.461 209.539L231.641 199.66H237.514L237.93 204.678L244.446 206.57Z" fill="#EBEBEB"/>
<path d="M244.452 177.487H259.107L258.583 183.779H244.452V177.487Z" fill="white"/>
<path d="M244.452 196.514V190.222H258.051L257.908 191.911L256.445 209.539L244.452 213.114V206.568L250.977 204.674L251.656 196.514H244.452Z" fill="white"/>
<path fill-rule="evenodd" clip-rule="evenodd" d="M297.497 219.202L293.164 167H340.78L336.443 219.193L316.943 225L297.497 219.202Z" fill="#0071BC"/>
<path fill-rule="evenodd" clip-rule="evenodd" d="M317.012 220.559L332.749 215.909L336.436 171.347H317.012V220.559Z" fill="#29ABE2"/>
<path fill-rule="evenodd" clip-rule="evenodd" d="M303.083 190.526L303.605 196.919L317.012 190.526V184.123L303.083 190.526Z" fill="#B3B3B3"/>
<path fill-rule="evenodd" clip-rule="evenodd" d="M331.861 177.288L317.012 184.123V190.526L331.349 183.68L331.861 177.288Z" fill="#E6E6E6"/>
<path fill-rule="evenodd" clip-rule="evenodd" d="M317.012 207.253L316.966 207.26L310.317 205.343L309.883 200.243H303.899L304.734 210.289L316.965 213.927L317.012 213.915V207.253Z" fill="#E6E6E6"/>
<path fill-rule="evenodd" clip-rule="evenodd" d="M317.012 190.526V196.919H324.292L323.63 205.277L317.012 207.259V213.92L329.203 210.282L330.808 190.526H317.012Z" fill="white"/>
<path fill-rule="evenodd" clip-rule="evenodd" d="M317.012 190.526H303.083L303.605 196.919H317.012V190.526Z" fill="#E6E6E6"/>
<path fill-rule="evenodd" clip-rule="evenodd" d="M317.012 183.68V177.288H316.952H302.025L302.553 183.68H317.012Z" fill="#E6E6E6"/>
<path fill-rule="evenodd" clip-rule="evenodd" d="M317.012 177.288V183.6V183.68H331.349L331.861 177.288H317.012Z" fill="white"/>
<g clip-path="url(#clip4_505_230)">
<path d="M423.426 183.898C422.676 183.69 421.899 183.494 421.099 183.309C421.231 182.879 421.352 182.454 421.459 182.036C423.22 175.175 422.069 169.648 418.136 167.829C414.366 166.084 408.199 167.903 401.972 172.252C401.373 172.67 400.772 173.113 400.172 173.577C399.772 173.27 399.373 172.974 398.974 172.69C392.447 168.039 385.905 166.079 381.977 167.904C378.21 169.654 377.094 174.85 378.68 181.352C378.833 181.98 379.012 182.621 379.214 183.273C378.288 183.484 377.394 183.709 376.539 183.948C368.887 186.089 364 189.444 364 192.925C364 196.519 369.246 200.125 377.216 202.311C377.845 202.483 378.498 202.646 379.171 202.801C378.952 203.506 378.762 204.197 378.603 204.872C377.091 211.26 378.272 216.334 382.029 218.072C385.909 219.868 392.422 218.022 398.764 213.574C399.265 213.222 399.768 212.849 400.272 212.459C400.925 212.963 401.577 213.441 402.226 213.889C408.368 218.131 414.435 219.844 418.189 218.1C422.065 216.299 423.325 210.849 421.689 204.219C421.565 203.713 421.419 203.195 421.256 202.669C421.713 202.56 422.162 202.448 422.6 202.332C430.886 200.129 436.277 196.567 436.277 192.925C436.277 189.432 431.232 186.054 423.426 183.898ZM421.629 199.98C421.234 200.085 420.828 200.186 420.415 200.285C419.5 197.961 418.266 195.49 416.755 192.937C418.197 190.445 419.384 188.005 420.273 185.696C421.012 185.868 421.73 186.049 422.421 186.24C429.109 188.088 433.189 190.82 433.189 192.925C433.189 195.167 428.783 198.078 421.629 199.98ZM418.66 204.7C419.384 207.632 419.487 210.283 419.008 212.355C418.578 214.217 417.712 215.458 416.641 215.956C414.364 217.014 409.493 215.638 404.239 212.011C403.637 211.595 403.031 211.151 402.422 210.681C404.459 208.894 406.494 206.816 408.481 204.508C411.975 204.259 415.276 203.852 418.269 203.297C418.417 203.774 418.548 204.242 418.66 204.7ZM388.641 215.773C386.415 216.404 384.643 216.422 383.572 215.926C381.292 214.871 380.344 210.797 381.637 205.334C381.785 204.708 381.961 204.065 382.164 203.408C385.125 203.933 388.402 204.312 391.904 204.539C393.904 206.798 395.998 208.873 398.109 210.691C397.648 211.048 397.188 211.388 396.732 211.708C393.928 213.675 391.117 215.071 388.641 215.773ZM378.215 199.966C374.691 198.999 371.78 197.743 369.785 196.372C367.993 195.14 367.088 193.917 367.088 192.925C367.088 190.813 371.011 188.119 377.555 186.288C378.349 186.066 379.181 185.857 380.043 185.66C380.948 188.021 382.134 190.489 383.566 192.985C382.116 195.518 380.912 198.026 379.999 200.414C379.384 200.273 378.788 200.123 378.215 199.966ZM381.71 180.876C380.352 175.306 381.254 171.103 383.524 170.049C385.942 168.925 391.289 170.527 396.924 174.543C397.284 174.799 397.646 175.068 398.009 175.346C395.909 177.155 393.834 179.215 391.851 181.46C388.452 181.713 385.198 182.119 382.207 182.663C382.019 182.056 381.852 181.459 381.71 180.876ZM412.887 187.054C412.172 186.063 411.437 185.095 410.689 184.153C412.995 184.387 415.205 184.698 417.279 185.078C416.656 186.68 415.88 188.355 414.966 190.072C414.311 189.073 413.617 188.066 412.887 187.054ZM400.173 177.117C401.597 178.355 403.023 179.737 404.426 181.237C403.013 181.183 401.581 181.156 400.138 181.156C398.709 181.156 397.289 181.183 395.884 181.235C397.288 179.749 398.727 178.369 400.173 177.117ZM387.378 187.071C386.663 188.065 385.983 189.067 385.337 190.07C384.438 188.359 383.669 186.676 383.041 185.052C385.103 184.681 387.302 184.378 389.593 184.149C388.834 185.099 388.094 186.074 387.378 187.071V187.071ZM389.659 201.877C387.292 201.665 385.06 201.378 382.998 201.018C383.636 199.364 384.423 197.646 385.341 195.898C385.988 196.9 386.671 197.902 387.39 198.899H387.39C388.122 199.914 388.881 200.908 389.659 201.877ZM400.258 208.908C398.795 207.641 397.335 206.239 395.91 204.731C397.294 204.775 398.705 204.797 400.138 204.797C401.612 204.797 403.068 204.771 404.501 204.719C403.094 206.254 401.673 207.658 400.258 208.908ZM414.996 195.809C415.962 197.576 416.776 199.285 417.423 200.911C415.327 201.294 413.064 201.603 410.68 201.833C411.431 200.879 412.171 199.894 412.899 198.882C413.635 197.857 414.335 196.831 414.996 195.809ZM410.225 197.644C409.095 199.216 407.935 200.717 406.757 202.133C404.613 202.256 402.397 202.32 400.138 202.32C397.889 202.32 395.701 202.263 393.595 202.154C392.37 200.719 391.184 199.213 390.062 197.657H390.062C388.942 196.105 387.912 194.54 386.978 192.984C387.912 191.424 388.939 189.858 390.053 188.309L390.052 188.309C391.169 186.756 392.343 185.258 393.557 183.832C395.707 183.701 397.911 183.633 400.138 183.633H400.138C402.376 183.633 404.583 183.702 406.732 183.833C407.927 185.249 409.094 186.742 410.214 188.295C411.348 189.866 412.389 191.423 413.33 192.949C412.392 194.502 411.353 196.074 410.225 197.644ZM416.594 169.975C419.014 171.095 419.956 175.612 418.435 181.536C418.338 181.914 418.229 182.299 418.11 182.689C415.111 182.133 411.855 181.72 408.446 181.464C406.46 179.194 404.402 177.131 402.336 175.345C402.892 174.916 403.446 174.507 403.999 174.121C409.335 170.395 414.322 168.924 416.594 169.975ZM400.138 187.746C403.703 187.746 406.593 190.064 406.593 192.925C406.593 195.785 403.703 198.104 400.138 198.104C396.574 198.104 393.684 195.785 393.684 192.925C393.684 190.064 396.574 187.746 400.138 187.746Z" fill="#00D8FF"/>
</g>
<path d="M255.489 275.07C257.495 274.866 259.017 273.166 258.948 271.125C258.879 269.084 257.149 267.451 255.073 267.451H254.935C252.79 267.519 251.129 269.288 251.199 271.397C251.268 272.417 251.683 273.301 252.306 273.914C249.953 278.472 246.355 281.805 240.958 284.594C237.29 286.499 233.485 287.18 229.679 286.703C226.565 286.295 224.144 284.935 222.621 282.69C220.407 279.356 220.199 275.751 222.068 272.145C223.383 269.56 225.458 267.655 226.773 266.703C226.496 265.818 226.081 264.322 225.873 263.233C215.84 270.376 216.878 280.037 219.923 284.594C222.206 287.996 226.842 290.105 231.963 290.105C233.346 290.105 234.73 289.969 236.114 289.629C244.971 287.928 251.683 282.758 255.489 275.07V275.07ZM267.667 266.635C262.408 260.58 254.658 257.247 245.801 257.247H244.694C244.072 256.022 242.757 255.206 241.304 255.206H241.165C239.02 255.274 237.36 257.042 237.429 259.152C237.498 261.192 239.228 262.825 241.304 262.825H241.442C242.964 262.757 244.279 261.805 244.833 260.512H246.078C251.337 260.512 256.319 262.009 260.817 264.934C264.276 267.179 266.767 270.104 268.151 273.642C269.327 276.499 269.258 279.288 268.013 281.669C266.075 285.275 262.823 287.248 258.533 287.248C255.765 287.248 253.136 286.431 251.752 285.819C250.991 286.499 249.607 287.588 248.638 288.268C251.614 289.629 254.658 290.377 257.564 290.377C264.207 290.377 269.12 286.771 270.988 283.166C272.995 279.22 272.856 272.417 267.667 266.635V266.635ZM232.516 276.227C232.585 278.268 234.315 279.9 236.391 279.9H236.529C238.674 279.832 240.335 278.063 240.266 275.955C240.197 273.914 238.467 272.281 236.391 272.281H236.253C236.114 272.281 235.906 272.281 235.768 272.349C232.931 267.723 231.755 262.689 232.17 257.246C232.447 253.165 233.831 249.627 236.253 246.702C238.259 244.185 242.134 242.96 244.764 242.892C252.098 242.756 255.212 251.736 255.419 255.342C256.319 255.546 257.841 256.022 258.879 256.362C258.049 245.342 251.129 239.627 244.487 239.627C238.259 239.627 232.516 244.049 230.233 250.58C227.05 259.287 229.125 267.655 233 274.254C232.655 274.73 232.447 275.478 232.516 276.227V276.227Z" fill="#764ABC"/>
<defs>
<linearGradient id="paint0_linear_505_230" x1="157.988" y1="286.869" x2="146.689" y2="227.436" gradientUnits="userSpaceOnUse">
<stop stop-color="#F74C00"/>
<stop offset="0.33" stop-color="#F74C00"/>
<stop offset="1" stop-color="#F49600"/>
</linearGradient>
<linearGradient id="paint1_linear_505_230" x1="170.84" y1="286.877" x2="170.84" y2="263.245" gradientUnits="userSpaceOnUse">
<stop stop-color="#CC3A00"/>
<stop offset="0.15" stop-color="#CC3A00"/>
<stop offset="0.74" stop-color="#F74C00"/>
<stop offset="1" stop-color="#F74C00"/>
</linearGradient>
<linearGradient id="paint2_linear_505_230" x1="143.472" y1="287.864" x2="143.472" y2="266.725" gradientUnits="userSpaceOnUse">
<stop stop-color="#CC3A00"/>
<stop offset="0.15" stop-color="#CC3A00"/>
<stop offset="0.74" stop-color="#F74C00"/>
<stop offset="1" stop-color="#F74C00"/>
</linearGradient>
<clipPath id="clip0_505_230">
<rect width="126" height="128" fill="white" transform="translate(122 224)"/>
</clipPath>
<clipPath id="clip1_505_230">
<rect width="74" height="73" fill="white" transform="translate(368 147)"/>
</clipPath>
<clipPath id="clip2_505_230">
<rect width="126" height="128" fill="white" transform="translate(122 224)"/>
</clipPath>
<clipPath id="clip3_505_230">
<rect width="77" height="74" fill="white" transform="translate(72 162)"/>
</clipPath>
<clipPath id="clip4_505_230">
<rect width="72.2769" height="58" fill="white" transform="translate(364 164)"/>
</clipPath>
</defs>
</svg>
