<svg width="61" height="61" viewBox="0 0 61 61" fill="none" xmlns="http://www.w3.org/2000/svg">
<path d="M21.6892 30.8653H12.5743V23.5733C12.5743 19.5513 15.8442 16.2814 19.8662 16.2814H20.7777C22.293 16.2814 23.5122 15.0623 23.5122 13.5468V8.07798C23.5122 6.56266 22.2931 5.34344 20.7777 5.34344H19.8662C9.79423 5.34344 1.63635 13.5013 1.63635 23.5733V50.9181C1.63635 53.9375 4.08598 56.3871 7.10531 56.3871H21.6892C24.7085 56.3871 27.1582 53.9375 27.1582 50.9181V36.3342C27.1582 33.3149 24.7085 30.8653 21.6892 30.8653Z" fill="#333333"/>
<path d="M54.5029 30.8653H45.388V23.5733C45.388 19.5513 48.6579 16.2814 52.6799 16.2814H53.5914C55.1067 16.2814 56.3259 15.0623 56.3259 13.5468V8.07798C56.3259 6.56266 55.1068 5.34344 53.5914 5.34344H52.6799C42.608 5.34344 34.4501 13.5013 34.4501 23.5733V50.9181C34.4501 53.9375 36.8997 56.3871 39.919 56.3871H54.5029C57.5223 56.3871 59.9719 53.9375 59.9719 50.9181V36.3342C59.9719 33.3149 57.5223 30.8653 54.5029 30.8653Z" fill="#333333"/>
</svg>
