<svg width="581" height="384" viewBox="0 0 581 384" fill="none" xmlns="http://www.w3.org/2000/svg">
<rect width="581" height="384" fill="#001641"/>
<path d="M120.72 225.546L120.781 225.572L120.845 225.587C121.928 225.839 122.671 226.514 123.196 227.582C123.736 228.682 124.027 230.167 124.155 231.928C124.282 233.68 124.244 235.633 124.173 237.636C124.155 238.122 124.136 238.612 124.116 239.103C124.056 240.616 123.996 242.131 123.996 243.55C123.996 245.11 123.171 246.686 121.483 248.21C119.796 249.734 117.309 251.142 114.171 252.34C107.899 254.735 99.1814 256.233 89.5135 256.233C79.8455 256.233 71.128 254.735 64.8561 252.34C61.7175 251.142 59.2314 249.734 57.5437 248.21C55.856 246.686 55.0307 245.11 55.0307 243.55C55.0307 241.041 54.9513 238.85 54.8826 236.953C54.8774 236.809 54.8722 236.667 54.8671 236.526C54.7951 234.522 54.7449 232.885 54.8207 231.531C54.8967 230.173 55.0968 229.182 55.4738 228.44C55.8352 227.729 56.3842 227.198 57.2771 226.803C58.7046 226.171 60.7137 226.046 63.1993 226.283C65.666 226.519 68.4894 227.098 71.4858 227.776C72.3194 227.965 73.1668 228.161 74.0229 228.36C79.2637 229.576 84.8283 230.867 89.5135 230.867C94.2561 230.867 99.8724 229.239 105.094 227.725C105.716 227.545 106.332 227.367 106.941 227.192C109.832 226.366 112.555 225.637 114.948 225.279C117.359 224.918 119.312 224.956 120.72 225.546Z" fill="#001641" stroke="#FFB800" stroke-width="1.56596"/>
<path d="M123.996 230.084C123.996 231.644 123.171 233.221 121.483 234.744C119.796 236.268 117.309 237.676 114.171 238.874C107.899 241.269 99.1814 242.767 89.5135 242.767C79.8455 242.767 71.128 241.269 64.8561 238.874C61.7175 237.676 59.2314 236.268 57.5437 234.744C55.856 233.221 55.0307 231.644 55.0307 230.084C55.0307 228.523 55.856 226.947 57.5437 225.424C59.2314 223.9 61.7175 222.492 64.8561 221.294C71.128 218.899 79.8455 217.401 89.5135 217.401C99.1814 217.401 107.899 218.899 114.171 221.294C117.309 222.492 119.796 223.9 121.483 225.424C123.171 226.947 123.996 228.523 123.996 230.084Z" fill="#001641" stroke="#FFB800" stroke-width="1.56596"/>
<path d="M120.72 201.981L120.781 202.007L120.845 202.022C121.928 202.274 122.671 202.949 123.196 204.017C123.736 205.117 124.027 206.602 124.155 208.363C124.282 210.115 124.244 212.068 124.173 214.071C124.155 214.557 124.136 215.047 124.116 215.538C124.056 217.051 123.996 218.567 123.996 219.985C123.996 221.545 123.171 223.122 121.483 224.645C119.796 226.169 117.309 227.577 114.171 228.775C107.899 231.17 99.1814 232.668 89.5135 232.668C79.8455 232.668 71.128 231.17 64.8561 228.775C61.7175 227.577 59.2314 226.169 57.5437 224.645C55.856 223.122 55.0307 221.545 55.0307 219.985C55.0307 217.476 54.9513 215.285 54.8826 213.388C54.8774 213.244 54.8722 213.102 54.8671 212.961C54.7951 210.957 54.7449 209.32 54.8207 207.966C54.8967 206.609 55.0968 205.617 55.4738 204.875C55.8352 204.164 56.3842 203.633 57.2771 203.238C58.7046 202.606 60.7137 202.481 63.1993 202.719C65.666 202.954 68.4894 203.533 71.4858 204.211C72.3194 204.4 73.1668 204.596 74.0229 204.795C79.2637 206.011 84.8283 207.302 89.5135 207.302C94.2561 207.302 99.8724 205.674 105.094 204.161C105.716 203.98 106.332 203.802 106.941 203.628C109.832 202.801 112.555 202.072 114.948 201.714C117.359 201.354 119.312 201.391 120.72 201.981Z" fill="#001641" stroke="#FFB800" stroke-width="1.56596"/>
<path d="M123.996 206.519C123.996 208.08 123.171 209.656 121.483 211.18C119.796 212.703 117.309 214.111 114.171 215.31C107.899 217.704 99.1814 219.202 89.5135 219.202C79.8455 219.202 71.128 217.704 64.8561 215.31C61.7175 214.111 59.2314 212.703 57.5437 211.18C55.856 209.656 55.0307 208.08 55.0307 206.519C55.0307 204.959 55.856 203.383 57.5437 201.859C59.2314 200.336 61.7175 198.928 64.8561 197.729C71.128 195.334 79.8455 193.837 89.5135 193.837C99.1814 193.837 107.899 195.334 114.171 197.729C117.309 198.928 119.796 200.336 121.483 201.859C123.171 203.383 123.996 204.959 123.996 206.519Z" fill="#001641" stroke="#FFB800" stroke-width="1.56596"/>
<path d="M120.759 178.312L120.698 178.286C119.291 177.691 117.341 177.654 114.93 178.017C112.539 178.378 109.816 179.112 106.926 179.945C106.318 180.12 105.702 180.3 105.08 180.482C99.8603 182.007 94.2449 183.647 89.5027 183.647C84.8182 183.647 79.2545 182.346 74.0154 181.121C73.1596 180.921 72.3124 180.723 71.4792 180.533C68.4837 179.849 65.6614 179.266 63.196 179.029C60.7115 178.79 58.7042 178.916 57.2783 179.552M120.759 178.312L57.2783 179.552M120.759 178.312L120.824 178.327C121.905 178.581 122.648 179.261 123.174 180.339C123.715 181.448 124.005 182.947 124.133 184.722C124.26 186.487 124.223 188.456 124.151 190.474C124.134 190.964 124.115 191.458 124.095 191.952C124.035 193.477 123.975 195.003 123.975 196.432C123.975 198.009 123.147 199.599 121.46 201.134C119.773 202.67 117.288 204.088 114.151 205.295C107.881 207.708 99.1671 209.217 89.5027 209.217C79.8383 209.217 71.1242 207.708 64.8548 205.295C61.7175 204.088 59.2324 202.67 57.5451 201.134C55.8581 199.599 55.0306 198.009 55.0306 196.432C55.0306 193.905 54.9513 191.697 54.8826 189.786C54.8773 189.641 54.8722 189.497 54.8671 189.356C54.7951 187.336 54.7449 185.686 54.8207 184.321C54.8968 182.953 55.0969 181.953 55.4747 181.203C55.8369 180.485 56.3865 179.95 57.2783 179.552M120.759 178.312L57.2783 179.552" fill="#001641" stroke="#FFB800" stroke-width="1.56596"/>
<path d="M144.432 194.068C144.432 196.143 143.325 198.211 141.122 200.184C138.919 202.156 135.687 203.968 131.627 205.505C123.512 208.579 112.248 210.496 99.7673 210.496C87.287 210.496 76.0232 208.579 67.908 205.505C63.8476 203.968 60.6158 202.156 58.4131 200.184C56.2098 198.211 55.1022 196.143 55.1022 194.068C55.1022 191.992 56.2098 189.924 58.4131 187.952C60.6158 185.979 63.8476 184.167 67.908 182.63C76.0232 179.556 87.287 177.639 99.7673 177.639C112.248 177.639 123.512 179.556 131.627 182.63C135.687 184.167 138.919 185.979 141.122 187.952C143.325 189.924 144.432 191.992 144.432 194.068Z" fill="#001641" stroke="#FFB800" stroke-width="1.56596"/>
<path d="M106.429 143H133V277H63L106.429 143Z" fill="#001641"/>
<mask id="mask0_64_3" style="mask-type:alpha" maskUnits="userSpaceOnUse" x="72" y="153" width="70" height="134">
<path d="M72.5384 286.609L115.713 153.391H141.609V286.609H72.5384Z" fill="#001641" stroke="#FFB800" stroke-width="0.782979"/>
</mask>
<g mask="url(#mask0_64_3)">
</g>
<mask id="mask1_64_3" style="mask-type:alpha" maskUnits="userSpaceOnUse" x="87" y="144" width="75" height="143">
<path d="M87.9546 286.567L133.875 145.229H161.45V286.567H87.9546Z" fill="#001641" stroke="#FF0049" stroke-width="0.782979"/>
</mask>
<g mask="url(#mask1_64_3)">
<rect x="89.7177" y="206.267" width="13.623" height="54.1797" rx="3.13191" fill="#001641" stroke="#FFB800" stroke-width="1.56596"/>
<path d="M79.4833 258.95H113.575C115.305 258.95 116.707 260.352 116.707 262.082V264.122H76.3514V262.082C76.3514 260.352 77.7536 258.95 79.4833 258.95Z" fill="#001641" stroke="#FFB800" stroke-width="1.56596"/>
<rect x="49.0112" y="178.701" width="95.0356" height="66.4315" rx="3.13191" fill="#001641" stroke="#FFB800" stroke-width="1.56596"/>
<rect x="49.0112" y="178.701" width="95.0356" height="54.1797" rx="3.13191" fill="#001641" stroke="#FFB800" stroke-width="1.56596"/>
</g>
<line y1="-0.782979" x2="114.046" y2="-0.782979" transform="matrix(0.293001 -0.956112 0.954738 0.297447 81.34 271.031)" stroke="#FFB800" stroke-width="1.56596" stroke-dasharray="2.35 2.35"/>
<path d="M66.052 78L60.466 67.332H60.424V78H51.1V48.264H64.96C67.368 48.264 69.426 48.698 71.134 49.566C72.842 50.406 74.116 51.568 74.956 53.052C75.824 54.508 76.258 56.16 76.258 58.008C76.258 59.996 75.698 61.76 74.578 63.3C73.486 64.84 71.904 65.946 69.832 66.618L76.3 78H66.052ZM60.424 61.116H64.12C65.016 61.116 65.688 60.92 66.136 60.528C66.584 60.108 66.808 59.464 66.808 58.596C66.808 57.812 66.57 57.196 66.094 56.748C65.646 56.3 64.988 56.076 64.12 56.076H60.424V61.116ZM104.311 54.312V78H94.9867V74.388C94.2587 75.508 93.2787 76.418 92.0467 77.118C90.8427 77.818 89.4007 78.168 87.7207 78.168C85.0047 78.168 82.8767 77.258 81.3367 75.438C79.8247 73.618 79.0687 71.154 79.0687 68.046V54.312H88.3507V66.87C88.3507 67.99 88.6447 68.886 89.2327 69.558C89.8487 70.202 90.6607 70.524 91.6687 70.524C92.7047 70.524 93.5167 70.202 94.1047 69.558C94.6927 68.886 94.9867 67.99 94.9867 66.87V54.312H104.311ZM119.064 78.294C116.824 78.294 114.836 77.93 113.1 77.202C111.392 76.474 110.034 75.466 109.026 74.178C108.018 72.89 107.444 71.434 107.304 69.81H116.25C116.362 70.51 116.656 71.028 117.132 71.364C117.636 71.7 118.266 71.868 119.022 71.868C119.498 71.868 119.876 71.77 120.156 71.574C120.436 71.35 120.576 71.084 120.576 70.776C120.576 70.244 120.282 69.866 119.694 69.642C119.106 69.418 118.112 69.166 116.712 68.886C115.004 68.55 113.59 68.186 112.47 67.794C111.378 67.402 110.412 66.73 109.572 65.778C108.76 64.826 108.354 63.51 108.354 61.83C108.354 60.374 108.732 59.058 109.488 57.882C110.272 56.678 111.42 55.74 112.932 55.068C114.444 54.368 116.278 54.018 118.434 54.018C121.626 54.018 124.118 54.802 125.91 56.37C127.73 57.938 128.822 59.982 129.186 62.502H120.912C120.772 61.858 120.478 61.368 120.03 61.032C119.582 60.668 118.98 60.486 118.224 60.486C117.748 60.486 117.384 60.584 117.132 60.78C116.88 60.948 116.754 61.214 116.754 61.578C116.754 62.054 117.048 62.418 117.636 62.67C118.224 62.894 119.162 63.132 120.45 63.384C122.158 63.72 123.6 64.098 124.776 64.518C125.952 64.938 126.974 65.666 127.842 66.702C128.71 67.71 129.144 69.11 129.144 70.902C129.144 72.302 128.738 73.562 127.926 74.682C127.114 75.802 125.938 76.684 124.398 77.328C122.886 77.972 121.108 78.294 119.064 78.294ZM147.586 70.062V78H144.058C137.562 78 134.314 74.766 134.314 68.298V62.082H131.374V54.312H134.314V48.6H143.638V54.312H147.502V62.082H143.638V68.466C143.638 69.026 143.764 69.432 144.016 69.684C144.296 69.936 144.744 70.062 145.36 70.062H147.586ZM193.977 48.264L187.173 78H175.581L172.137 61.116L168.693 78H157.101L150.297 48.264H160.335L163.023 66.996L167.055 48.264H177.219L181.251 66.996L183.939 48.264H193.977ZM196.061 66.156C196.061 63.664 196.481 61.508 197.321 59.688C198.189 57.84 199.365 56.44 200.849 55.488C202.333 54.508 203.999 54.018 205.847 54.018C207.387 54.018 208.717 54.34 209.837 54.984C210.957 55.6 211.811 56.454 212.399 57.546V54.312H221.681V78H212.399V74.766C211.811 75.858 210.957 76.726 209.837 77.37C208.717 77.986 207.387 78.294 205.847 78.294C203.999 78.294 202.333 77.818 200.849 76.866C199.365 75.886 198.189 74.486 197.321 72.666C196.481 70.818 196.061 68.648 196.061 66.156ZM212.399 66.156C212.399 64.896 212.077 63.916 211.433 63.216C210.789 62.516 209.963 62.166 208.955 62.166C207.947 62.166 207.121 62.516 206.477 63.216C205.833 63.916 205.511 64.896 205.511 66.156C205.511 67.416 205.833 68.396 206.477 69.096C207.121 69.796 207.947 70.146 208.955 70.146C209.963 70.146 210.789 69.796 211.433 69.096C212.077 68.396 212.399 67.416 212.399 66.156ZM237.88 69.138L241.66 54.312H251.572L243.676 78H232.042L224.146 54.312H234.058L237.88 69.138ZM276.977 65.946C276.977 66.59 276.935 67.206 276.851 67.794H261.857C261.997 69.838 262.851 70.86 264.419 70.86C265.427 70.86 266.155 70.398 266.603 69.474H276.473C276.137 71.154 275.423 72.666 274.331 74.01C273.267 75.326 271.909 76.376 270.257 77.16C268.633 77.916 266.841 78.294 264.881 78.294C262.529 78.294 260.429 77.804 258.581 76.824C256.761 75.844 255.333 74.444 254.297 72.624C253.289 70.776 252.785 68.62 252.785 66.156C252.785 63.692 253.289 61.55 254.297 59.73C255.333 57.882 256.761 56.468 258.581 55.488C260.429 54.508 262.529 54.018 264.881 54.018C267.233 54.018 269.319 54.508 271.139 55.488C272.987 56.44 274.415 57.812 275.423 59.604C276.459 61.396 276.977 63.51 276.977 65.946ZM267.527 63.72C267.527 62.936 267.275 62.348 266.771 61.956C266.267 61.536 265.637 61.326 264.881 61.326C263.229 61.326 262.263 62.124 261.983 63.72H267.527ZM284.546 78.336C282.922 78.336 281.62 77.902 280.64 77.034C279.66 76.166 279.17 75.074 279.17 73.758C279.17 72.414 279.66 71.308 280.64 70.44C281.62 69.544 282.922 69.096 284.546 69.096C286.142 69.096 287.43 69.544 288.41 70.44C289.39 71.308 289.88 72.414 289.88 73.758C289.88 75.074 289.39 76.166 288.41 77.034C287.43 77.902 286.142 78.336 284.546 78.336ZM284.546 61.704C282.922 61.704 281.62 61.27 280.64 60.402C279.66 59.534 279.17 58.442 279.17 57.126C279.17 55.782 279.66 54.676 280.64 53.808C281.62 52.912 282.922 52.464 284.546 52.464C286.142 52.464 287.43 52.912 288.41 53.808C289.39 54.676 289.88 55.782 289.88 57.126C289.88 58.442 289.39 59.534 288.41 60.402C287.43 61.27 286.142 61.704 284.546 61.704ZM324.793 58.47C324.793 60.346 324.359 62.054 323.491 63.594C322.623 65.106 321.335 66.31 319.627 67.206C317.947 68.102 315.903 68.55 313.495 68.55H309.799V78H300.475V48.264H313.495C317.135 48.264 319.921 49.188 321.853 51.036C323.813 52.884 324.793 55.362 324.793 58.47ZM312.445 61.2C314.377 61.2 315.343 60.29 315.343 58.47C315.343 56.65 314.377 55.74 312.445 55.74H309.799V61.2H312.445ZM339.006 78.294C336.626 78.294 334.484 77.804 332.58 76.824C330.676 75.844 329.178 74.444 328.086 72.624C327.022 70.776 326.49 68.62 326.49 66.156C326.49 63.692 327.022 61.55 328.086 59.73C329.178 57.882 330.676 56.468 332.58 55.488C334.484 54.508 336.626 54.018 339.006 54.018C341.386 54.018 343.528 54.508 345.432 55.488C347.336 56.468 348.82 57.882 349.884 59.73C350.976 61.55 351.522 63.692 351.522 66.156C351.522 68.62 350.976 70.776 349.884 72.624C348.82 74.444 347.336 75.844 345.432 76.824C343.528 77.804 341.386 78.294 339.006 78.294ZM339.006 70.23C339.874 70.23 340.602 69.894 341.19 69.222C341.778 68.522 342.072 67.5 342.072 66.156C342.072 64.812 341.778 63.804 341.19 63.132C340.602 62.432 339.874 62.082 339.006 62.082C338.138 62.082 337.41 62.432 336.822 63.132C336.234 63.804 335.94 64.812 335.94 66.156C335.94 67.5 336.22 68.522 336.78 69.222C337.368 69.894 338.11 70.23 339.006 70.23ZM390.404 54.312L384.776 78H374.276L371.42 64.644L368.396 78H357.896L352.31 54.312H361.55L363.524 68.718L366.59 54.312H376.544L379.778 68.886L381.794 54.312H390.404ZM415.323 65.946C415.323 66.59 415.281 67.206 415.197 67.794H400.203C400.343 69.838 401.197 70.86 402.765 70.86C403.773 70.86 404.501 70.398 404.949 69.474H414.819C414.483 71.154 413.769 72.666 412.677 74.01C411.613 75.326 410.255 76.376 408.603 77.16C406.979 77.916 405.187 78.294 403.227 78.294C400.875 78.294 398.775 77.804 396.927 76.824C395.107 75.844 393.679 74.444 392.643 72.624C391.635 70.776 391.131 68.62 391.131 66.156C391.131 63.692 391.635 61.55 392.643 59.73C393.679 57.882 395.107 56.468 396.927 55.488C398.775 54.508 400.875 54.018 403.227 54.018C405.579 54.018 407.665 54.508 409.485 55.488C411.333 56.44 412.761 57.812 413.769 59.604C414.805 61.396 415.323 63.51 415.323 65.946ZM405.873 63.72C405.873 62.936 405.621 62.348 405.117 61.956C404.613 61.536 403.983 61.326 403.227 61.326C401.575 61.326 400.609 62.124 400.329 63.72H405.873ZM427.596 58.68C428.548 57.308 429.71 56.216 431.082 55.404C432.454 54.564 433.882 54.144 435.366 54.144V64.098H432.72C430.956 64.098 429.654 64.406 428.814 65.022C428.002 65.638 427.596 66.73 427.596 68.298V78H418.272V54.312H427.596V58.68ZM451.527 52.632C451.023 52.576 450.673 52.548 450.477 52.548C449.777 52.548 449.245 52.688 448.881 52.968C448.517 53.22 448.265 53.668 448.125 54.312H451.527V62.082H448.041V78H438.717V62.082H436.197V54.312H438.717C438.773 51.232 439.739 48.852 441.615 47.172C443.519 45.464 446.179 44.61 449.595 44.61C449.987 44.61 450.631 44.638 451.527 44.694V52.632ZM479.112 54.312V78H469.788V74.388C469.06 75.508 468.08 76.418 466.848 77.118C465.644 77.818 464.202 78.168 462.522 78.168C459.806 78.168 457.678 77.258 456.138 75.438C454.626 73.618 453.87 71.154 453.87 68.046V54.312H463.152V66.87C463.152 67.99 463.446 68.886 464.034 69.558C464.65 70.202 465.462 70.524 466.47 70.524C467.506 70.524 468.318 70.202 468.906 69.558C469.494 68.886 469.788 67.99 469.788 66.87V54.312H479.112ZM492.647 46.92V78H483.323V46.92H492.647ZM66.052 124L60.466 113.332H60.424V124H51.1V94.264H64.96C67.368 94.264 69.426 94.698 71.134 95.566C72.842 96.406 74.116 97.568 74.956 99.052C75.824 100.508 76.258 102.16 76.258 104.008C76.258 105.996 75.698 107.76 74.578 109.3C73.486 110.84 71.904 111.946 69.832 112.618L76.3 124H66.052ZM60.424 107.116H64.12C65.016 107.116 65.688 106.92 66.136 106.528C66.584 106.108 66.808 105.464 66.808 104.596C66.808 103.812 66.57 103.196 66.094 102.748C65.646 102.3 64.988 102.076 64.12 102.076H60.424V107.116ZM104.311 100.312V124H94.9867V120.388C94.2587 121.508 93.2787 122.418 92.0467 123.118C90.8427 123.818 89.4007 124.168 87.7207 124.168C85.0047 124.168 82.8767 123.258 81.3367 121.438C79.8247 119.618 79.0687 117.154 79.0687 114.046V100.312H88.3507V112.87C88.3507 113.99 88.6447 114.886 89.2327 115.558C89.8487 116.202 90.6607 116.524 91.6687 116.524C92.7047 116.524 93.5167 116.202 94.1047 115.558C94.6927 114.886 94.9867 113.99 94.9867 112.87V100.312H104.311ZM119.064 124.294C116.824 124.294 114.836 123.93 113.1 123.202C111.392 122.474 110.034 121.466 109.026 120.178C108.018 118.89 107.444 117.434 107.304 115.81H116.25C116.362 116.51 116.656 117.028 117.132 117.364C117.636 117.7 118.266 117.868 119.022 117.868C119.498 117.868 119.876 117.77 120.156 117.574C120.436 117.35 120.576 117.084 120.576 116.776C120.576 116.244 120.282 115.866 119.694 115.642C119.106 115.418 118.112 115.166 116.712 114.886C115.004 114.55 113.59 114.186 112.47 113.794C111.378 113.402 110.412 112.73 109.572 111.778C108.76 110.826 108.354 109.51 108.354 107.83C108.354 106.374 108.732 105.058 109.488 103.882C110.272 102.678 111.42 101.74 112.932 101.068C114.444 100.368 116.278 100.018 118.434 100.018C121.626 100.018 124.118 100.802 125.91 102.37C127.73 103.938 128.822 105.982 129.186 108.502H120.912C120.772 107.858 120.478 107.368 120.03 107.032C119.582 106.668 118.98 106.486 118.224 106.486C117.748 106.486 117.384 106.584 117.132 106.78C116.88 106.948 116.754 107.214 116.754 107.578C116.754 108.054 117.048 108.418 117.636 108.67C118.224 108.894 119.162 109.132 120.45 109.384C122.158 109.72 123.6 110.098 124.776 110.518C125.952 110.938 126.974 111.666 127.842 112.702C128.71 113.71 129.144 115.11 129.144 116.902C129.144 118.302 128.738 119.562 127.926 120.682C127.114 121.802 125.938 122.684 124.398 123.328C122.886 123.972 121.108 124.294 119.064 124.294ZM147.586 116.062V124H144.058C137.562 124 134.314 120.766 134.314 114.298V108.082H131.374V100.312H134.314V94.6H143.638V100.312H147.502V108.082H143.638V114.466C143.638 115.026 143.764 115.432 144.016 115.684C144.296 115.936 144.744 116.062 145.36 116.062H147.586ZM169.908 124.294C166.352 124.294 163.412 123.468 161.088 121.816C158.792 120.136 157.546 117.686 157.35 114.466H167.262C167.402 116.174 168.158 117.028 169.53 117.028C170.034 117.028 170.454 116.916 170.79 116.692C171.154 116.44 171.336 116.062 171.336 115.558C171.336 114.858 170.958 114.298 170.202 113.878C169.446 113.43 168.27 112.926 166.674 112.366C164.77 111.694 163.188 111.036 161.928 110.392C160.696 109.748 159.632 108.81 158.736 107.578C157.84 106.346 157.406 104.764 157.434 102.832C157.434 100.9 157.924 99.262 158.904 97.918C159.912 96.546 161.27 95.51 162.978 94.81C164.714 94.11 166.66 93.76 168.816 93.76C172.456 93.76 175.34 94.6 177.468 96.28C179.624 97.96 180.758 100.326 180.87 103.378H170.832C170.804 102.538 170.594 101.936 170.202 101.572C169.81 101.208 169.334 101.026 168.774 101.026C168.382 101.026 168.06 101.166 167.808 101.446C167.556 101.698 167.43 102.062 167.43 102.538C167.43 103.21 167.794 103.77 168.522 104.218C169.278 104.638 170.468 105.156 172.092 105.772C173.968 106.472 175.508 107.144 176.712 107.788C177.944 108.432 179.008 109.328 179.904 110.476C180.8 111.624 181.248 113.066 181.248 114.802C181.248 116.622 180.8 118.26 179.904 119.716C179.008 121.144 177.706 122.264 175.998 123.076C174.29 123.888 172.26 124.294 169.908 124.294ZM207.456 111.946C207.456 112.59 207.414 113.206 207.33 113.794H192.336C192.476 115.838 193.33 116.86 194.898 116.86C195.906 116.86 196.634 116.398 197.082 115.474H206.952C206.616 117.154 205.902 118.666 204.81 120.01C203.746 121.326 202.388 122.376 200.736 123.16C199.112 123.916 197.32 124.294 195.36 124.294C193.008 124.294 190.908 123.804 189.06 122.824C187.24 121.844 185.812 120.444 184.776 118.624C183.768 116.776 183.264 114.62 183.264 112.156C183.264 109.692 183.768 107.55 184.776 105.73C185.812 103.882 187.24 102.468 189.06 101.488C190.908 100.508 193.008 100.018 195.36 100.018C197.712 100.018 199.798 100.508 201.618 101.488C203.466 102.44 204.894 103.812 205.902 105.604C206.938 107.396 207.456 109.51 207.456 111.946ZM198.006 109.72C198.006 108.936 197.754 108.348 197.25 107.956C196.746 107.536 196.116 107.326 195.36 107.326C193.708 107.326 192.742 108.124 192.462 109.72H198.006ZM219.729 104.68C220.681 103.308 221.843 102.216 223.215 101.404C224.587 100.564 226.015 100.144 227.499 100.144V110.098H224.853C223.089 110.098 221.787 110.406 220.947 111.022C220.135 111.638 219.729 112.73 219.729 114.298V124H210.405V100.312H219.729V104.68ZM242.022 115.138L245.802 100.312H255.714L247.818 124H236.184L228.288 100.312H238.2L242.022 115.138ZM281.12 111.946C281.12 112.59 281.078 113.206 280.994 113.794H266C266.14 115.838 266.994 116.86 268.562 116.86C269.57 116.86 270.298 116.398 270.746 115.474H280.616C280.28 117.154 279.566 118.666 278.474 120.01C277.41 121.326 276.052 122.376 274.4 123.16C272.776 123.916 270.984 124.294 269.024 124.294C266.672 124.294 264.572 123.804 262.724 122.824C260.904 121.844 259.476 120.444 258.44 118.624C257.432 116.776 256.928 114.62 256.928 112.156C256.928 109.692 257.432 107.55 258.44 105.73C259.476 103.882 260.904 102.468 262.724 101.488C264.572 100.508 266.672 100.018 269.024 100.018C271.376 100.018 273.462 100.508 275.282 101.488C277.13 102.44 278.558 103.812 279.566 105.604C280.602 107.396 281.12 109.51 281.12 111.946ZM271.67 109.72C271.67 108.936 271.418 108.348 270.914 107.956C270.41 107.536 269.78 107.326 269.024 107.326C267.372 107.326 266.406 108.124 266.126 109.72H271.67ZM293.393 104.68C294.345 103.308 295.507 102.216 296.879 101.404C298.251 100.564 299.679 100.144 301.163 100.144V110.098H298.517C296.753 110.098 295.451 110.406 294.611 111.022C293.799 111.638 293.393 112.73 293.393 114.298V124H284.069V100.312H293.393V104.68Z" fill="white"/>
<g clip-path="url(#clip0_64_3)">
<path d="M156.587 250.903C148.441 250.903 141.04 252.192 135.56 254.293V272.237C141.04 274.338 148.441 275.627 156.587 275.627C165.911 275.627 174.258 273.938 179.865 271.277V255.253C174.258 252.592 165.911 250.903 156.587 250.903Z" fill="#A52B00"/>
<path d="M188.262 265.483L187.307 262.879C187.312 262.781 187.316 262.682 187.316 262.582C187.316 259.631 184.984 256.91 181.06 254.732V270.432C182.891 269.416 184.376 268.282 185.438 267.061C185.126 268.715 184.057 272.062 183.204 274.416C181.803 277.782 181.296 280.713 181.361 280.858C181.403 280.949 181.88 279.979 182.585 278.406C184.225 275.331 187.333 269.458 187.954 267.962C188.658 266.267 188.262 265.483 188.262 265.483Z" fill="#A52B00"/>
<path d="M126.466 262.754C126.466 263.323 126.553 263.883 126.721 264.432L126.149 265.772C126.149 265.772 125.691 266.554 126.498 268.205C127.209 269.66 130.773 275.356 132.655 278.339C133.463 279.869 134.01 280.811 134.058 280.72C134.134 280.575 133.556 277.704 131.951 274.428C131.203 272.669 130.308 270.338 129.771 268.616C131.27 269.864 133.231 270.997 135.56 271.971V253.538C129.947 255.886 126.466 259.148 126.466 262.754Z" fill="#A52B00"/>
<path d="M155.837 226.251L153.924 230.187C153.618 230.245 153.313 230.303 153.007 230.361L150.597 227.309C150.37 226.983 150.002 226.868 149.65 226.996C149.297 227.125 149.011 227.487 148.882 227.881L147.611 232.187C147.309 232.306 147.008 232.425 146.761 232.595L143.876 230.188C143.606 229.993 143.191 229.948 142.894 230.128C142.549 230.379 142.314 230.731 142.239 231.176L141.599 235.67C141.352 235.84 141.109 236.071 140.811 236.251L137.621 234.702C137.3 234.517 136.893 234.594 136.603 234.896C136.309 235.137 136.133 235.601 136.109 236.037L136.189 240.517C135.997 240.738 135.758 241.03 135.515 241.261L132.07 240.561C131.702 240.446 131.353 240.636 131.067 240.998C130.828 241.29 130.706 241.806 130.785 242.222L131.573 246.506C131.385 246.788 131.197 247.07 131.013 247.413L127.414 247.543C127.054 247.55 126.71 247.8 126.529 248.204C126.349 248.607 126.278 249.113 126.458 249.51L127.893 253.425C127.709 253.768 127.576 254.101 127.442 254.434L123.953 255.467C123.546 255.545 123.26 255.907 123.13 256.301C123.005 256.756 123.036 257.243 123.212 257.579L125.285 261.003C125.238 261.073 125.242 261.134 125.246 261.195L119.267 269.229C119.267 269.229 118.397 270.133 119.653 272.049C120.788 273.681 126.662 280.139 129.765 283.552C131.06 285.276 131.952 286.338 132.05 286.258C132.191 286.046 131.465 282.736 128.91 279.034C126.942 275.652 124.392 270.41 124.968 269.746C124.968 269.746 125.669 268.627 127.107 267.738C127.052 267.687 127.052 267.687 127.107 267.738C127.107 267.738 156.38 281.571 183.802 263.179C186.935 262.214 188.806 264.075 188.806 264.075C189.452 264.507 187.706 270.258 186.303 274.096C184.366 278.467 184.063 281.789 184.223 281.881C184.329 281.923 185.019 280.622 186.018 278.522C188.48 274.298 193.065 266.221 193.919 264.273C194.911 262.052 193.948 261.497 193.948 261.497L187.702 256.464C187.635 256.231 187.569 255.997 187.549 255.693L189.626 251.911C189.862 251.558 189.881 251.062 189.752 250.655C189.623 250.249 189.349 249.993 188.985 249.939L185.454 249.502C185.332 249.217 185.207 248.871 185.086 248.587L186.568 244.364C186.749 243.96 186.718 243.473 186.487 243.086C186.311 242.75 185.99 242.565 185.633 242.632L182.054 243.067C181.882 242.791 181.659 242.526 181.487 242.251L182.339 237.84C182.414 237.394 182.332 236.917 182.109 236.652C181.831 236.335 181.463 236.22 181.11 236.349L177.64 237.686C177.421 237.481 177.202 237.277 176.979 237.011L177.107 232.553C177.13 232.118 176.95 231.721 176.676 231.465C176.352 231.219 175.991 231.226 175.647 231.476L172.431 233.565C172.165 233.431 171.895 233.236 171.628 233.102L171.094 228.77C171.063 228.283 170.785 227.966 170.468 227.842C170.147 227.656 169.74 227.734 169.45 228.035L166.539 230.867C166.277 230.794 166.015 230.721 165.702 230.657L164.513 226.572C164.384 226.166 164.106 225.849 163.742 225.795C163.378 225.741 163.03 225.931 162.744 226.293L160.287 229.777C160.028 229.765 159.715 229.701 159.406 229.699L157.579 226.105C157.399 225.708 157.078 225.523 156.718 225.529C156.358 225.536 156.017 225.847 155.837 226.251Z" fill="url(#paint0_linear_64_3)"/>
<path d="M146.709 276.86C146.597 276.734 146.538 276.659 146.538 276.659L156.116 275.627C148.304 262.061 142.045 272.868 141.378 274.076V276.86H146.709Z" fill="black"/>
<path d="M166.651 276.713C166.763 276.588 166.821 276.513 166.821 276.513L157.617 275.627C165.433 261.504 171.315 272.721 171.982 273.93V276.713H166.651Z" fill="black"/>
<path d="M181.361 263.245C181.361 263.245 180.32 268.728 173.802 274.494L171.989 275.061C171.989 275.061 166.082 260.882 157.715 276.857C157.715 276.857 160.319 274.872 167.303 277.306C167.303 277.306 164.089 283.781 157.626 283.569C157.626 283.569 163.82 293.376 173.264 279.22C173.264 279.22 183.247 274.14 184.054 263.245L181.361 263.245Z" fill="url(#paint1_linear_64_3)"/>
<path d="M161.966 256.217C161.966 256.217 164.888 252.006 167.81 256.217C167.81 256.217 170.106 261.832 167.81 264.639C167.81 264.639 164.053 268.57 161.966 264.639C161.966 264.639 159.461 261.551 161.966 256.217Z" fill="black"/>
<path d="M165.349 257.779C165.349 259.419 164.614 260.748 163.709 260.748C162.803 260.748 162.069 259.419 162.069 257.779C162.069 256.139 162.803 254.81 163.709 254.81C164.614 254.81 165.349 256.139 165.349 257.779Z" fill="white"/>
<path d="M148.924 255.067C148.924 255.067 153.937 252.146 155.305 258.666C155.305 258.666 156.738 266.265 151.189 266.694C151.189 266.694 144.113 264.9 148.924 255.067Z" fill="black"/>
<path d="M151.442 257.887C151.442 259.578 150.684 260.949 149.75 260.949C148.816 260.949 148.059 259.578 148.059 257.887C148.059 256.195 148.816 254.824 149.75 254.824C150.684 254.824 151.442 256.195 151.442 257.887Z" fill="white"/>
<path d="M141.401 280.106C150.555 295.558 154.891 283.15 154.891 283.15C149.752 282.389 146.106 277.886 146.106 277.886C152.273 276.851 155.839 276.766 155.839 276.766C147.584 262.434 140.887 275.413 140.887 275.413C139.216 274.61 137.498 271.545 136.229 268.712L131.106 266.725C137 279.916 141.401 280.106 141.401 280.106Z" fill="url(#paint2_linear_64_3)"/>
</g>
<path fill-rule="evenodd" clip-rule="evenodd" d="M244.358 205.302L240.105 154H286.838L282.581 205.294L263.443 211L244.358 205.302Z" fill="#E44D26"/>
<path fill-rule="evenodd" clip-rule="evenodd" d="M263.472 206.639L278.936 202.028L282.574 158.195H263.472V206.639Z" fill="#F16529"/>
<path d="M255.73 177.222H263.472V183.514H250.38L248.802 164.487H263.472V170.779H255.195L255.73 177.222Z" fill="#EBEBEB"/>
<path d="M263.446 193.57L263.472 193.563V200.109L263.445 200.117L251.461 196.539L250.641 186.66H256.514L256.931 191.678L263.446 193.57Z" fill="#EBEBEB"/>
<path d="M263.452 164.487H278.107L277.583 170.779H263.452V164.487Z" fill="white"/>
<path d="M263.452 183.514V177.222H277.051L276.908 178.911L275.445 196.539L263.452 200.114V193.568L269.977 191.674L270.656 183.514H263.452Z" fill="white"/>
<path fill-rule="evenodd" clip-rule="evenodd" d="M307.497 206.202L303.164 154H350.78L346.443 206.193L326.943 212L307.497 206.202Z" fill="#0071BC"/>
<path fill-rule="evenodd" clip-rule="evenodd" d="M327.012 207.559L342.749 202.909L346.436 158.347H327.012V207.559Z" fill="#29ABE2"/>
<path fill-rule="evenodd" clip-rule="evenodd" d="M313.083 177.526L313.605 183.919L327.012 177.526V171.123L313.083 177.526Z" fill="#B3B3B3"/>
<path fill-rule="evenodd" clip-rule="evenodd" d="M341.861 164.288L327.012 171.123V177.526L341.349 170.68L341.861 164.288Z" fill="#E6E6E6"/>
<path fill-rule="evenodd" clip-rule="evenodd" d="M327.012 194.253L326.966 194.26L320.317 192.343L319.883 187.243H313.899L314.734 197.289L326.965 200.927L327.012 200.915V194.253Z" fill="#E6E6E6"/>
<path fill-rule="evenodd" clip-rule="evenodd" d="M327.012 177.526V183.919H334.292L333.63 192.277L327.012 194.259V200.92L339.203 197.282L340.808 177.526H327.012Z" fill="white"/>
<path fill-rule="evenodd" clip-rule="evenodd" d="M327.012 177.526H313.083L313.605 183.919H327.012V177.526Z" fill="#E6E6E6"/>
<path fill-rule="evenodd" clip-rule="evenodd" d="M327.012 170.68V164.288H326.952H312.025L312.553 170.68H327.012Z" fill="#E6E6E6"/>
<path fill-rule="evenodd" clip-rule="evenodd" d="M327.012 164.288V170.6V170.68H341.349L341.861 164.288H327.012Z" fill="white"/>
<g clip-path="url(#clip1_64_3)">
<path d="M441.493 182.604L438.386 180.707C438.36 180.409 438.331 180.111 438.298 179.815L440.968 177.358C441.239 177.109 441.361 176.739 441.287 176.381C441.216 176.022 440.961 175.726 440.614 175.599L437.201 174.34C437.115 174.048 437.025 173.759 436.934 173.471L439.062 170.554C439.279 170.257 439.324 169.872 439.183 169.533C439.041 169.197 438.732 168.955 438.367 168.896L434.768 168.318C434.628 168.049 434.482 167.784 434.335 167.521L435.848 164.247C436.002 163.913 435.971 163.526 435.764 163.223C435.558 162.919 435.21 162.741 434.838 162.755L431.186 162.88C430.997 162.647 430.804 162.417 430.609 162.19L431.448 158.68C431.533 158.324 431.426 157.951 431.163 157.692C430.902 157.434 430.523 157.327 430.162 157.411L426.605 158.238C426.374 158.046 426.14 157.855 425.903 157.669L426.031 154.066C426.046 153.701 425.865 153.355 425.557 153.152C425.248 152.949 424.857 152.918 424.52 153.069L421.201 154.562C420.933 154.417 420.665 154.273 420.393 154.134L419.806 150.584C419.747 150.224 419.502 149.918 419.16 149.779C418.819 149.638 418.427 149.684 418.126 149.897L415.168 151.997C414.876 151.906 414.584 151.818 414.288 151.734L413.012 148.367C412.882 148.024 412.583 147.772 412.219 147.701C411.855 147.631 411.481 147.75 411.229 148.016L408.739 150.652C408.438 150.619 408.136 150.589 407.834 150.565L405.911 147.499C405.716 147.189 405.372 147 405.001 147C404.631 147 404.287 147.189 404.093 147.499L402.17 150.565C401.867 150.589 401.565 150.619 401.264 150.652L398.773 148.016C398.521 147.75 398.146 147.631 397.784 147.701C397.419 147.773 397.12 148.024 396.99 148.367L395.714 151.734C395.419 151.818 395.126 151.907 394.834 151.997L391.876 149.897C391.575 149.683 391.184 149.638 390.841 149.779C390.5 149.918 390.255 150.224 390.195 150.584L389.608 154.134C389.337 154.273 389.068 154.416 388.8 154.562L385.482 153.069C385.144 152.917 384.751 152.949 384.444 153.152C384.136 153.355 383.956 153.701 383.97 154.066L384.097 157.669C383.861 157.855 383.627 158.046 383.396 158.238L379.839 157.411C379.478 157.328 379.099 157.434 378.837 157.692C378.574 157.951 378.467 158.324 378.552 158.68L379.39 162.19C379.196 162.417 379.003 162.647 378.814 162.88L375.162 162.755C374.794 162.744 374.442 162.919 374.236 163.223C374.029 163.526 373.998 163.913 374.152 164.247L375.665 167.521C375.518 167.784 375.372 168.049 375.231 168.318L371.633 168.896C371.267 168.955 370.959 169.196 370.817 169.533C370.675 169.872 370.721 170.257 370.937 170.554L373.066 173.471C372.973 173.759 372.883 174.048 372.798 174.34L369.385 175.599C369.039 175.726 368.783 176.022 368.711 176.381C368.639 176.74 368.76 177.109 369.031 177.358L371.701 179.815C371.668 180.111 371.638 180.41 371.613 180.707L368.506 182.604C368.192 182.796 368 183.135 368 183.501C368 183.868 368.192 184.207 368.506 184.398L371.613 186.295C371.638 186.593 371.668 186.891 371.701 187.187L369.031 189.645C368.76 189.894 368.639 190.263 368.711 190.621C368.783 190.98 369.039 191.275 369.385 191.404L372.798 192.662C372.883 192.954 372.973 193.243 373.066 193.532L370.937 196.449C370.721 196.746 370.675 197.132 370.817 197.469C370.959 197.807 371.268 198.048 371.633 198.106L375.231 198.684C375.372 198.953 375.516 199.218 375.665 199.482L374.152 202.755C373.998 203.088 374.029 203.475 374.236 203.779C374.442 204.084 374.794 204.262 375.162 204.247L378.813 204.121C379.003 204.355 379.195 204.585 379.39 204.813L378.552 208.323C378.467 208.679 378.574 209.051 378.837 209.309C379.098 209.57 379.478 209.673 379.839 209.59L383.396 208.763C383.627 208.957 383.861 209.145 384.097 209.331L383.97 212.935C383.956 213.3 384.136 213.645 384.444 213.849C384.751 214.052 385.144 214.083 385.482 213.931L388.8 212.439C389.068 212.585 389.336 212.728 389.608 212.866L390.195 216.415C390.255 216.776 390.499 217.082 390.841 217.221C391.183 217.361 391.575 217.315 391.876 217.103L394.832 215.001C395.124 215.093 395.418 215.182 395.713 215.266L396.99 218.632C397.119 218.973 397.419 219.227 397.783 219.296C398.146 219.369 398.52 219.249 398.773 218.981L401.263 216.347C401.564 216.381 401.867 216.409 402.169 216.436L404.092 219.501C404.286 219.81 404.63 220 405.001 220C405.371 220 405.715 219.81 405.91 219.501L407.833 216.436C408.136 216.409 408.437 216.381 408.738 216.347L411.228 218.981C411.48 219.249 411.855 219.369 412.218 219.296C412.582 219.226 412.882 218.973 413.011 218.632L414.287 215.266C414.583 215.182 414.876 215.093 415.168 215.001L418.126 217.103C418.426 217.315 418.818 217.361 419.159 217.221C419.501 217.082 419.746 216.776 419.806 216.415L420.392 212.866C420.664 212.728 420.932 212.583 421.2 212.439L424.519 213.931C424.856 214.083 425.249 214.052 425.556 213.849C425.865 213.645 426.044 213.3 426.031 212.935L425.903 209.331C426.14 209.145 426.374 208.957 426.604 208.763L430.161 209.59C430.522 209.673 430.901 209.57 431.162 209.309C431.425 209.051 431.532 208.679 431.447 208.323L430.609 204.813C430.804 204.585 430.997 204.355 431.185 204.121L434.837 204.247C435.206 204.262 435.558 204.084 435.763 203.779C435.97 203.475 436.002 203.088 435.847 202.755L434.335 199.482C434.482 199.218 434.627 198.953 434.767 198.684L438.366 198.106C438.732 198.048 439.04 197.807 439.182 197.469C439.323 197.132 439.279 196.746 439.062 196.449L436.933 193.532C437.025 193.243 437.115 192.954 437.2 192.662L440.613 191.404C440.96 191.275 441.216 190.98 441.287 190.621C441.36 190.263 441.239 189.894 440.967 189.645L438.297 187.187C438.33 186.891 438.36 186.593 438.386 186.295L441.492 184.398C441.807 184.207 441.999 183.867 441.999 183.501C441.999 183.136 441.808 182.796 441.493 182.604ZM420.701 208.027C419.514 207.775 418.76 206.621 419.014 205.448C419.268 204.275 420.437 203.529 421.623 203.781C422.809 204.032 423.565 205.187 423.31 206.359C423.056 207.531 421.886 208.278 420.701 208.027ZM419.645 200.985C418.563 200.756 417.498 201.435 417.266 202.505L416.163 207.582C412.759 209.106 408.98 209.953 404.999 209.953C400.928 209.953 397.066 209.065 393.602 207.476L392.499 202.398C392.267 201.33 391.203 200.649 390.121 200.879L385.577 201.841C384.734 200.985 383.949 200.072 383.228 199.109H405.337C405.588 199.109 405.754 199.064 405.754 198.84V191.125C405.754 190.9 405.588 190.855 405.337 190.855H398.871V185.965H405.865C406.503 185.965 409.278 186.145 410.165 189.644C410.443 190.72 411.053 194.221 411.471 195.341C411.886 196.598 413.579 199.109 415.382 199.109H426.4C426.525 199.109 426.659 199.095 426.799 199.07C426.035 200.095 425.196 201.064 424.294 201.97L419.645 200.985ZM389.065 207.921C387.879 208.174 386.711 207.428 386.456 206.255C386.202 205.081 386.956 203.928 388.143 203.675C389.329 203.425 390.498 204.171 390.752 205.344C391.006 206.515 390.251 207.67 389.065 207.921ZM380.678 174.37C381.17 175.466 380.67 176.75 379.56 177.235C378.451 177.721 377.153 177.226 376.661 176.13C376.169 175.034 376.669 173.752 377.779 173.266C378.889 172.78 380.186 173.274 380.678 174.37ZM378.1 180.398L382.834 178.323C383.845 177.881 384.302 176.712 383.853 175.712L382.878 173.538H386.712V190.586H378.976C378.305 188.259 377.946 185.804 377.946 183.266C377.946 182.297 377.999 181.339 378.1 180.398ZM398.872 178.743V173.717H408.003C408.474 173.717 411.333 174.255 411.333 176.364C411.333 178.114 409.14 178.742 407.337 178.742H398.872V178.743ZM432.054 183.266C432.054 183.932 432.029 184.592 431.98 185.247H429.204C428.926 185.247 428.814 185.427 428.814 185.696V186.953C428.814 189.913 427.122 190.557 425.64 190.721C424.228 190.878 422.663 190.138 422.47 189.285C421.637 184.664 420.249 183.677 418.057 181.972C420.777 180.268 423.607 177.754 423.607 174.39C423.607 170.757 421.082 168.468 419.362 167.346C416.947 165.776 414.274 165.462 413.553 165.462H384.846C388.739 161.176 394.014 158.14 399.982 157.035L403.365 160.537C404.13 161.327 405.397 161.356 406.198 160.601L409.984 157.029C417.917 158.486 424.634 163.357 428.505 170.041L425.913 175.816C425.465 176.816 425.922 177.985 426.932 178.427L431.922 180.614C432.009 181.488 432.054 182.371 432.054 183.266ZM403.367 154.056C404.243 153.228 405.634 153.26 406.473 154.127C407.311 154.995 407.279 156.368 406.401 157.196C405.524 158.025 404.133 157.993 403.294 157.125C402.457 156.258 402.489 154.885 403.367 154.056ZM429.088 174.476C429.579 173.38 430.877 172.885 431.987 173.372C433.096 173.857 433.596 175.14 433.104 176.236C432.613 177.332 431.315 177.827 430.205 177.341C429.097 176.855 428.596 175.573 429.088 174.476Z" fill="#EEECEC"/>
</g>
<defs>
<linearGradient id="paint0_linear_64_3" x1="157.988" y1="286.869" x2="146.689" y2="227.436" gradientUnits="userSpaceOnUse">
<stop stop-color="#F74C00"/>
<stop offset="0.33" stop-color="#F74C00"/>
<stop offset="1" stop-color="#F49600"/>
</linearGradient>
<linearGradient id="paint1_linear_64_3" x1="170.84" y1="286.877" x2="170.84" y2="263.245" gradientUnits="userSpaceOnUse">
<stop stop-color="#CC3A00"/>
<stop offset="0.15" stop-color="#CC3A00"/>
<stop offset="0.74" stop-color="#F74C00"/>
<stop offset="1" stop-color="#F74C00"/>
</linearGradient>
<linearGradient id="paint2_linear_64_3" x1="143.472" y1="287.864" x2="143.472" y2="266.725" gradientUnits="userSpaceOnUse">
<stop stop-color="#CC3A00"/>
<stop offset="0.15" stop-color="#CC3A00"/>
<stop offset="0.74" stop-color="#F74C00"/>
<stop offset="1" stop-color="#F74C00"/>
</linearGradient>
<clipPath id="clip0_64_3">
<rect width="126" height="128" fill="white" transform="translate(122 224)"/>
</clipPath>
<clipPath id="clip1_64_3">
<rect width="74" height="73" fill="white" transform="translate(368 147)"/>
</clipPath>
</defs>
</svg>
