<svg width="581" height="384" viewBox="0 0 581 384" fill="none" xmlns="http://www.w3.org/2000/svg">
<rect width="581" height="384" fill="#001641"/>
<path d="M60.424 48.264V78H51.1V48.264H60.424ZM81.2252 54.144C83.9412 54.144 86.0552 55.054 87.5672 56.874C89.1072 58.694 89.8772 61.158 89.8772 64.266V78H80.5952V65.442C80.5952 64.322 80.2872 63.44 79.6712 62.796C79.0832 62.124 78.2852 61.788 77.2772 61.788C76.2412 61.788 75.4292 62.124 74.8412 62.796C74.2532 63.44 73.9592 64.322 73.9592 65.442V78H64.6352V54.312H73.9592V57.924C74.6872 56.804 75.6532 55.894 76.8572 55.194C78.0892 54.494 79.5452 54.144 81.2252 54.144ZM104.462 78.294C102.222 78.294 100.234 77.93 98.4983 77.202C96.7903 76.474 95.4323 75.466 94.4243 74.178C93.4163 72.89 92.8423 71.434 92.7023 69.81H101.648C101.76 70.51 102.054 71.028 102.53 71.364C103.034 71.7 103.664 71.868 104.42 71.868C104.896 71.868 105.274 71.77 105.554 71.574C105.834 71.35 105.974 71.084 105.974 70.776C105.974 70.244 105.68 69.866 105.092 69.642C104.504 69.418 103.51 69.166 102.11 68.886C100.402 68.55 98.9883 68.186 97.8683 67.794C96.7763 67.402 95.8103 66.73 94.9703 65.778C94.1583 64.826 93.7523 63.51 93.7523 61.83C93.7523 60.374 94.1303 59.058 94.8863 57.882C95.6703 56.678 96.8183 55.74 98.3303 55.068C99.8423 54.368 101.676 54.018 103.832 54.018C107.024 54.018 109.516 54.802 111.308 56.37C113.128 57.938 114.22 59.982 114.584 62.502H106.31C106.17 61.858 105.876 61.368 105.428 61.032C104.98 60.668 104.378 60.486 103.622 60.486C103.146 60.486 102.782 60.584 102.53 60.78C102.278 60.948 102.152 61.214 102.152 61.578C102.152 62.054 102.446 62.418 103.034 62.67C103.622 62.894 104.56 63.132 105.848 63.384C107.556 63.72 108.998 64.098 110.174 64.518C111.35 64.938 112.372 65.666 113.24 66.702C114.108 67.71 114.542 69.11 114.542 70.902C114.542 72.302 114.136 73.562 113.324 74.682C112.512 75.802 111.336 76.684 109.796 77.328C108.284 77.972 106.506 78.294 104.462 78.294ZM132.985 70.062V78H129.457C122.961 78 119.713 74.766 119.713 68.298V62.082H116.773V54.312H119.713V48.6H129.037V54.312H132.901V62.082H129.037V68.466C129.037 69.026 129.163 69.432 129.415 69.684C129.695 69.936 130.143 70.062 130.759 70.062H132.985ZM135.276 66.156C135.276 63.664 135.696 61.508 136.536 59.688C137.404 57.84 138.58 56.44 140.064 55.488C141.548 54.508 143.214 54.018 145.062 54.018C146.602 54.018 147.932 54.34 149.052 54.984C150.172 55.6 151.026 56.454 151.614 57.546V54.312H160.896V78H151.614V74.766C151.026 75.858 150.172 76.726 149.052 77.37C147.932 77.986 146.602 78.294 145.062 78.294C143.214 78.294 141.548 77.818 140.064 76.866C138.58 75.886 137.404 74.486 136.536 72.666C135.696 70.818 135.276 68.648 135.276 66.156ZM151.614 66.156C151.614 64.896 151.292 63.916 150.648 63.216C150.004 62.516 149.178 62.166 148.17 62.166C147.162 62.166 146.336 62.516 145.692 63.216C145.048 63.916 144.726 64.896 144.726 66.156C144.726 67.416 145.048 68.396 145.692 69.096C146.336 69.796 147.162 70.146 148.17 70.146C149.178 70.146 150.004 69.796 150.648 69.096C151.292 68.396 151.614 67.416 151.614 66.156ZM195.028 48.264L185.032 78H172.978L162.982 48.264H172.894L179.026 68.718L185.116 48.264H195.028ZM201.82 52.422C200.196 52.422 198.894 51.988 197.914 51.12C196.934 50.252 196.444 49.16 196.444 47.844C196.444 46.5 196.934 45.394 197.914 44.526C198.894 43.63 200.196 43.182 201.82 43.182C203.416 43.182 204.704 43.63 205.684 44.526C206.664 45.394 207.154 46.5 207.154 47.844C207.154 49.16 206.664 50.252 205.684 51.12C204.704 51.988 203.416 52.422 201.82 52.422ZM206.44 54.312V78H197.116V54.312H206.44ZM219.975 57.546C220.563 56.454 221.403 55.6 222.495 54.984C223.615 54.34 224.945 54.018 226.485 54.018C228.333 54.018 229.999 54.508 231.483 55.488C232.967 56.44 234.129 57.84 234.969 59.688C235.837 61.508 236.271 63.664 236.271 66.156C236.271 68.648 235.837 70.818 234.969 72.666C234.129 74.486 232.967 75.886 231.483 76.866C229.999 77.818 228.333 78.294 226.485 78.294C224.945 78.294 223.615 77.986 222.495 77.37C221.403 76.726 220.563 75.858 219.975 74.766V78H210.651V46.92H219.975V57.546ZM226.821 66.156C226.821 64.896 226.499 63.916 225.855 63.216C225.211 62.516 224.385 62.166 223.377 62.166C222.369 62.166 221.543 62.516 220.899 63.216C220.255 63.916 219.933 64.896 219.933 66.156C219.933 67.416 220.255 68.396 220.899 69.096C221.543 69.796 222.369 70.146 223.377 70.146C224.385 70.146 225.211 69.796 225.855 69.096C226.499 68.396 226.821 67.416 226.821 66.156ZM262.13 65.946C262.13 66.59 262.088 67.206 262.004 67.794H247.01C247.15 69.838 248.004 70.86 249.572 70.86C250.58 70.86 251.308 70.398 251.756 69.474H261.626C261.29 71.154 260.576 72.666 259.484 74.01C258.42 75.326 257.062 76.376 255.41 77.16C253.786 77.916 251.994 78.294 250.034 78.294C247.682 78.294 245.582 77.804 243.734 76.824C241.914 75.844 240.486 74.444 239.45 72.624C238.442 70.776 237.938 68.62 237.938 66.156C237.938 63.692 238.442 61.55 239.45 59.73C240.486 57.882 241.914 56.468 243.734 55.488C245.582 54.508 247.682 54.018 250.034 54.018C252.386 54.018 254.472 54.508 256.292 55.488C258.14 56.44 259.568 57.812 260.576 59.604C261.612 61.396 262.13 63.51 262.13 65.946ZM252.68 63.72C252.68 62.936 252.428 62.348 251.924 61.956C251.42 61.536 250.79 61.326 250.034 61.326C248.382 61.326 247.416 62.124 247.136 63.72H252.68ZM269.699 78.336C268.075 78.336 266.773 77.902 265.793 77.034C264.813 76.166 264.323 75.074 264.323 73.758C264.323 72.414 264.813 71.308 265.793 70.44C266.773 69.544 268.075 69.096 269.699 69.096C271.295 69.096 272.583 69.544 273.563 70.44C274.543 71.308 275.033 72.414 275.033 73.758C275.033 75.074 274.543 76.166 273.563 77.034C272.583 77.902 271.295 78.336 269.699 78.336ZM269.699 61.704C268.075 61.704 266.773 61.27 265.793 60.402C264.813 59.534 264.323 58.442 264.323 57.126C264.323 55.782 264.813 54.676 265.793 53.808C266.773 52.912 268.075 52.464 269.699 52.464C271.295 52.464 272.583 52.912 273.563 53.808C274.543 54.676 275.033 55.782 275.033 57.126C275.033 58.442 274.543 59.534 273.563 60.402C272.583 61.27 271.295 61.704 269.699 61.704ZM297.261 78.294C293.705 78.294 290.765 77.468 288.441 75.816C286.145 74.136 284.899 71.686 284.703 68.466H294.615C294.755 70.174 295.511 71.028 296.883 71.028C297.387 71.028 297.807 70.916 298.143 70.692C298.507 70.44 298.689 70.062 298.689 69.558C298.689 68.858 298.311 68.298 297.555 67.878C296.799 67.43 295.623 66.926 294.027 66.366C292.123 65.694 290.541 65.036 289.281 64.392C288.049 63.748 286.985 62.81 286.089 61.578C285.193 60.346 284.759 58.764 284.787 56.832C284.787 54.9 285.277 53.262 286.257 51.918C287.265 50.546 288.623 49.51 290.331 48.81C292.067 48.11 294.013 47.76 296.169 47.76C299.809 47.76 302.693 48.6 304.821 50.28C306.977 51.96 308.111 54.326 308.223 57.378H298.185C298.157 56.538 297.947 55.936 297.555 55.572C297.163 55.208 296.687 55.026 296.127 55.026C295.735 55.026 295.413 55.166 295.161 55.446C294.909 55.698 294.783 56.062 294.783 56.538C294.783 57.21 295.147 57.77 295.875 58.218C296.631 58.638 297.821 59.156 299.445 59.772C301.321 60.472 302.861 61.144 304.065 61.788C305.297 62.432 306.361 63.328 307.257 64.476C308.153 65.624 308.601 67.066 308.601 68.802C308.601 70.622 308.153 72.26 307.257 73.716C306.361 75.144 305.059 76.264 303.351 77.076C301.643 77.888 299.613 78.294 297.261 78.294ZM323.133 78.294C320.753 78.294 318.611 77.804 316.707 76.824C314.803 75.844 313.305 74.444 312.213 72.624C311.149 70.776 310.617 68.62 310.617 66.156C310.617 63.692 311.149 61.55 312.213 59.73C313.305 57.882 314.803 56.468 316.707 55.488C318.611 54.508 320.753 54.018 323.133 54.018C325.513 54.018 327.655 54.508 329.559 55.488C331.463 56.468 332.947 57.882 334.011 59.73C335.103 61.55 335.649 63.692 335.649 66.156C335.649 68.62 335.103 70.776 334.011 72.624C332.947 74.444 331.463 75.844 329.559 76.824C327.655 77.804 325.513 78.294 323.133 78.294ZM323.133 70.23C324.001 70.23 324.729 69.894 325.317 69.222C325.905 68.522 326.199 67.5 326.199 66.156C326.199 64.812 325.905 63.804 325.317 63.132C324.729 62.432 324.001 62.082 323.133 62.082C322.265 62.082 321.537 62.432 320.949 63.132C320.361 63.804 320.067 64.812 320.067 66.156C320.067 67.5 320.347 68.522 320.907 69.222C321.495 69.894 322.237 70.23 323.133 70.23ZM337.319 66.156C337.319 63.692 337.823 61.55 338.831 59.73C339.867 57.882 341.295 56.468 343.115 55.488C344.963 54.508 347.063 54.018 349.415 54.018C352.495 54.018 355.085 54.886 357.185 56.622C359.313 58.358 360.657 60.766 361.217 63.846H351.347C350.983 62.614 350.269 61.998 349.205 61.998C348.449 61.998 347.847 62.348 347.399 63.048C346.979 63.748 346.769 64.784 346.769 66.156C346.769 67.528 346.979 68.564 347.399 69.264C347.847 69.964 348.449 70.314 349.205 70.314C350.269 70.314 350.983 69.698 351.347 68.466H361.217C360.657 71.546 359.313 73.954 357.185 75.69C355.085 77.426 352.495 78.294 349.415 78.294C347.063 78.294 344.963 77.804 343.115 76.824C341.295 75.844 339.867 74.444 338.831 72.624C337.823 70.776 337.319 68.62 337.319 66.156ZM368.876 52.422C367.252 52.422 365.95 51.988 364.97 51.12C363.99 50.252 363.5 49.16 363.5 47.844C363.5 46.5 363.99 45.394 364.97 44.526C365.95 43.63 367.252 43.182 368.876 43.182C370.472 43.182 371.76 43.63 372.74 44.526C373.72 45.394 374.21 46.5 374.21 47.844C374.21 49.16 373.72 50.252 372.74 51.12C371.76 51.988 370.472 52.422 368.876 52.422ZM373.496 54.312V78H364.172V54.312H373.496ZM376.447 66.156C376.447 63.664 376.867 61.508 377.707 59.688C378.575 57.84 379.751 56.44 381.235 55.488C382.719 54.508 384.385 54.018 386.233 54.018C387.773 54.018 389.103 54.34 390.223 54.984C391.343 55.6 392.197 56.454 392.785 57.546V54.312H402.067V78H392.785V74.766C392.197 75.858 391.343 76.726 390.223 77.37C389.103 77.986 387.773 78.294 386.233 78.294C384.385 78.294 382.719 77.818 381.235 76.866C379.751 75.886 378.575 74.486 377.707 72.666C376.867 70.818 376.447 68.648 376.447 66.156ZM392.785 66.156C392.785 64.896 392.463 63.916 391.819 63.216C391.175 62.516 390.349 62.166 389.341 62.166C388.333 62.166 387.507 62.516 386.863 63.216C386.219 63.916 385.897 64.896 385.897 66.156C385.897 67.416 386.219 68.396 386.863 69.096C387.507 69.796 388.333 70.146 389.341 70.146C390.349 70.146 391.175 69.796 391.819 69.096C392.463 68.396 392.785 67.416 392.785 66.156ZM415.578 46.92V78H406.254V46.92H415.578ZM86.842 94.264V124H77.56V109.174L72.982 124H65.002L60.424 109.174V124H51.1V94.264H62.524L69.076 112.114L75.46 94.264H86.842ZM113.981 111.946C113.981 112.59 113.939 113.206 113.855 113.794H98.8612C99.0012 115.838 99.8552 116.86 101.423 116.86C102.431 116.86 103.159 116.398 103.607 115.474H113.477C113.141 117.154 112.427 118.666 111.335 120.01C110.271 121.326 108.913 122.376 107.261 123.16C105.637 123.916 103.845 124.294 101.885 124.294C99.5332 124.294 97.4332 123.804 95.5852 122.824C93.7652 121.844 92.3372 120.444 91.3012 118.624C90.2932 116.776 89.7892 114.62 89.7892 112.156C89.7892 109.692 90.2932 107.55 91.3012 105.73C92.3372 103.882 93.7652 102.468 95.5852 101.488C97.4332 100.508 99.5332 100.018 101.885 100.018C104.237 100.018 106.323 100.508 108.143 101.488C109.991 102.44 111.419 103.812 112.427 105.604C113.463 107.396 113.981 109.51 113.981 111.946ZM104.531 109.72C104.531 108.936 104.279 108.348 103.775 107.956C103.271 107.536 102.641 107.326 101.885 107.326C100.233 107.326 99.2672 108.124 98.9872 109.72H104.531ZM115.67 112.156C115.67 109.664 116.09 107.508 116.93 105.688C117.798 103.84 118.974 102.44 120.458 101.488C121.942 100.508 123.608 100.018 125.456 100.018C126.996 100.018 128.312 100.34 129.404 100.984C130.524 101.6 131.378 102.454 131.966 103.546V92.92H141.29V124H131.966V120.766C131.378 121.858 130.524 122.726 129.404 123.37C128.312 123.986 126.996 124.294 125.456 124.294C123.608 124.294 121.942 123.818 120.458 122.866C118.974 121.886 117.798 120.486 116.93 118.666C116.09 116.818 115.67 114.648 115.67 112.156ZM132.008 112.156C132.008 110.896 131.686 109.916 131.042 109.216C130.398 108.516 129.572 108.166 128.564 108.166C127.556 108.166 126.73 108.516 126.086 109.216C125.442 109.916 125.12 110.896 125.12 112.156C125.12 113.416 125.442 114.396 126.086 115.096C126.73 115.796 127.556 116.146 128.564 116.146C129.572 116.146 130.398 115.796 131.042 115.096C131.686 114.396 132.008 113.416 132.008 112.156ZM150.181 98.422C148.557 98.422 147.255 97.988 146.275 97.12C145.295 96.252 144.805 95.16 144.805 93.844C144.805 92.5 145.295 91.394 146.275 90.526C147.255 89.63 148.557 89.182 150.181 89.182C151.777 89.182 153.065 89.63 154.045 90.526C155.025 91.394 155.515 92.5 155.515 93.844C155.515 95.16 155.025 96.252 154.045 97.12C153.065 97.988 151.777 98.422 150.181 98.422ZM154.801 100.312V124H145.477V100.312H154.801ZM157.752 112.156C157.752 109.664 158.172 107.508 159.012 105.688C159.88 103.84 161.056 102.44 162.54 101.488C164.024 100.508 165.69 100.018 167.538 100.018C169.078 100.018 170.408 100.34 171.528 100.984C172.648 101.6 173.502 102.454 174.09 103.546V100.312H183.372V124H174.09V120.766C173.502 121.858 172.648 122.726 171.528 123.37C170.408 123.986 169.078 124.294 167.538 124.294C165.69 124.294 164.024 123.818 162.54 122.866C161.056 121.886 159.88 120.486 159.012 118.666C158.172 116.818 157.752 114.648 157.752 112.156ZM174.09 112.156C174.09 110.896 173.768 109.916 173.124 109.216C172.48 108.516 171.654 108.166 170.646 108.166C169.638 108.166 168.812 108.516 168.168 109.216C167.524 109.916 167.202 110.896 167.202 112.156C167.202 113.416 167.524 114.396 168.168 115.096C168.812 115.796 169.638 116.146 170.646 116.146C171.654 116.146 172.48 115.796 173.124 115.096C173.768 114.396 174.09 113.416 174.09 112.156ZM219.014 104.47C219.014 106.346 218.58 108.054 217.712 109.594C216.844 111.106 215.556 112.31 213.848 113.206C212.168 114.102 210.124 114.55 207.716 114.55H204.02V124H194.696V94.264H207.716C211.356 94.264 214.142 95.188 216.074 97.036C218.034 98.884 219.014 101.362 219.014 104.47ZM206.666 107.2C208.598 107.2 209.564 106.29 209.564 104.47C209.564 102.65 208.598 101.74 206.666 101.74H204.02V107.2H206.666ZM231.295 92.92V124H221.971V92.92H231.295ZM234.246 112.156C234.246 109.664 234.666 107.508 235.506 105.688C236.374 103.84 237.55 102.44 239.034 101.488C240.518 100.508 242.184 100.018 244.032 100.018C245.572 100.018 246.902 100.34 248.022 100.984C249.142 101.6 249.996 102.454 250.584 103.546V100.312H259.866V124H250.584V120.766C249.996 121.858 249.142 122.726 248.022 123.37C246.902 123.986 245.572 124.294 244.032 124.294C242.184 124.294 240.518 123.818 239.034 122.866C237.55 121.886 236.374 120.486 235.506 118.666C234.666 116.818 234.246 114.648 234.246 112.156ZM250.584 112.156C250.584 110.896 250.262 109.916 249.618 109.216C248.974 108.516 248.148 108.166 247.14 108.166C246.132 108.166 245.306 108.516 244.662 109.216C244.018 109.916 243.696 110.896 243.696 112.156C243.696 113.416 244.018 114.396 244.662 115.096C245.306 115.796 246.132 116.146 247.14 116.146C248.148 116.146 248.974 115.796 249.618 115.096C250.262 114.396 250.584 113.416 250.584 112.156ZM278.795 116.062V124H275.267C268.771 124 265.523 120.766 265.523 114.298V108.082H262.583V100.312H265.523V94.6H274.847V100.312H278.711V108.082H274.847V114.466C274.847 115.026 274.973 115.432 275.225 115.684C275.505 115.936 275.953 116.062 276.569 116.062H278.795ZM295.996 98.632C295.492 98.576 295.142 98.548 294.946 98.548C294.246 98.548 293.714 98.688 293.35 98.968C292.986 99.22 292.734 99.668 292.594 100.312H295.996V108.082H292.51V124H283.186V108.082H280.666V100.312H283.186C283.242 97.232 284.208 94.852 286.084 93.172C287.988 91.464 290.648 90.61 294.064 90.61C294.456 90.61 295.1 90.638 295.996 90.694V98.632ZM309.762 124.294C307.382 124.294 305.24 123.804 303.336 122.824C301.432 121.844 299.934 120.444 298.842 118.624C297.778 116.776 297.246 114.62 297.246 112.156C297.246 109.692 297.778 107.55 298.842 105.73C299.934 103.882 301.432 102.468 303.336 101.488C305.24 100.508 307.382 100.018 309.762 100.018C312.142 100.018 314.284 100.508 316.188 101.488C318.092 102.468 319.576 103.882 320.64 105.73C321.732 107.55 322.278 109.692 322.278 112.156C322.278 114.62 321.732 116.776 320.64 118.624C319.576 120.444 318.092 121.844 316.188 122.824C314.284 123.804 312.142 124.294 309.762 124.294ZM309.762 116.23C310.63 116.23 311.358 115.894 311.946 115.222C312.534 114.522 312.828 113.5 312.828 112.156C312.828 110.812 312.534 109.804 311.946 109.132C311.358 108.432 310.63 108.082 309.762 108.082C308.894 108.082 308.166 108.432 307.578 109.132C306.99 109.804 306.696 110.812 306.696 112.156C306.696 113.5 306.976 114.522 307.536 115.222C308.124 115.894 308.866 116.23 309.762 116.23ZM334.531 104.68C335.483 103.308 336.645 102.216 338.017 101.404C339.389 100.564 340.817 100.144 342.301 100.144V110.098H339.655C337.891 110.098 336.589 110.406 335.749 111.022C334.937 111.638 334.531 112.73 334.531 114.298V124H325.207V100.312H334.531V104.68ZM376.439 100.144C379.463 100.144 381.801 101.054 383.453 102.874C385.133 104.694 385.973 107.158 385.973 110.266V124H376.691V111.442C376.691 110.434 376.383 109.65 375.767 109.09C375.179 108.502 374.381 108.208 373.373 108.208C372.337 108.208 371.525 108.502 370.937 109.09C370.349 109.65 370.055 110.434 370.055 111.442V124H360.773V111.442C360.773 110.434 360.465 109.65 359.849 109.09C359.261 108.502 358.463 108.208 357.455 108.208C356.419 108.208 355.607 108.502 355.019 109.09C354.431 109.65 354.137 110.434 354.137 111.442V124H344.813V100.312H354.137V103.504C354.809 102.496 355.719 101.684 356.867 101.068C358.043 100.452 359.415 100.144 360.983 100.144C362.691 100.144 364.203 100.522 365.519 101.278C366.835 102.006 367.885 103.042 368.669 104.386C369.537 103.154 370.643 102.146 371.987 101.362C373.331 100.55 374.815 100.144 376.439 100.144Z" fill="white"/>
<g clip-path="url(#clip0_505_159)">
<g clip-path="url(#clip1_505_159)">
<path fill-rule="evenodd" clip-rule="evenodd" d="M193.125 209H118.875C115.078 209 112 211.763 112 215.172V281.828C112 285.237 115.078 288 118.875 288H193.125C196.922 288 200 285.237 200 281.828V215.172C200 211.763 196.922 209 193.125 209ZM163.741 279.389V270.865C165.463 272.162 167.333 273.134 169.353 273.782C171.372 274.43 173.411 274.754 175.47 274.754C176.677 274.754 177.732 274.656 178.632 274.461C179.533 274.266 180.285 273.995 180.889 273.649C181.493 273.303 181.943 272.894 182.24 272.424C182.537 271.953 182.685 271.442 182.685 270.892C182.685 270.146 182.448 269.48 181.973 268.894C181.498 268.308 180.849 267.767 180.028 267.27C179.206 266.772 178.231 266.293 177.103 265.832C175.975 265.37 174.757 264.899 173.45 264.42C170.125 263.177 167.646 261.658 166.012 259.865C164.379 258.072 163.562 255.905 163.562 253.366C163.562 251.377 164.008 249.668 164.899 248.239C165.79 246.81 167.002 245.633 168.536 244.71C170.07 243.786 171.847 243.107 173.866 242.672C175.886 242.237 178.023 242.02 180.28 242.02C182.497 242.02 184.462 242.139 186.174 242.379C187.887 242.619 189.465 242.987 190.911 243.484V251.448C190.198 251.005 189.421 250.614 188.58 250.277C187.738 249.939 186.872 249.659 185.982 249.438C185.091 249.215 184.205 249.051 183.324 248.945C182.443 248.838 181.607 248.785 180.815 248.785C179.726 248.785 178.736 248.878 177.845 249.064C176.954 249.251 176.202 249.513 175.589 249.85C174.975 250.188 174.5 250.592 174.163 251.062C173.827 251.533 173.658 252.061 173.658 252.647C173.658 253.286 173.846 253.859 174.223 254.365C174.599 254.871 175.133 255.35 175.826 255.803C176.519 256.256 177.36 256.7 178.35 257.135C179.34 257.57 180.458 258.018 181.705 258.48C183.408 259.119 184.937 259.799 186.293 260.518C187.649 261.237 188.812 262.049 189.782 262.955C190.752 263.86 191.495 264.895 192.009 266.058C192.524 267.221 192.781 268.575 192.781 270.12C192.781 272.251 192.331 274.04 191.43 275.487C190.529 276.934 189.307 278.106 187.763 279.003C186.219 279.899 184.422 280.543 182.374 280.934C180.325 281.324 178.162 281.52 175.886 281.52C173.549 281.52 171.327 281.342 169.219 280.987C167.111 280.632 165.285 280.099 163.741 279.389ZM160.125 249.655H147.916V280.902H138.243V249.655H126.094V242.637H160.125V249.655Z" fill="#3178C6"/>
</g>
</g>
<path fill-rule="evenodd" clip-rule="evenodd" d="M263.714 242.563L278.724 250.399C279.147 249.994 279.641 249.637 280.201 249.343C283.314 247.725 287.285 248.685 289.093 251.5C290.882 254.315 289.82 257.904 286.707 259.539C286.151 259.828 285.567 260.035 284.973 260.163V275.841C285.561 275.969 286.138 276.175 286.688 276.461C289.82 278.096 290.882 281.685 289.074 284.5C287.285 287.315 283.295 288.275 280.182 286.657C279.562 286.335 279.024 285.934 278.573 285.476L263.654 293.264C263.867 293.847 263.983 294.47 263.983 295.118C263.983 298.354 261.075 301 257.477 301C253.879 301 250.971 298.371 250.971 295.118C250.971 294.54 251.063 293.981 251.234 293.454L236.228 285.62C235.81 286.017 235.323 286.368 234.772 286.657C231.64 288.275 227.669 287.315 225.88 284.5C224.09 281.685 225.153 278.096 228.266 276.461C228.816 276.175 229.393 275.969 229.981 275.84V260.163C229.387 260.035 228.803 259.828 228.247 259.539C225.134 257.921 224.071 254.315 225.861 251.5C227.65 248.685 231.64 247.725 234.753 249.343C235.31 249.635 235.801 249.99 236.222 250.392L251.237 242.555C251.064 242.025 250.971 241.463 250.971 240.882C250.971 237.629 253.879 235 257.477 235C261.075 235 263.983 237.629 263.983 240.882C263.983 241.467 263.889 242.031 263.714 242.563ZM262.15 244.978L277.196 252.832C276.731 254.309 276.902 255.946 277.815 257.382C278.731 258.823 280.223 259.777 281.879 260.15V275.846C281.794 275.865 281.71 275.885 281.627 275.907L261.975 245.135C262.035 245.083 262.093 245.031 262.15 244.978ZM252.983 245.138L233.331 275.91C233.246 275.888 233.161 275.867 233.075 275.848V260.15C234.731 259.777 236.223 258.823 237.139 257.382C238.054 255.943 238.223 254.302 237.755 252.823L252.797 244.971C252.857 245.028 252.919 245.084 252.983 245.138ZM259.295 246.532L278.941 277.297C278.502 277.676 278.114 278.118 277.796 278.618C277.48 279.115 277.253 279.637 277.11 280.169H237.844C237.701 279.638 237.474 279.116 237.158 278.618C236.838 278.121 236.452 277.682 236.014 277.304L255.664 246.534C256.24 246.684 256.848 246.764 257.477 246.764C258.108 246.764 258.718 246.683 259.295 246.532ZM262.288 291.155L277.237 283.352C277.192 283.225 277.152 283.096 277.116 282.966H237.835C237.815 283.043 237.792 283.118 237.768 283.194L252.79 291.035C253.973 289.926 255.634 289.236 257.477 289.236C259.385 289.236 261.099 289.975 262.288 291.155Z" fill="#E535AB"/>
<path fill-rule="evenodd" clip-rule="evenodd" d="M264.069 225.445C263.021 225.445 262.043 225.165 261.135 224.676L251.845 219.158C250.449 218.39 251.147 218.11 251.566 217.971C253.452 217.342 253.801 217.202 255.757 216.085C255.967 215.945 256.246 216.015 256.456 216.155L263.58 220.415C263.86 220.555 264.209 220.555 264.418 220.415L292.288 204.28C292.567 204.141 292.707 203.861 292.707 203.512V171.312C292.707 170.962 292.567 170.683 292.288 170.543L264.418 154.478C264.139 154.338 263.79 154.338 263.58 154.478L235.71 170.543C235.431 170.683 235.291 171.032 235.291 171.312V203.512C235.291 203.791 235.431 204.141 235.71 204.28L243.324 208.681C247.445 210.776 250.029 208.332 250.029 205.887V174.106C250.029 173.687 250.379 173.267 250.868 173.267H254.43C254.849 173.267 255.268 173.617 255.268 174.106V205.887C255.268 211.405 252.265 214.618 247.026 214.618C245.419 214.618 244.162 214.618 240.6 212.872L233.266 208.681C231.45 207.633 230.332 205.677 230.332 203.582V171.382C230.332 169.286 231.45 167.33 233.266 166.283L261.135 150.147C262.882 149.17 265.256 149.17 267.003 150.147L294.872 166.283C296.688 167.33 297.806 169.286 297.806 171.382V203.582C297.806 205.677 296.688 207.633 294.872 208.681L267.003 224.816C266.095 225.235 265.047 225.445 264.069 225.445ZM272.66 203.302C260.437 203.302 257.922 197.715 257.922 192.965C257.922 192.546 258.272 192.127 258.761 192.127H262.393C262.812 192.127 263.161 192.406 263.161 192.825C263.72 196.527 265.326 198.343 272.73 198.343C278.598 198.343 281.112 197.016 281.112 193.873C281.112 192.057 280.414 190.73 271.263 189.822C263.65 189.053 258.9 187.377 258.9 181.3C258.9 175.642 263.65 172.29 271.613 172.29C280.553 172.29 284.954 175.363 285.513 182.068C285.513 182.278 285.443 182.488 285.303 182.697C285.163 182.837 284.954 182.976 284.744 182.976H281.112C280.763 182.976 280.414 182.697 280.344 182.348C279.506 178.506 277.34 177.249 271.613 177.249C265.187 177.249 264.418 179.484 264.418 181.16C264.418 183.186 265.326 183.815 273.988 184.932C282.579 186.05 286.63 187.656 286.63 193.663C286.56 199.81 281.531 203.302 272.66 203.302Z" fill="#539E43"/>
<g clip-path="url(#clip2_505_159)">
<path d="M374.697 284.84H383.439L369.483 258.011H359.818L345.862 284.84H354.605L356.885 280.296H370.072L367.685 275.267H359.002L364.65 263.723L374.697 284.84ZM403.525 264.977C403.215 264.148 402.059 263.661 400.935 263.892C399.816 264.123 399.16 264.981 399.471 265.81C400.349 268.151 400.793 270.57 400.793 273C400.793 287.824 384.512 299.883 364.5 299.883C344.488 299.883 328.207 287.824 328.207 273C328.207 258.176 344.488 246.116 364.5 246.116C372.977 246.116 381.18 248.347 387.654 252.317C387.402 252.762 387.263 253.251 387.263 253.764C387.263 255.834 389.529 257.513 392.324 257.513C395.12 257.513 397.386 255.834 397.386 253.764C397.386 251.693 395.12 250.014 392.324 250.014C391.786 250.014 391.268 250.078 390.781 250.193C383.491 245.591 374.155 243 364.5 243C342.168 243 324 256.458 324 273C324 289.542 342.168 303 364.5 303C386.832 303 405 289.542 405 273C405 270.288 404.504 267.588 403.525 264.977Z" fill="#F1F1F1"/>
</g>
<g clip-path="url(#clip3_505_159)">
<g clip-path="url(#clip4_505_159)">
<g clip-path="url(#clip5_505_159)">
<path fill-rule="evenodd" clip-rule="evenodd" d="M402.516 202.166C402.035 200.711 400.776 199.697 399.148 199.454C398.381 199.339 397.502 199.388 396.461 199.603C394.648 199.977 393.303 200.119 392.321 200.147C396.027 193.891 399.04 186.756 400.775 180.04C403.579 169.18 402.081 164.233 400.329 161.995C395.694 156.073 388.931 152.891 380.772 152.793C376.42 152.74 372.599 153.599 370.606 154.217C368.75 153.89 366.754 153.707 364.66 153.673C360.736 153.611 357.268 154.466 354.305 156.224C352.664 155.67 350.032 154.888 346.992 154.389C339.841 153.215 334.077 154.13 329.862 157.108C324.757 160.714 322.391 166.978 322.828 175.728C322.967 178.506 324.521 186.959 326.968 194.975C328.374 199.582 329.874 203.409 331.425 206.348C333.625 210.516 335.979 212.971 338.621 213.853C340.102 214.346 342.793 214.692 345.624 212.335C345.983 212.769 346.461 213.201 347.096 213.602C347.903 214.11 348.89 214.526 349.875 214.772C353.425 215.66 356.751 215.438 359.588 214.194C359.605 214.699 359.619 215.181 359.63 215.597C359.649 216.272 359.668 216.934 359.692 217.554C359.861 221.741 360.145 224.996 360.989 227.274C361.036 227.399 361.098 227.59 361.164 227.792C361.585 229.082 362.289 231.24 364.08 232.93C365.935 234.681 368.179 235.218 370.234 235.218C371.264 235.218 372.248 235.083 373.11 234.898C376.184 234.239 379.676 233.235 382.201 229.639C384.589 226.239 385.75 221.118 385.96 213.05C385.987 212.822 386.013 212.604 386.037 212.396C386.053 212.256 386.07 212.113 386.087 211.97L386.649 212.019L386.794 212.029C389.925 212.172 393.754 211.508 396.105 210.416C397.964 209.553 403.917 206.41 402.516 202.166" fill="black"/>
<path fill-rule="evenodd" clip-rule="evenodd" d="M397.162 202.992C387.851 204.912 387.211 201.76 387.211 201.76C397.041 187.174 401.151 168.659 397.605 164.127C387.93 151.766 371.183 157.612 370.904 157.764L370.814 157.78C368.974 157.398 366.916 157.171 364.602 157.133C360.39 157.064 357.194 158.237 354.769 160.076C354.769 160.076 324.894 147.769 326.284 175.555C326.579 181.466 334.756 220.282 344.509 208.558C348.074 204.271 351.518 200.646 351.518 200.646C353.229 201.782 355.277 202.362 357.424 202.154L357.591 202.012C357.539 202.545 357.563 203.065 357.658 203.682C355.145 206.489 355.883 206.982 350.861 208.016C345.778 209.063 348.764 210.928 350.713 211.415C353.077 212.006 358.544 212.843 362.238 207.672L362.091 208.262C363.075 209.05 363.766 213.391 363.651 217.325C363.535 221.26 363.457 223.961 364.233 226.071C365.009 228.181 365.782 232.929 372.385 231.514C377.902 230.332 380.761 227.268 381.159 222.157C381.441 218.524 382.08 219.061 382.12 215.812L382.632 214.274C383.223 209.349 382.726 207.76 386.125 208.499L386.951 208.572C389.453 208.686 392.727 208.169 394.649 207.276C398.787 205.356 401.241 202.149 397.161 202.992H397.162" fill="#336791"/>
<path fill-rule="evenodd" clip-rule="evenodd" d="M356.518 178.199C355.679 178.082 354.919 178.19 354.535 178.481C354.318 178.645 354.252 178.834 354.234 178.965C354.185 179.311 354.428 179.693 354.577 179.891C354.998 180.449 355.613 180.833 356.223 180.917C356.311 180.93 356.399 180.936 356.486 180.936C357.502 180.936 358.426 180.145 358.507 179.561C358.609 178.829 357.547 178.342 356.518 178.199" fill="white"/>
<path fill-rule="evenodd" clip-rule="evenodd" d="M384.312 178.222H384.312C384.232 177.648 383.212 177.485 382.244 177.62C381.277 177.754 380.34 178.191 380.418 178.765C380.481 179.212 381.288 179.975 382.243 179.974C382.323 179.974 382.404 179.969 382.486 179.958C383.124 179.869 383.592 179.465 383.814 179.231C384.152 178.876 384.348 178.479 384.312 178.222" fill="white"/>
<path fill-rule="evenodd" clip-rule="evenodd" d="M400.26 202.774C399.905 201.7 398.762 201.354 396.864 201.747C391.227 202.91 389.209 202.104 388.546 201.616C392.927 194.941 396.531 186.874 398.476 179.346C399.397 175.78 399.905 172.469 399.947 169.77C399.993 166.807 399.488 164.63 398.448 163.301C394.252 157.939 388.094 155.064 380.64 154.985C375.516 154.927 371.187 156.239 370.347 156.607C368.58 156.168 366.653 155.898 364.555 155.864C360.708 155.801 357.383 156.722 354.63 158.599C353.434 158.155 350.344 157.094 346.564 156.485C340.03 155.433 334.838 156.23 331.132 158.855C326.711 161.987 324.67 167.586 325.066 175.497C325.199 178.158 326.715 186.345 329.108 194.186C332.258 204.505 335.682 210.347 339.285 211.549C339.706 211.689 340.193 211.788 340.729 211.788C342.043 211.788 343.654 211.195 345.331 209.18C348.115 205.83 350.715 203.023 351.674 202.003C353.09 202.763 354.646 203.188 356.237 203.23C356.24 203.272 356.244 203.313 356.248 203.355C355.929 203.734 355.667 204.065 355.443 204.349C354.341 205.748 354.111 206.04 350.562 206.771C349.553 206.979 346.871 207.532 346.832 209.411C346.789 211.465 350.001 212.327 350.367 212.419C351.643 212.738 352.872 212.895 354.043 212.895C356.893 212.895 359.401 211.959 361.405 210.146C361.343 217.467 361.649 224.682 362.528 226.88C363.248 228.679 365.006 233.076 370.562 233.076C371.377 233.076 372.275 232.981 373.262 232.77C379.06 231.527 381.577 228.964 382.551 223.315C383.073 220.295 383.967 213.085 384.388 209.218C385.276 209.495 386.419 209.621 387.654 209.621C390.231 209.621 393.205 209.074 395.07 208.208C397.165 207.235 400.945 204.848 400.26 202.774V202.774V202.774ZM386.452 176.639C386.433 177.781 386.276 178.818 386.109 179.9C385.93 181.063 385.745 182.266 385.698 183.727C385.652 185.148 385.829 186.626 386.001 188.055C386.348 190.941 386.704 193.913 385.326 196.845C385.112 196.464 384.905 196.049 384.716 195.59C384.544 195.175 384.172 194.508 383.658 193.585C381.654 189.992 376.963 181.579 379.365 178.146C380.08 177.124 381.895 176.074 386.452 176.639V176.639V176.639ZM380.929 157.297C387.607 157.444 392.89 159.943 396.631 164.722C399.5 168.389 396.341 185.07 387.195 199.462C387.105 199.347 387.013 199.231 386.918 199.112C386.88 199.065 386.841 199.016 386.802 198.968C389.165 195.065 388.703 191.203 388.292 187.78C388.123 186.375 387.963 185.047 388.004 183.801C388.046 182.48 388.221 181.347 388.389 180.251C388.597 178.901 388.808 177.504 388.75 175.856C388.794 175.684 388.811 175.48 388.788 175.237C388.64 173.658 386.837 168.931 383.161 164.653C381.151 162.313 378.219 159.694 374.216 157.928C375.938 157.571 378.292 157.238 380.929 157.297V157.297V157.297ZM343.557 207.705C341.71 209.926 340.434 209.5 340.015 209.36C337.282 208.449 334.11 202.672 331.315 193.512C328.895 185.586 327.481 177.616 327.37 175.381C327.016 168.313 328.73 163.387 332.462 160.74C338.537 156.432 348.524 159.011 352.537 160.319C352.479 160.375 352.419 160.429 352.362 160.486C345.777 167.137 345.933 178.5 345.949 179.194C345.949 179.462 345.971 179.842 346.002 180.364C346.115 182.275 346.326 185.832 345.763 189.86C345.239 193.603 346.393 197.267 348.928 199.912C349.191 200.185 349.464 200.443 349.747 200.684C348.619 201.893 346.167 204.565 343.557 207.705V207.705V207.705ZM350.594 198.315C348.551 196.184 347.623 193.218 348.048 190.179C348.643 185.924 348.423 182.218 348.305 180.227C348.289 179.949 348.274 179.704 348.265 179.512C349.227 178.659 353.686 176.27 356.865 176.998C358.316 177.331 359.2 178.319 359.567 180.018C361.469 188.816 359.819 192.483 358.493 195.429C358.22 196.036 357.961 196.61 357.741 197.204L357.57 197.663C357.137 198.823 356.735 199.902 356.485 200.926C354.313 200.92 352.2 199.992 350.594 198.315V198.315V198.315ZM350.927 210.18C350.293 210.022 349.723 209.747 349.388 209.518C349.667 209.387 350.165 209.208 351.028 209.03C355.203 208.171 355.848 207.564 357.256 205.776C357.579 205.366 357.945 204.902 358.451 204.336C358.452 204.335 358.452 204.335 358.452 204.335C359.207 203.49 359.552 203.633 360.178 203.893C360.686 204.103 361.18 204.739 361.38 205.439C361.475 205.769 361.582 206.397 361.233 206.885C358.292 211.004 354.006 210.951 350.927 210.18V210.18V210.18ZM372.778 230.514C367.67 231.608 365.862 229.002 364.67 226.023C363.901 224.099 363.523 215.426 363.791 205.847C363.795 205.72 363.776 205.597 363.741 205.481C363.711 205.258 363.664 205.032 363.599 204.804C363.199 203.41 362.228 202.245 361.062 201.761C360.598 201.569 359.748 201.217 358.726 201.478C358.944 200.581 359.322 199.567 359.732 198.469L359.903 198.007C360.097 197.486 360.34 196.947 360.597 196.376C361.984 193.293 363.885 189.07 361.822 179.53C361.05 175.957 358.469 174.213 354.558 174.618C352.213 174.86 350.068 175.807 348.998 176.349C348.768 176.466 348.557 176.578 348.361 176.688C348.659 173.088 349.788 166.36 354.008 162.103C356.666 159.423 360.205 158.099 364.517 158.17C373.013 158.31 378.462 162.67 381.537 166.303C384.186 169.434 385.621 172.588 386.194 174.289C381.888 173.851 378.959 174.702 377.474 176.824C374.244 181.441 379.241 190.402 381.643 194.708C382.083 195.498 382.463 196.18 382.583 196.47C383.365 198.365 384.377 199.63 385.116 200.554C385.343 200.837 385.563 201.111 385.73 201.351C384.426 201.727 382.083 202.596 382.297 206.938C382.124 209.117 380.9 219.318 380.278 222.922C379.457 227.684 377.705 229.458 372.778 230.514V230.514V230.514ZM394.098 206.115C392.765 206.735 390.533 207.199 388.413 207.298C386.071 207.408 384.879 207.036 384.599 206.807C384.467 204.101 385.475 203.819 386.54 203.519C386.708 203.472 386.871 203.426 387.029 203.371C387.127 203.451 387.235 203.53 387.352 203.608C389.234 204.85 392.591 204.984 397.33 204.006C397.348 204.002 397.365 203.999 397.382 203.995C396.743 204.593 395.649 205.395 394.098 206.115V206.115V206.115Z" fill="white"/>
</g>
</g>
</g>
<path fill-rule="evenodd" clip-rule="evenodd" d="M208.184 189.469C208.389 188.579 208.637 188.05 209.179 188.05C209.877 188.05 210.11 188.884 209.953 189.965C209.3 194.454 207.36 196.16 204.988 196.16C203.877 196.16 200.689 195.649 199.586 191.075C198.773 187.699 198.974 181.525 199.063 179.638C199.065 179.587 198.993 179.324 198.836 179.657L198.802 179.73C198.353 180.69 197.221 183.109 196.535 185.779C195.456 189.976 195.363 192.897 195.416 193.369C195.525 194.339 194.305 194.491 193.722 194.491C192.805 194.491 191.679 194.419 190.767 192.896C190.448 192.363 190.032 190.679 189.721 187.831C189.313 184.109 189.25 181.301 189.225 180.218L189.223 180.095C189.211 179.61 188.906 179.686 188.635 180.144L188.594 180.213C188.095 181.055 187.101 182.731 186.037 186.874C185.533 188.835 185.459 191.318 185.401 193.284C185.383 193.863 185.368 194.398 185.342 194.861C185.3 195.635 184.992 195.935 184.597 196.01C184.026 196.119 182.485 196.37 180.973 195.84C180.631 195.72 180.162 195.472 180.081 195.274C179.949 194.951 179.865 193.926 179.812 192.672C178.54 195.52 176.971 196.16 175.319 196.16C173.732 196.16 170.962 195.12 170.392 191.752C170.392 191.752 170.051 192.423 169.452 193.199C166.793 196.641 161.557 197.52 158.848 193.461C158.716 193.263 158.595 193.049 158.479 192.828C157.52 194.813 155.73 196.149 153.858 196.149C152.259 196.149 149.563 195.124 148.367 191.939C146.644 187.352 148.48 180.5 148.643 179.894L148.649 179.871C148.744 179.515 148.596 179.416 148.082 179.447C146.476 179.547 144.97 179.535 144.97 179.535C144.083 182.181 142.351 185.581 140.734 188.113C139.251 190.436 137.64 192.421 136.21 193.991C136.228 195.172 136.249 196.308 136.268 197.346V197.346V197.346C136.282 198.105 136.295 198.812 136.305 199.446C136.366 203.194 135.536 206.988 134.267 208.752C132.826 210.755 130.478 212.186 127.74 211.98C125.158 211.787 121.749 210.309 122.039 206.332C122.266 203.218 125.353 200.543 129.418 197.019L129.435 197.005C130.359 196.203 131.865 194.897 131.865 194.897L131.788 192.759C131.693 192.891 131.585 193.038 131.461 193.199C128.821 196.646 123.566 197.52 120.857 193.461C120.677 193.192 120.513 192.908 120.362 192.611C119.076 195.349 117.241 196.143 115.464 196.143C113.877 196.143 111.106 195.006 110.721 191.752C110.721 191.752 110.597 192.134 109.781 193.199C107.141 196.646 101.886 197.52 99.1769 193.461C98.6114 192.613 98.1735 191.612 97.8776 190.459C96.8472 193.286 94.4907 196.159 92.1403 196.159C88.6248 196.159 86.6014 193.228 86.126 188.047C83.47 194.045 79.6547 196.371 74.8919 196.22C73.6695 196.181 71.7528 195.841 70.861 195.466C69.8253 195.029 68.8262 194.531 69.1005 193.587C69.3825 192.618 69.8763 191.835 70.7398 191.219C71.0722 190.982 71.6267 191.05 71.9899 191.276C72.283 191.458 72.503 191.616 72.713 191.766L72.713 191.766C72.9871 191.963 73.2442 192.147 73.6249 192.358C75.9313 193.638 77.2271 192.321 77.5712 191.044C78.0211 189.373 77.3431 187.612 75.2778 185.758C74.7208 185.258 74.1635 184.778 73.63 184.319L73.6297 184.318C73.3121 184.045 73.003 183.779 72.7073 183.52C71.5701 185.332 69.9873 187.847 68.3572 190.412C65.7424 194.528 63.3032 196.154 61.5728 196.154C59.3111 196.154 57.7283 194.629 58.0579 186.402C58.1229 184.778 58.2045 183.002 58.2747 181.475V181.475C58.3374 180.11 58.3911 178.943 58.4156 178.26C58.4273 177.933 58.1843 177.945 57.9715 178.145C56.7544 179.289 54.1663 182.512 52.181 189.118C51.0956 192.729 50.9298 194.091 50.8112 195.065C50.7905 195.235 50.7712 195.394 50.7486 195.55C50.6226 196.428 48.1938 196.133 47.7504 196.047C47.274 195.954 46.985 195.728 46.735 195.433C46.4849 195.137 46.2829 194.639 46.1581 194.028C46.0329 193.417 46 192.02 46 190.823L46.1067 175.066C46.1067 174.555 46.3982 174.298 46.9819 174.298C48.207 174.298 49.585 174.84 50.101 175.105C50.4054 175.261 50.5386 175.489 50.5386 175.725L50.4731 185.796C50.4731 185.796 51.2311 183.873 51.6171 182.817C54.6787 174.442 57.9189 174.298 59.042 174.298C59.7923 174.298 61.0879 174.993 61.6949 175.346C62.694 175.927 63.29 176.57 63.2448 177.697C63.2118 178.52 63.1768 179.336 63.1427 180.132L63.1427 180.133L63.1426 180.134C63.0356 182.632 62.9373 184.926 62.9373 186.586L62.9373 186.686C62.9371 189.197 62.9369 191.839 63.8669 191.839C64.9794 191.839 66.4314 189.459 68.327 186.351L68.3271 186.351C68.4398 186.166 68.5541 185.979 68.6699 185.789C69.4138 184.573 70.2921 183.004 70.9314 181.838C70.845 181.744 70.7613 181.651 70.6842 181.559C69.6269 180.305 69.3391 179.098 69.8788 177.471C70.5753 175.371 72.9106 173.404 75.7428 174.02C77.4568 174.393 77.4267 176.082 76.7283 177.558C75.7428 179.642 74.6314 180.678 74.6314 180.678C76.5503 182.02 78.2653 183.246 79.134 183.893C81.492 185.649 82.8011 187.724 82.1603 190.486C82.1603 190.486 85.1444 188.23 85.9916 184.055C85.9901 183.82 85.9888 183.578 85.9888 183.327C85.9888 180.967 86.0574 173.324 86.0574 173.324C85.4461 173.307 84.7113 173.29 83.9641 173.273C82.8298 173.246 81.6668 173.219 80.8635 173.19C79.7054 173.148 80.6095 169.741 81.4472 169.741C81.898 169.741 82.8932 169.783 83.8884 169.824C84.8834 169.866 85.8783 169.907 86.3289 169.907C86.3289 169.907 86.4138 165.55 86.5777 164.062C86.6866 163.082 87.2438 162.847 88.472 163.087C89.361 163.26 90.1111 163.421 90.9493 163.756L90.9776 163.767C91.3258 163.906 91.8942 164.131 91.8556 164.559C91.8088 165.086 91.608 170.077 91.608 170.077C91.608 170.077 93.8467 170.234 94.6509 170.251C95.6073 170.27 98.0197 170.392 98.361 170.53C99.1141 170.837 98.4112 173.313 97.6814 173.349C96.626 173.4 95.8156 173.401 95.0331 173.402C94.737 173.402 94.4449 173.403 94.145 173.406C93.721 173.411 91.5312 173.446 91.5312 173.446C91.4727 174.17 91.1271 181.689 91.1271 186.97C91.1271 190.935 92.093 192.795 93.1072 192.795C94.8403 192.795 96.9591 189.598 97.4388 186.823C97.4305 185.846 97.4945 184.801 97.6393 183.685C98.1405 179.822 99.1145 178.077 100.317 176.504C102.162 174.09 104.577 173.502 106.903 174.155C107.767 174.397 109.065 175.232 109.873 176.431V175.566C109.873 175.191 110.29 174.687 110.885 174.646C111.335 174.614 111.922 174.669 112.602 174.817C113.251 174.96 114.647 175.344 114.658 176.108C114.66 176.212 114.65 176.467 114.636 176.834L114.636 176.838L114.636 176.84L114.636 176.841C114.616 177.345 114.589 178.059 114.571 178.882C114.553 179.718 114.528 180.442 114.504 181.166V181.166V181.166V181.166L114.504 181.167C114.456 182.589 114.408 184.01 114.408 186.282C114.408 192.159 115.283 193.445 116.821 193.445C118.023 193.445 119.087 191.637 119.457 189.908C119.114 188.181 119.068 186.131 119.319 183.719C119.589 181.131 120.542 178.429 121.997 176.504C123.829 174.081 126.257 173.502 128.583 174.155C129.447 174.397 130.745 175.232 131.553 176.431C131.553 176.431 131.553 175.756 131.549 175.646C131.534 175.064 132.125 174.572 133.107 174.644C133.885 174.701 134.634 174.865 135.269 175.101C135.986 175.368 136.33 175.579 136.339 176.137C136.34 176.241 136.331 176.489 136.317 176.847L136.316 176.847C136.297 177.344 136.269 178.052 136.251 178.882C136.219 180.341 136.147 184.387 136.164 189.528C136.165 189.889 136.167 190.252 136.17 190.615C136.926 189.641 137.512 188.724 138.278 187.486C139.707 185.177 141.092 181.982 141.657 179.537C141.657 179.537 139.935 178.595 140.214 176.599C140.39 175.341 140.853 174.641 141.534 174.048C142.675 173.054 146.25 172.802 145.865 175.913C145.792 176.506 145.703 176.842 145.703 176.842C147.181 176.635 148.796 176.366 149.926 176.115C151.512 175.763 152.615 176.049 153.133 176.609C153.698 177.219 153.923 177.856 153.646 179.071C153.53 179.582 153.415 180.064 153.305 180.528L153.305 180.53C152.799 182.657 152.386 184.399 152.313 186.705C152.178 190.976 153.338 193.445 154.938 193.445C156.04 193.445 157.047 192.537 157.589 190.321C157.14 188.356 157.058 186.034 157.31 183.743C157.656 180.61 158.533 178.429 159.988 176.504C161.82 174.081 164.247 173.501 166.574 174.155C167.438 174.397 168.736 175.232 169.543 176.431C169.543 176.431 169.54 175.886 169.54 175.599C169.54 175.064 169.984 174.676 170.61 174.642C171.053 174.618 171.62 174.674 172.273 174.817C172.922 174.959 174.318 175.344 174.329 176.107C174.331 176.213 174.321 176.471 174.307 176.841L174.306 176.842C174.287 177.347 174.26 178.059 174.242 178.882C174.224 179.718 174.199 180.443 174.175 181.167C174.127 182.589 174.079 184.01 174.079 186.282C174.079 192.159 174.805 193.445 176.342 193.445C177.878 193.445 179.29 190.369 179.726 188.103C179.725 187.855 179.724 187.621 179.724 187.407C179.724 183.04 179.822 177.01 179.844 175.633L179.844 175.629L179.844 175.626L179.848 175.416L179.849 175.346C179.849 174.74 180.041 174.324 180.829 174.324C181.467 174.324 182.97 174.674 183.733 174.883C183.902 174.93 184.464 175.188 184.461 175.963C184.452 178.018 184.443 183.433 184.443 183.433C184.443 183.433 184.929 182.075 185.627 180.068C186.486 177.599 187.313 175.515 188.027 174.741C188.85 173.795 191.138 174.59 191.892 175.04C193.053 175.734 193.276 176.58 193.283 177.575C193.317 182.223 193.566 184.651 193.711 186.056C193.725 186.192 193.738 186.318 193.75 186.436C193.769 186.638 193.881 186.62 193.892 186.534C194.101 184.867 194.987 180.762 197.252 175.592C198.051 173.768 199.653 174.318 200.76 174.698L200.772 174.702C203.346 175.587 203.611 176.485 203.559 177.392C203.31 181.81 203.278 186.25 203.474 188.663C203.722 191.73 204.689 193.263 205.764 193.263C206.727 193.263 207.474 192.564 208.184 189.469ZM167.644 191.747C168.314 190.38 168.854 188.443 168.967 185.965C169.196 180.933 168.223 178.211 166.143 178.013C164.034 177.812 162.76 180.037 162.304 182.984C161.856 185.876 161.885 189.338 162.509 191.411C163.652 195.213 166.346 194.392 167.644 191.747ZM131.993 200.553C131.965 204.677 131.34 208.294 129.999 209.344C128.097 210.833 125.541 209.716 126.071 206.707C126.539 204.043 128.754 201.323 131.998 198C131.998 198 132.005 198.758 131.993 200.553ZM130.635 191.743C131.26 190.461 131.833 188.192 131.951 185.933C132.244 180.329 131.22 178 129.143 178C127.007 178 125.818 180.556 125.327 183.31C124.949 185.434 124.766 188.803 125.53 191.407C126.648 195.217 129.345 194.39 130.635 191.743ZM109.959 185.911C109.832 188.303 109.376 190.302 108.644 191.754C107.32 194.383 104.7 195.216 103.544 191.418C102.711 188.68 102.995 184.945 103.341 182.928C103.856 179.934 105.143 177.812 107.154 178.013C109.218 178.22 110.222 180.934 109.959 185.911ZM28.2479 173.734C29.5132 168.648 33.5193 164.6 37.1634 163.165C38.6876 162.565 41.9172 163.713 41.94 164.808C42.0186 168.595 42.0009 174.514 41.9912 177.768C41.9895 178.349 41.988 178.845 41.9873 179.229C41.9869 179.487 41.9865 179.764 41.9861 180.056C41.9824 182.884 41.9768 187.124 41.875 189.893C41.7818 192.426 41.2636 194.759 39.7832 196.701C38.5485 198.321 36.4157 199.326 35.9161 198.903C35.6093 198.644 35.7914 198.1 36.0544 197.315C36.1744 196.957 36.3113 196.549 36.4262 196.094C36.7885 194.662 36.9902 193.213 36.9902 188.623C36.9902 186.664 37.0257 180.41 37.0557 175.13C37.0776 171.272 37.0966 167.935 37.0966 167.17C37.0966 167.125 37.0966 167.082 37.0967 167.039C37.0976 166.111 37.0981 165.628 36.621 166.004C33.9334 168.12 31.7982 172.944 32.2873 177.261C32.4922 179.07 33.1247 180.004 33.5599 180.646C33.9288 181.191 34.1559 181.526 33.8606 182.008C33.3137 182.9 26.6455 180.175 28.2479 173.734Z" fill="#FDFDFD"/>
<defs>
<clipPath id="clip0_505_159">
<rect width="126" height="128" fill="white" transform="translate(122 224)"/>
</clipPath>
<clipPath id="clip1_505_159">
<rect width="88" height="79" fill="white" transform="translate(112 209)"/>
</clipPath>
<clipPath id="clip2_505_159">
<rect width="81" height="60" fill="white" transform="translate(324 243)"/>
</clipPath>
<clipPath id="clip3_505_159">
<rect width="87" height="76.7215" fill="white" transform="translate(318 156)"/>
</clipPath>
<clipPath id="clip4_505_159">
<rect width="80.1672" height="82.6466" fill="white" transform="translate(322.684 152.677)"/>
</clipPath>
<clipPath id="clip5_505_159">
<rect width="80.1421" height="82.6466" fill="white" transform="translate(322.684 152.677)"/>
</clipPath>
</defs>
</svg>
